<?xml version="1.0" encoding="UTF-8" standalone="no"?>
<svg
   width="864pt"
   height="576pt"
   viewBox="0 0 864 576"
   version="1.1"
   id="svg396"
   sodipodi:docname="Alpha vs Beta.svg"
   inkscape:version="1.1.1 (3bf5ae0d25, 2021-09-20)"
   xmlns:inkscape="http://www.inkscape.org/namespaces/inkscape"
   xmlns:sodipodi="http://sodipodi.sourceforge.net/DTD/sodipodi-0.dtd"
   xmlns:xlink="http://www.w3.org/1999/xlink"
   xmlns="http://www.w3.org/2000/svg"
   xmlns:svg="http://www.w3.org/2000/svg"
   xmlns:rdf="http://www.w3.org/1999/02/22-rdf-syntax-ns#"
   xmlns:cc="http://creativecommons.org/ns#"
   xmlns:dc="http://purl.org/dc/elements/1.1/">
  <sodipodi:namedview
     id="namedview398"
     pagecolor="#ffffff"
     bordercolor="#666666"
     borderopacity="1.0"
     inkscape:pageshadow="2"
     inkscape:pageopacity="0.0"
     inkscape:pagecheckerboard="0"
     inkscape:document-units="pt"
     showgrid="false"
     inkscape:zoom="0.93619792"
     inkscape:cx="884.42837"
     inkscape:cy="271.84423"
     inkscape:window-width="1920"
     inkscape:window-height="1017"
     inkscape:window-x="1912"
     inkscape:window-y="-8"
     inkscape:window-maximized="1"
     inkscape:current-layer="svg396" />
  <metadata
     id="metadata2">
    <rdf:RDF>
      <cc:Work>
        <dc:type
           rdf:resource="http://purl.org/dc/dcmitype/StillImage" />
        <dc:date>2023-11-11T16:46:23.749923</dc:date>
        <dc:format>image/svg+xml</dc:format>
        <dc:creator>
          <cc:Agent>
            <dc:title>Matplotlib v3.7.2, https://matplotlib.org/</dc:title>
          </cc:Agent>
        </dc:creator>
      </cc:Work>
    </rdf:RDF>
  </metadata>
  <defs
     id="defs6">
    <style
       type="text/css"
       id="style4">*{stroke-linejoin: round; stroke-linecap: butt}</style>
  </defs>
  <g
     id="patch_2">
    <path
       d="M 108,512.64 H 777.6 V 69.12 H 108 Z"
       style="fill:#ffffff"
       id="path11" />
  </g>
  <g
     id="matplotlib.axis_1">
    <g
       id="xtick_1">
      <g
         id="line2d_1">
        <path
           d="M 158.45254,512.64 V 69.12"
           clip-path="url(#p85d2b3352a)"
           style="fill:none;stroke:#cccccc;stroke-width:0.8;stroke-linecap:round"
           id="path14" />
      </g>
      <g
         id="text_1">
        <!-- 50% -->
        <g
           style="fill:#262626"
           transform="matrix(0.18,0,0,-0.18,141.95582,532.13875)"
           id="g28">
          <defs
             id="defs20">
            <path
               id="TimesNewRomanPSMT-35"
               d="M 2778,4238 2534,3706 H 1259 L 981,3138 q 828,-122 1313,-616 415,-425 415,-1000 0,-334 -136,-619 Q 2438,619 2231,419 2025,219 1772,97 1413,-75 1034,-75 653,-75 479,54 306,184 306,341 q 0,87 72,154 72,68 181,68 82,0 143,-25 61,-25 207,-129 235,-162 475,-162 366,0 642,276 277,277 277,674 0,384 -247,717 -247,333 -681,514 -341,141 -928,163 l 812,1647 z"
               transform="scale(0.015625)" />
            <path
               id="TimesNewRomanPSMT-30"
               d="m 231,2094 q 0,725 219,1248 219,524 581,780 282,203 582,203 487,0 875,-497 484,-615 484,-1669 0,-737 -213,-1253 Q 2547,391 2217,158 1888,-75 1581,-75 975,-75 572,641 231,1244 231,2094 Z m 613,-78 q 0,-875 215,-1428 179,-466 532,-466 168,0 349,151 182,152 276,508 143,538 143,1516 0,725 -150,1209 -112,360 -290,510 -128,103 -310,103 -212,0 -378,-191 -225,-259 -306,-816 -81,-556 -81,-1096 z"
               transform="scale(0.015625)" />
            <path
               id="TimesNewRomanPSMT-25"
               d="M 4350,4334 1263,-175 H 984 l 3088,4509 z m -3212,0 q 421,0 654,-350 233,-350 233,-803 0,-543 -263,-840 -262,-297 -631,-297 -247,0 -453,136 -206,136 -330,404 -123,269 -123,597 0,328 125,605 125,277 342,412 217,136 446,136 z m -10,-175 q -159,0 -283,-188 -123,-187 -123,-787 0,-434 69,-662 53,-172 165,-266 66,-56 163,-56 150,0 256,163 156,240 156,803 0,593 -153,834 -100,159 -250,159 z M 4206,2103 q 222,0 442,-141 221,-140 341,-409 120,-269 120,-590 0,-554 -266,-846 -265,-292 -627,-292 -228,0 -443,141 -214,140 -337,401 -123,261 -123,596 0,328 123,599 123,272 337,406 215,135 433,135 z m 3,-165 q -150,0 -259,-169 -141,-219 -141,-828 0,-560 144,-782 106,-159 256,-159 144,0 257,172 150,228 150,784 0,588 -150,822 -103,160 -257,160 z"
               transform="scale(0.015625)" />
          </defs>
          <use
             xlink:href="#TimesNewRomanPSMT-35"
             id="use22"
             x="0"
             y="0"
             width="100%"
             height="100%" />
          <use
             xlink:href="#TimesNewRomanPSMT-30"
             x="50"
             id="use24"
             y="0"
             width="100%"
             height="100%" />
          <use
             xlink:href="#TimesNewRomanPSMT-25"
             x="100"
             id="use26"
             y="0"
             width="100%"
             height="100%" />
        </g>
      </g>
    </g>
    <g
       id="xtick_2">
      <g
         id="line2d_2">
        <path
           d="M 276.19476,512.64 V 69.12"
           clip-path="url(#p85d2b3352a)"
           style="fill:none;stroke:#cccccc;stroke-width:0.8;stroke-linecap:round"
           id="path32" />
      </g>
      <g
         id="text_2">
        <!-- 60% -->
        <g
           style="fill:#262626"
           transform="matrix(0.18,0,0,-0.18,259.69804,532.13875)"
           id="g44">
          <defs
             id="defs36">
            <path
               id="TimesNewRomanPSMT-36"
               d="m 2869,4325 v -116 q -413,-40 -674,-164 -261,-123 -516,-376 -254,-253 -421,-564 -167,-311 -280,-739 450,309 903,309 435,0 753,-350 319,-350 319,-900 0,-531 -322,-969 -387,-531 -1025,-531 -434,0 -737,288 -594,559 -594,1450 0,568 228,1080 228,513 651,910 424,397 811,534 388,138 723,138 z M 925,2138 q -56,-422 -56,-682 0,-300 111,-652 111,-351 329,-557 160,-147 388,-147 272,0 486,256 214,257 214,732 0,534 -213,924 -212,391 -603,391 -118,0 -254,-50 -136,-50 -402,-215 z"
               transform="scale(0.015625)" />
          </defs>
          <use
             xlink:href="#TimesNewRomanPSMT-36"
             id="use38"
             x="0"
             y="0"
             width="100%"
             height="100%" />
          <use
             xlink:href="#TimesNewRomanPSMT-30"
             x="50"
             id="use40"
             y="0"
             width="100%"
             height="100%" />
          <use
             xlink:href="#TimesNewRomanPSMT-25"
             x="100"
             id="use42"
             y="0"
             width="100%"
             height="100%" />
        </g>
      </g>
    </g>
    <g
       id="xtick_3">
      <g
         id="line2d_3">
        <path
           d="M 393.93698,512.64 V 69.12"
           clip-path="url(#p85d2b3352a)"
           style="fill:none;stroke:#cccccc;stroke-width:0.8;stroke-linecap:round"
           id="path48" />
      </g>
      <g
         id="text_3">
        <!-- 70% -->
        <g
           style="fill:#262626"
           transform="matrix(0.18,0,0,-0.18,377.44026,532.13875)"
           id="g60">
          <defs
             id="defs52">
            <path
               id="TimesNewRomanPSMT-37"
               d="M 644,4238 H 2916 V 4119 L 1503,-88 H 1153 L 2419,3728 H 1253 q -353,0 -503,-84 -262,-144 -422,-444 l -90,34 z"
               transform="scale(0.015625)" />
          </defs>
          <use
             xlink:href="#TimesNewRomanPSMT-37"
             id="use54"
             x="0"
             y="0"
             width="100%"
             height="100%" />
          <use
             xlink:href="#TimesNewRomanPSMT-30"
             x="50"
             id="use56"
             y="0"
             width="100%"
             height="100%" />
          <use
             xlink:href="#TimesNewRomanPSMT-25"
             x="100"
             id="use58"
             y="0"
             width="100%"
             height="100%" />
        </g>
      </g>
    </g>
    <g
       id="xtick_4">
      <g
         id="line2d_4">
        <path
           d="M 511.6792,512.64 V 69.12"
           clip-path="url(#p85d2b3352a)"
           style="fill:none;stroke:#cccccc;stroke-width:0.8;stroke-linecap:round"
           id="path64" />
      </g>
      <g
         id="text_4">
        <!-- 80% -->
        <g
           style="fill:#262626"
           transform="matrix(0.18,0,0,-0.18,495.18248,532.13875)"
           id="g76">
          <defs
             id="defs68">
            <path
               id="TimesNewRomanPSMT-38"
               d="m 1228,2134 q -503,413 -649,663 -145,250 -145,519 0,412 319,710 319,299 847,299 513,0 825,-278 313,-278 313,-634 0,-238 -169,-485 -169,-247 -703,-581 550,-425 728,-669 237,-319 237,-672 0,-447 -341,-764 -340,-317 -893,-317 -603,0 -941,378 -268,303 -268,663 0,281 189,557 189,277 651,611 z m 491,335 q 375,337 475,532 100,196 100,443 0,328 -185,514 -184,186 -503,186 -318,0 -518,-185 -200,-184 -200,-431 0,-162 82,-325 83,-162 236,-309 z M 1375,2016 Q 1116,1797 991,1539 866,1281 866,981 866,578 1086,336 1306,94 1647,94 q 337,0 540,190 204,191 204,463 0,225 -119,403 -222,331 -897,866 z"
               transform="scale(0.015625)" />
          </defs>
          <use
             xlink:href="#TimesNewRomanPSMT-38"
             id="use70"
             x="0"
             y="0"
             width="100%"
             height="100%" />
          <use
             xlink:href="#TimesNewRomanPSMT-30"
             x="50"
             id="use72"
             y="0"
             width="100%"
             height="100%" />
          <use
             xlink:href="#TimesNewRomanPSMT-25"
             x="100"
             id="use74"
             y="0"
             width="100%"
             height="100%" />
        </g>
      </g>
    </g>
    <g
       id="xtick_5">
      <g
         id="line2d_5">
        <path
           d="M 629.42142,512.64 V 69.12"
           clip-path="url(#p85d2b3352a)"
           style="fill:none;stroke:#cccccc;stroke-width:0.8;stroke-linecap:round"
           id="path80" />
      </g>
      <g
         id="text_5">
        <!-- 90% -->
        <g
           style="fill:#262626"
           transform="matrix(0.18,0,0,-0.18,612.9247,532.13875)"
           id="g92">
          <defs
             id="defs84">
            <path
               id="TimesNewRomanPSMT-39"
               d="M 338,-88 V 28 q 406,6 756,189 350,183 676,639 327,457 455,1003 -491,-315 -887,-315 -447,0 -766,345 -319,345 -319,917 0,557 319,991 384,528 1003,528 522,0 894,-431 456,-535 456,-1319 0,-706 -347,-1317 Q 2231,647 1613,244 1109,-88 516,-88 Z m 1937,2179 q 56,406 56,650 0,303 -103,654 -103,352 -292,539 -189,188 -430,188 -278,0 -488,-250 -209,-250 -209,-744 0,-659 279,-1031 203,-269 500,-269 143,0 340,69 197,69 347,194 z"
               transform="scale(0.015625)" />
          </defs>
          <use
             xlink:href="#TimesNewRomanPSMT-39"
             id="use86"
             x="0"
             y="0"
             width="100%"
             height="100%" />
          <use
             xlink:href="#TimesNewRomanPSMT-30"
             x="50"
             id="use88"
             y="0"
             width="100%"
             height="100%" />
          <use
             xlink:href="#TimesNewRomanPSMT-25"
             x="100"
             id="use90"
             y="0"
             width="100%"
             height="100%" />
        </g>
      </g>
    </g>
    <g
       id="xtick_6">
      <g
         id="line2d_6">
        <path
           d="M 747.16364,512.64 V 69.12"
           clip-path="url(#p85d2b3352a)"
           style="fill:none;stroke:#cccccc;stroke-width:0.8;stroke-linecap:round"
           id="path96" />
      </g>
      <g
         id="text_6">
        <!-- 100% -->
        <g
           style="fill:#262626"
           transform="matrix(0.18,0,0,-0.18,726.16692,532.13875)"
           id="g110">
          <defs
             id="defs100">
            <path
               id="TimesNewRomanPSMT-31"
               d="m 750,3822 1031,503 h 103 V 747 q 0,-356 30,-444 30,-87 123,-134 94,-47 382,-53 V 0 H 825 v 116 q 300,6 387,51 88,46 122,122 35,77 35,458 v 2287 q 0,463 -31,594 -22,100 -80,147 -58,47 -139,47 -116,0 -322,-97 z"
               transform="scale(0.015625)" />
          </defs>
          <use
             xlink:href="#TimesNewRomanPSMT-31"
             id="use102"
             x="0"
             y="0"
             width="100%"
             height="100%" />
          <use
             xlink:href="#TimesNewRomanPSMT-30"
             x="50"
             id="use104"
             y="0"
             width="100%"
             height="100%" />
          <use
             xlink:href="#TimesNewRomanPSMT-30"
             x="100"
             id="use106"
             y="0"
             width="100%"
             height="100%" />
          <use
             xlink:href="#TimesNewRomanPSMT-25"
             x="150"
             id="use108"
             y="0"
             width="100%"
             height="100%" />
        </g>
      </g>
    </g>
    <g
       id="text_7">
      <!-- $R_\mathrm{f}$ -->
      <g
         style="fill:#262626"
         transform="matrix(0.27,0,0,-0.27,430.785,558.73719)"
         id="g122">
        <defs
           id="defs116">
          <path
             id="STIXGeneral-Italic-52"
             d="m 845,4179 h 1613 q 620,0 962,-243 343,-243 343,-659 0,-499 -422,-819 -250,-192 -839,-327 L 3072,627 Q 3181,333 3299,217 3418,102 3629,102 V 0 h -941 l -787,2074 -423,32 -352,-1300 q -83,-294 -83,-403 0,-147 83,-211 84,-64 346,-90 V 0 H -83 v 102 q 256,32 361,141 106,109 183,403 l 761,2759 q 77,294 77,403 0,115 -89,179 -77,51 -365,90 z M 1958,3795 1555,2342 q 199,-32 327,-32 569,0 889,256 320,256 320,704 0,333 -199,525 -198,192 -569,192 -313,0 -365,-192 z"
             transform="scale(0.015625)" />
          <path
             id="STIXGeneral-Regular-66"
             d="m 134,2880 h 525 q 7,384 51,598 45,215 173,432 269,461 903,461 288,0 476,-112 189,-112 189,-285 0,-108 -77,-185 -76,-77 -192,-77 -153,0 -288,230 -153,250 -339,250 -358,0 -358,-570 v -742 h 781 V 2675 H 1197 V 666 q 0,-359 102,-458 103,-99 493,-112 V 0 H 128 v 96 q 346,19 438,118 93,100 93,452 V 2675 H 134 Z"
             transform="scale(0.015625)" />
        </defs>
        <use
           xlink:href="#STIXGeneral-Italic-52"
           transform="translate(0,0.703125)"
           id="use118"
           x="0"
           y="0"
           width="100%"
           height="100%" />
        <use
           xlink:href="#STIXGeneral-Regular-66"
           transform="matrix(0.7,0,0,0.7,61.099991,-12.525)"
           id="use120"
           x="0"
           y="0"
           width="100%"
           height="100%" />
      </g>
    </g>
  </g>
  <g
     id="matplotlib.axis_2">
    <g
       id="ytick_1">
      <g
         id="line2d_7">
        <path
           d="M 108,512.64 H 777.6"
           clip-path="url(#p85d2b3352a)"
           style="fill:none;stroke:#cccccc;stroke-width:0.8;stroke-linecap:round"
           id="path126" />
      </g>
    </g>
    <g
       id="ytick_2">
      <g
         id="line2d_8">
        <path
           d="M 108,438.72 H 777.6"
           clip-path="url(#p85d2b3352a)"
           style="fill:none;stroke:#cccccc;stroke-width:0.8;stroke-linecap:round"
           id="path130" />
      </g>
      <g
         id="text_8">
        <!-- 20% -->
        <g
           style="fill:#262626"
           transform="matrix(0.18,0,0,-0.18,68.006563,444.96938)"
           id="g142">
          <defs
             id="defs134">
            <path
               id="TimesNewRomanPSMT-32"
               d="M 2934,816 2638,0 H 138 v 116 q 1103,1006 1553,1643 450,638 450,1166 0,403 -247,662 -247,260 -591,260 -312,0 -561,-183 Q 494,3481 375,3128 H 259 q 79,578 402,887 323,310 808,310 515,0 860,-331 346,-331 346,-781 0,-322 -150,-644 Q 2294,2063 1775,1497 997,647 803,472 h 1106 q 338,0 474,25 136,25 245,101 110,77 191,218 z"
               transform="scale(0.015625)" />
          </defs>
          <use
             xlink:href="#TimesNewRomanPSMT-32"
             id="use136"
             x="0"
             y="0"
             width="100%"
             height="100%" />
          <use
             xlink:href="#TimesNewRomanPSMT-30"
             x="50"
             id="use138"
             y="0"
             width="100%"
             height="100%" />
          <use
             xlink:href="#TimesNewRomanPSMT-25"
             x="100"
             id="use140"
             y="0"
             width="100%"
             height="100%" />
        </g>
      </g>
    </g>
    <g
       id="ytick_3">
      <g
         id="line2d_9">
        <path
           d="M 108,364.8 H 777.6"
           clip-path="url(#p85d2b3352a)"
           style="fill:none;stroke:#cccccc;stroke-width:0.8;stroke-linecap:round"
           id="path146" />
      </g>
      <g
         id="text_9">
        <!-- 40% -->
        <g
           style="fill:#262626"
           transform="matrix(0.18,0,0,-0.18,68.006563,371.04937)"
           id="g158">
          <defs
             id="defs150">
            <path
               id="TimesNewRomanPSMT-34"
               d="M 2978,1563 V 1119 H 2409 V 0 H 1894 V 1119 H 100 v 400 l 1966,2806 h 343 V 1563 Z m -1084,0 V 3666 L 406,1563 Z"
               transform="scale(0.015625)" />
          </defs>
          <use
             xlink:href="#TimesNewRomanPSMT-34"
             id="use152"
             x="0"
             y="0"
             width="100%"
             height="100%" />
          <use
             xlink:href="#TimesNewRomanPSMT-30"
             x="50"
             id="use154"
             y="0"
             width="100%"
             height="100%" />
          <use
             xlink:href="#TimesNewRomanPSMT-25"
             x="100"
             id="use156"
             y="0"
             width="100%"
             height="100%" />
        </g>
      </g>
    </g>
    <g
       id="ytick_4">
      <g
         id="line2d_10">
        <path
           d="M 108,290.88 H 777.6"
           clip-path="url(#p85d2b3352a)"
           style="fill:none;stroke:#cccccc;stroke-width:0.8;stroke-linecap:round"
           id="path162" />
      </g>
      <g
         id="text_10">
        <!-- 60% -->
        <g
           style="fill:#262626"
           transform="matrix(0.18,0,0,-0.18,68.006563,297.12937)"
           id="g171">
          <use
             xlink:href="#TimesNewRomanPSMT-36"
             id="use165"
             x="0"
             y="0"
             width="100%"
             height="100%" />
          <use
             xlink:href="#TimesNewRomanPSMT-30"
             x="50"
             id="use167"
             y="0"
             width="100%"
             height="100%" />
          <use
             xlink:href="#TimesNewRomanPSMT-25"
             x="100"
             id="use169"
             y="0"
             width="100%"
             height="100%" />
        </g>
      </g>
    </g>
    <g
       id="ytick_5">
      <g
         id="line2d_11">
        <path
           d="M 108,216.96 H 777.6"
           clip-path="url(#p85d2b3352a)"
           style="fill:none;stroke:#cccccc;stroke-width:0.8;stroke-linecap:round"
           id="path175" />
      </g>
      <g
         id="text_11">
        <!-- 80% -->
        <g
           style="fill:#262626"
           transform="matrix(0.18,0,0,-0.18,68.006563,223.20937)"
           id="g184">
          <use
             xlink:href="#TimesNewRomanPSMT-38"
             id="use178"
             x="0"
             y="0"
             width="100%"
             height="100%" />
          <use
             xlink:href="#TimesNewRomanPSMT-30"
             x="50"
             id="use180"
             y="0"
             width="100%"
             height="100%" />
          <use
             xlink:href="#TimesNewRomanPSMT-25"
             x="100"
             id="use182"
             y="0"
             width="100%"
             height="100%" />
        </g>
      </g>
    </g>
    <g
       id="ytick_6">
      <g
         id="line2d_12">
        <path
           d="M 108,143.04 H 777.6"
           clip-path="url(#p85d2b3352a)"
           style="fill:none;stroke:#cccccc;stroke-width:0.8;stroke-linecap:round"
           id="path188" />
      </g>
      <g
         id="text_12">
        <!-- 100% -->
        <g
           style="fill:#262626"
           transform="matrix(0.18,0,0,-0.18,59.006563,149.28937)"
           id="g199">
          <use
             xlink:href="#TimesNewRomanPSMT-31"
             id="use191"
             x="0"
             y="0"
             width="100%"
             height="100%" />
          <use
             xlink:href="#TimesNewRomanPSMT-30"
             x="50"
             id="use193"
             y="0"
             width="100%"
             height="100%" />
          <use
             xlink:href="#TimesNewRomanPSMT-30"
             x="100"
             id="use195"
             y="0"
             width="100%"
             height="100%" />
          <use
             xlink:href="#TimesNewRomanPSMT-25"
             x="150"
             id="use197"
             y="0"
             width="100%"
             height="100%" />
        </g>
      </g>
    </g>
    <g
       id="ytick_7">
      <g
         id="line2d_13">
        <path
           d="M 108,69.12 H 777.6"
           clip-path="url(#p85d2b3352a)"
           style="fill:none;stroke:#cccccc;stroke-width:0.8;stroke-linecap:round"
           id="path203" />
      </g>
      <g
         id="text_13">
        <!-- 120% -->
        <g
           style="fill:#262626"
           transform="matrix(0.18,0,0,-0.18,59.006563,75.369375)"
           id="g214">
          <use
             xlink:href="#TimesNewRomanPSMT-31"
             id="use206"
             x="0"
             y="0"
             width="100%"
             height="100%" />
          <use
             xlink:href="#TimesNewRomanPSMT-32"
             x="50"
             id="use208"
             y="0"
             width="100%"
             height="100%" />
          <use
             xlink:href="#TimesNewRomanPSMT-30"
             x="100"
             id="use210"
             y="0"
             width="100%"
             height="100%" />
          <use
             xlink:href="#TimesNewRomanPSMT-25"
             x="150"
             id="use212"
             y="0"
             width="100%"
             height="100%" />
        </g>
      </g>
    </g>
    <g
       id="text_14">
      <!-- $R_\mathrm{r}$ -->
      <g
         style="fill:#262626"
         transform="matrix(0,-0.27,-0.27,0,49.231094,302.895)"
         id="g225">
        <defs
           id="defs219">
          <path
             id="STIXGeneral-Regular-72"
             d="m 1024,2931 v -589 q 243,346 406,474 164,128 362,128 166,0 259,-90 93,-89 93,-249 0,-135 -67,-212 -67,-76 -183,-76 -121,0 -256,128 -102,96 -166,96 -134,0 -291,-186 -157,-185 -157,-339 V 576 q 0,-275 109,-371 109,-96 435,-109 V 0 H 32 v 96 q 307,58 380,128 74,70 74,314 v 1600 q 0,211 -48,297 -48,87 -169,87 -103,0 -224,-26 v 102 q 403,128 947,346 z"
             transform="scale(0.015625)" />
        </defs>
        <use
           xlink:href="#STIXGeneral-Italic-52"
           transform="translate(0,0.703125)"
           id="use221"
           x="0"
           y="0"
           width="100%"
           height="100%" />
        <use
           xlink:href="#STIXGeneral-Regular-72"
           transform="matrix(0.7,0,0,0.7,61.099991,-12.525)"
           id="use223"
           x="0"
           y="0"
           width="100%"
           height="100%" />
      </g>
    </g>
  </g>
  <g
     id="PolyCollection_1">
    <defs
       id="defs260">
      <path
         id="me76c35fcf7"
         d="m 138.43636,-423.72488 v 197.72863 l 6.14876,-2.60894 6.14876,-2.26414 6.14876,-2.26414 6.14876,-2.35098 6.14876,-2.37109 6.14877,-2.37299 6.14876,-2.373 6.14876,-2.37299 6.14876,-2.373 6.14876,-2.39604 6.14876,-2.4034 6.14876,-2.40341 6.14876,-2.37343 6.14876,-2.29684 6.14876,-2.35862 6.14876,-2.37026 6.14876,-2.37027 6.14876,-2.37389 6.14876,-2.37529 6.14876,-2.46618 6.14876,-2.4928 6.14876,-2.4962 6.14876,-2.47097 6.14876,-2.40729 6.14876,-2.4992 6.14876,-2.30959 6.14876,-2.43617 6.14876,-2.68087 6.14876,-2.54944 6.14876,-2.38864 6.14876,-2.38863 6.14876,-2.03584 6.14877,-2.34147 6.14875,-2.39416 6.14876,-2.40231 6.14877,-2.40341 6.14876,-2.40341 6.14876,-2.4034 6.14876,-2.2794 6.14876,-2.1169 6.14876,-2.11689 6.14876,-2.1169 6.14876,-2.32777 6.14876,-2.24483 6.14876,-2.30992 6.14876,-2.29381 6.14876,-2.12897 6.14876,-2.33044 6.14876,-2.13673 6.14876,-2.45335 6.14876,-2.46105 6.14876,-2.14312 6.14876,-2.33011 6.14876,-2.11773 6.14876,-2.12473 6.14876,-2.12639 6.14876,-2.28342 6.14876,-2.35266 6.14876,-2.51068 6.14876,-2.38262 6.14876,-2.15448 6.14876,-2.06733 6.14876,-2.18748 6.14877,-2.18749 6.14875,-2.18748 6.14876,-1.95018 6.14877,-1.64119 6.14876,-2.03274 6.14876,-2.18966 6.14876,-2.12593 6.14876,-2.50248 6.14876,-2.36614 6.14876,-2.29632 6.14876,-2.1794 6.14876,-1.96378 6.14876,-1.79099 6.14876,-1.81748 6.14876,-1.79067 6.14876,-1.46456 6.14876,-1.63572 6.14876,-1.02822 6.14876,-1.36213 6.14876,-1.20616 6.14876,-1.32619 6.14876,-1.08686 6.14876,-0.94221 6.14876,-0.82954 6.14876,-0.51916 6.14876,-0.32794 6.14876,-0.22818 6.14876,-0.46157 6.14876,-0.30553 6.14876,-0.25047 6.14877,-0.28323 6.14875,-0.16959 6.14876,0.0189 6.14877,-0.36365 6.14876,-0.0564 6.14876,-0.0258 v -61.04074 0 l -6.14876,2.13109 -6.14876,2.44021 -6.14877,2.44296 -6.14876,2.05981 -6.14875,2.01186 -6.14877,2.13061 -6.14876,1.73533 -6.14876,2.06818 -6.14876,2.47146 -6.14876,2.47941 -6.14876,2.46657 -6.14876,2.47488 -6.14876,2.4749 -6.14876,2.31042 -6.14876,2.25147 -6.14876,2.28699 -6.14876,1.61112 -6.14876,2.15491 -6.14876,1.86489 -6.14876,1.79799 -6.14876,1.71294 -6.14876,1.79609 -6.14876,1.98936 -6.14876,1.87475 -6.14876,1.61912 -6.14876,1.02871 -6.14876,0.81947 -6.14876,0.64996 -6.14876,0.48355 -6.14876,0.12099 -6.14876,0.51911 -6.14876,0.23012 -6.14877,0.10097 -6.14876,-0.003 -6.14875,-0.0103 -6.14877,0.1898 -6.14876,-0.0539 -6.14876,0.23384 -6.14876,-0.0759 -6.14876,-0.0806 -6.14876,-0.077 -6.14876,0.0414 -6.14876,-0.0235 -6.14876,-0.0116 -6.14876,0.0492 -6.14876,-0.033 -6.14876,-0.033 -6.14876,-0.033 -6.14876,0.047 -6.14876,0.16656 -6.14876,0.16655 -6.14876,-0.0506 -6.14876,-0.13308 -6.14876,-0.0212 -6.14876,0.006 -6.14876,-0.0791 -6.14876,-0.0759 -6.14876,-0.0747 -6.14876,-0.0747 -6.14876,0.002 -6.14876,0.0329 -6.14876,0.0329 -6.14876,0.0344 -6.14877,-0.0618 -6.14876,-0.10226 -6.14875,-0.10226 -6.14877,-0.10226 -6.14876,-0.0355 -6.14876,-0.0112 -6.14876,-0.009 -6.14876,10e-4 -6.14876,-0.0214 -6.14876,-0.0118 -6.14876,-0.0118 -6.14876,-0.0118 -6.14876,-0.0118 -6.14876,-0.0119 -6.14876,-0.0111 -6.14876,-0.0103 -6.14876,-0.0103 -6.14876,-0.0103 -6.14876,-0.0103 -6.14876,-0.0103 -6.14876,-0.0681 -6.14876,-0.0983 -6.14876,-0.0984 -6.14876,-0.0984 -6.14876,-0.0984 -6.14876,-0.0984 -6.14876,-0.0479 -6.14876,-0.02 -6.14876,-0.0186 -6.14876,-0.0186 -6.14877,-0.0186 -6.14876,-0.0186 -6.14876,-0.0186 -6.14876,-0.0186 -6.14876,-0.0186 z"
         style="stroke:#ffffff;stroke-opacity:0.15" />
    </defs>
    <g
       clip-path="url(#p85d2b3352a)"
       id="g264">
      <use
         xlink:href="#me76c35fcf7"
         x="0"
         y="576"
         style="fill:#1f77b4;fill-opacity:0.15;stroke:#ffffff;stroke-opacity:0.15"
         id="use262"
         width="100%"
         height="100%" />
    </g>
  </g>
  <g
     id="PolyCollection_2">
    <defs
       id="defs298">
      <path
         id="mfff4d6e648"
         d="m 158.45254,-434.68596 v 97.10833 l 5.94658,-0.96779 5.94657,-1.04764 5.94658,-1.0474 5.94658,-1.0024 5.94657,-1.00239 5.94658,-1.00362 5.94658,-1.00407 5.94657,-0.95893 5.94658,-0.87799 5.94658,-0.83828 5.94657,-1.01509 5.94658,-1.02044 5.94658,-0.93795 5.94657,-0.93795 5.94658,-0.94583 5.94658,-0.99587 5.94658,-0.99587 5.94657,-0.99587 5.94658,-0.99624 5.94657,-1.00135 5.94658,-1.03633 5.94658,-0.95758 5.94658,-0.9936 5.94657,-0.9936 5.94658,-0.9936 5.94658,-0.99464 5.94657,-0.99587 5.94658,-0.90642 5.94658,-0.89759 5.94657,-0.89758 5.94658,-0.89766 5.94658,-0.89878 5.94657,-0.89878 5.94658,-1.02418 5.94658,-1.05457 5.94657,-1.05491 5.94658,-1.05492 5.94658,-0.93954 5.94657,-0.85619 5.94658,-0.94529 5.94658,-1.0045 5.94657,-0.96169 5.94658,-0.89732 5.94658,-0.89732 5.94657,-0.89555 5.94658,-0.87898 5.94658,-0.88289 5.94657,-0.88288 5.94658,-0.96133 5.94658,-0.86709 5.94657,-0.91097 5.94658,-0.91697 5.94658,-0.89762 5.94657,-0.90016 5.94658,-1.01812 5.94658,-0.83429 5.94657,-0.96898 5.94658,-0.93528 5.94658,-1.01171 5.94657,-0.9713 5.94658,-0.93012 5.94658,-0.9169 5.94657,-0.91691 5.94658,-0.85985 5.94658,-0.78957 5.94657,-0.81553 5.94658,-1.0101 5.94658,-0.73749 5.94658,-0.80951 5.94657,-0.93548 5.94658,-0.93548 5.94657,-0.9136 5.94658,-0.76214 5.94658,-0.6701 5.94657,-0.98345 5.94658,-0.49288 5.94658,-0.92462 5.94657,-0.94384 5.94658,-0.70957 5.94658,-0.72153 5.94658,-0.5668 5.94657,-0.63384 5.94658,-0.64495 5.94658,-0.70985 5.94657,-0.59766 5.94658,-0.40286 5.94658,-0.21273 5.94657,-0.32142 5.94658,-0.43651 5.94658,-0.097 5.94657,-0.41658 5.94658,-0.45074 5.94658,-0.14171 5.94657,-0.15957 5.94658,-0.0732 5.94658,0.11761 5.94657,-0.15979 5.94658,-0.21041 5.94658,-0.21652 v -29.39362 0 l -5.94658,0.93975 -5.94658,1.12364 -5.94657,0.81386 -5.94658,0.86299 -5.94658,0.97136 -5.94657,0.89994 -5.94658,0.90324 -5.94658,0.76602 -5.94657,0.64435 -5.94658,0.65921 -5.94658,0.67471 -5.94657,0.7213 -5.94658,0.87839 -5.94658,0.70256 -5.94657,0.98514 -5.94658,0.78353 -5.94658,0.68805 -5.94657,0.48555 -5.94658,0.51265 -5.94658,0.38566 -5.94658,0.629 -5.94657,0.40206 -5.94658,0.43296 -5.94658,0.15827 -5.94657,0.25 -5.94658,0.43535 -5.94658,0.3897 -5.94657,0.212 -5.94658,0.10733 -5.94657,0.15099 -5.94658,0.0928 -5.94658,-0.0214 -5.94658,-0.0753 -5.94657,0.0283 -5.94658,0.0589 -5.94658,-0.0508 -5.94657,-0.046 -5.94658,-0.003 -5.94658,-0.0176 -5.94657,-0.1582 -5.94658,-0.0654 -5.94658,-0.10388 -5.94657,-0.15379 -5.94658,-0.16002 -5.94658,-0.15835 -5.94657,-0.11499 -5.94658,-0.0592 -5.94658,-0.0124 -5.94657,-0.20185 -5.94658,-0.0703 -5.94658,-0.002 -5.94657,-0.002 -5.94658,5.5e-4 -5.94658,-0.13873 -5.94657,0.003 -5.94658,-0.065 -5.94658,-0.23992 -5.94657,-0.0431 -5.94658,-0.0154 -5.94658,-0.0138 -5.94657,-0.0138 -5.94658,-0.0363 -5.94658,-0.095 -5.94657,-0.095 -5.94658,-0.095 -5.94658,-0.095 -5.94657,-0.095 -5.94658,-0.095 -5.94658,-0.095 -5.94657,-0.095 -5.94658,-0.095 -5.94658,-0.11601 -5.94657,-0.16126 -5.94658,-0.16125 -5.94658,-0.16125 -5.94657,-0.16126 -5.94658,-0.16125 -5.94658,-0.16125 -5.94658,-0.16125 -5.94657,-0.0962 -5.94658,-0.0913 -5.94657,-0.0932 -5.94658,-0.0932 -5.94658,-0.0932 -5.94658,-0.0932 -5.94657,-0.0932 -5.94658,-0.0916 -5.94658,-0.0914 -5.94657,-0.0914 -5.94658,-0.0914 -5.94658,-0.0914 -5.94657,-0.0914 -5.94658,-0.0914 -5.94658,-0.0899 -5.94657,-0.0899 -5.94658,-0.0899 -5.94658,-0.0899 -5.94657,-0.0899 z"
         style="stroke:#ffffff;stroke-opacity:0.15" />
    </defs>
    <g
       clip-path="url(#p85d2b3352a)"
       id="g302">
      <use
         xlink:href="#mfff4d6e648"
         x="0"
         y="576"
         style="fill:#ff7f0e;fill-opacity:0.15;stroke:#ffffff;stroke-opacity:0.15"
         id="use300"
         width="100%"
         height="100%" />
    </g>
  </g>
  <g
     id="line2d_14">
    <path
       d="m 138.43636,251.63543 6.14876,-1.1904 6.14876,-1.1904 6.14876,-1.19039 6.14876,-1.1904 6.14876,-1.19039 6.14877,-1.1904 6.14876,-1.1904 6.14876,-1.19039 6.14876,-1.1904 6.14876,-1.1904 6.14876,-1.19039 6.14876,-1.1904 6.14876,-1.19039 6.14876,-1.1904 6.14876,-1.1904 6.14876,-1.19039 6.14876,-1.1904 6.14876,-1.1904 6.14876,-1.19039 6.14876,-1.1904 6.14876,-1.19039 6.14876,-1.1904 6.14876,-1.1904 6.14876,-1.19039 6.14876,-1.1904 6.14876,-1.1904 6.14876,-1.19039 6.14876,-1.1904 6.14876,-1.19039 6.14876,-1.1904 6.14876,-1.1904 6.14876,-1.19039 6.14877,-1.1904 6.14875,-1.1904 6.14876,-1.19039 6.14877,-1.1904 6.14876,-1.19039 6.14876,-1.1904 6.14876,-1.1904 6.14876,-1.19039 6.14876,-1.1904 6.14876,-1.1904 6.14876,-1.19039 6.14876,-1.1904 6.14876,-1.19039 6.14876,-1.1904 6.14876,-1.1904 6.14876,-1.19039 6.14876,-1.1904 6.14876,-1.1904 6.14876,-1.19039 6.14876,-1.1904 6.14876,-1.1904 6.14876,-1.19039 6.14876,-1.1904 6.14876,-1.19039 6.14876,-1.1904 6.14876,-1.1904 6.14876,-1.19039 6.14876,-1.1904 6.14876,-1.1904 6.14876,-1.19039 6.14876,-1.1904 6.14877,-1.19039 6.14875,-1.1904 6.14876,-1.1904 6.14877,-1.19039 6.14876,-1.1904 6.14876,-1.1904 6.14876,-1.19039 6.14876,-1.1904 6.14876,-1.19039 6.14876,-1.1904 6.14876,-1.1904 6.14876,-1.19039 6.14876,-1.1904 6.14876,-1.1904 6.14876,-1.19039 6.14876,-1.1904 6.14876,-1.19039 6.14876,-1.1904 6.14876,-1.1904 6.14876,-1.19039 6.14876,-1.1904 6.14876,-1.1904 6.14876,-1.19039 6.14876,-1.1904 6.14876,-1.19039 6.14876,-1.1904 6.14876,-1.1904 6.14876,-1.19039 6.14876,-1.1904 6.14876,-1.1904 6.14877,-1.19039 6.14875,-1.1904 6.14876,-1.19039 6.14877,-1.1904 6.14876,-1.1904 6.14876,-1.19039"
       clip-path="url(#p85d2b3352a)"
       style="fill:none;stroke:#1f77b4;stroke-width:2.25;stroke-linecap:round"
       id="path305" />
  </g>
  <g
     id="line2d_15">
    <path
       d="m 158.45254,197.31092 5.94658,-0.54038 5.94657,-0.54039 5.94658,-0.54038 5.94658,-0.54038 5.94657,-0.54039 5.94658,-0.54038 5.94658,-0.54038 5.94657,-0.54039 5.94658,-0.54038 5.94658,-0.54038 5.94657,-0.54039 5.94658,-0.54038 5.94658,-0.54039 5.94657,-0.54038 5.94658,-0.54038 5.94658,-0.54039 5.94658,-0.54038 5.94657,-0.54038 5.94658,-0.54039 5.94657,-0.54038 5.94658,-0.54038 5.94658,-0.54039 5.94658,-0.54038 5.94657,-0.54039 5.94658,-0.54038 5.94658,-0.54038 5.94657,-0.54039 5.94658,-0.54038 5.94658,-0.54038 5.94657,-0.54039 5.94658,-0.54038 5.94658,-0.54038 5.94657,-0.54039 5.94658,-0.54038 5.94658,-0.54039 5.94657,-0.54038 5.94658,-0.54038 5.94658,-0.54039 5.94657,-0.54038 5.94658,-0.54038 5.94658,-0.54039 5.94657,-0.54038 5.94658,-0.54038 5.94658,-0.54039 5.94657,-0.54038 5.94658,-0.54039 5.94658,-0.54038 5.94657,-0.54038 5.94658,-0.54039 5.94658,-0.54038 5.94657,-0.54038 5.94658,-0.54039 5.94658,-0.54038 5.94657,-0.54038 5.94658,-0.54039 5.94658,-0.54038 5.94657,-0.54039 5.94658,-0.54038 5.94658,-0.54038 5.94657,-0.54039 5.94658,-0.54038 5.94658,-0.54038 5.94657,-0.54039 5.94658,-0.54038 5.94658,-0.54039 5.94657,-0.54038 5.94658,-0.54038 5.94658,-0.54039 5.94658,-0.54038 5.94657,-0.54038 5.94658,-0.54039 5.94657,-0.54038 5.94658,-0.54038 5.94658,-0.54039 5.94657,-0.54038 5.94658,-0.54039 5.94658,-0.54038 5.94657,-0.54038 5.94658,-0.54039 5.94658,-0.54038 5.94658,-0.54038 5.94657,-0.54039 5.94658,-0.54038 5.94658,-0.54038 5.94657,-0.54039 5.94658,-0.54038 5.94658,-0.54038 5.94657,-0.54039 5.94658,-0.54038 5.94658,-0.54039 5.94657,-0.54038 5.94658,-0.54038 5.94658,-0.54039 5.94657,-0.54038 5.94658,-0.54038 5.94658,-0.54039 5.94657,-0.54038 5.94658,-0.54039 5.94658,-0.54038"
       clip-path="url(#p85d2b3352a)"
       style="fill:none;stroke:#ff7f0e;stroke-width:2.25;stroke-linecap:round"
       id="path308" />
  </g>
  <g
     id="patch_3">
    <path
       d="M 108,512.64 V 69.12"
       style="fill:none;stroke:#cccccc;stroke-width:2;stroke-linecap:square;stroke-linejoin:miter"
       id="path311" />
  </g>
  <g
     id="patch_4">
    <path
       d="M 777.6,512.64 V 69.12"
       style="fill:none;stroke:#cccccc;stroke-width:0.8;stroke-linecap:square;stroke-linejoin:miter"
       id="path314" />
  </g>
  <g
     id="patch_5">
    <path
       d="M 108,512.64 H 777.6"
       style="fill:none;stroke:#cccccc;stroke-width:2;stroke-linecap:square;stroke-linejoin:miter"
       id="path317" />
  </g>
  <g
     id="patch_6">
    <path
       d="M 108,69.12 H 777.6"
       style="fill:none;stroke:#cccccc;stroke-width:0.8;stroke-linecap:square;stroke-linejoin:miter"
       id="path320" />
  </g>
  <g
     id="legend_1">
    <g
       id="patch_7">
      <path
         d="M 618.12797,502.14 H 762.9 q 4.2,0 4.2,-4.2 v -57.28406 q 0,-4.2 -4.2,-4.2 H 618.12797 q -4.2,0 -4.2,4.2 V 497.94 q 0,4.2 4.2,4.2 z"
         style="opacity:0.8;fill:#ffffff;stroke:#cccccc;stroke-linejoin:miter"
         id="path323" />
    </g>
    <g
       id="PathCollection_3">
      <g
         id="g328">
        <use
           xlink:href="#ma20349fe43"
           x="643.32794"
           y="454.04343"
           style="fill:#1f77b4;fill-opacity:0.8;stroke:#1f77b4;stroke-opacity:0.8"
           id="use326"
           width="100%"
           height="100%" />
      </g>
    </g>
    <g
       id="text_15">
      <!-- version 1 -->
      <g
         style="fill:#262626"
         transform="matrix(0.21,0,0,-0.21,681.12797,459.55594)"
         id="g359">
        <defs
           id="defs339">
          <path
             id="TimesNewRomanPSMT-76"
             d="m 53,2863 h 1347 v -116 h -87 q -122,0 -186,-60 -64,-59 -64,-159 0,-109 65,-259 l 666,-1581 669,1640 q 71,175 71,266 0,44 -25,72 -34,47 -87,64 -53,17 -216,17 v 116 h 935 v -116 q -163,-13 -225,-66 -110,-93 -197,-312 L 1703,-88 H 1575 L 553,2328 q -69,169 -132,242 -62,74 -158,124 -54,28 -210,53 z"
             transform="scale(0.015625)" />
          <path
             id="TimesNewRomanPSMT-65"
             d="m 681,1784 q -3,-637 310,-1000 312,-362 734,-362 281,0 489,154 208,155 349,530 l 96,-62 Q 2594,616 2278,264 1963,-88 1488,-88 972,-88 605,314 238,716 238,1394 q 0,734 376,1145 377,411 945,411 482,0 791,-317 309,-317 309,-849 z m 0,182 h 1325 q -15,275 -65,387 -78,175 -233,275 -155,100 -324,100 -259,0 -464,-202 -204,-201 -239,-560 z"
             transform="scale(0.015625)" />
          <path
             id="TimesNewRomanPSMT-72"
             d="m 1038,2947 v -644 q 359,644 737,644 172,0 284,-105 113,-104 113,-242 0,-122 -82,-207 -81,-84 -193,-84 -109,0 -245,108 -136,108 -202,108 -56,0 -122,-62 -140,-129 -290,-422 V 669 q 0,-238 59,-360 41,-84 144,-140 103,-56 297,-56 V 0 H 72 v 113 q 219,0 325,68 78,50 109,160 16,53 16,303 v 1109 q 0,500 -21,595 -20,96 -75,139 -54,44 -135,44 -97,0 -219,-47 l -31,113 865,350 z"
             transform="scale(0.015625)" />
          <path
             id="TimesNewRomanPSMT-73"
             d="m 2050,2947 v -975 h -103 q -119,459 -305,625 -186,166 -473,166 -219,0 -354,-116 -134,-116 -134,-256 0,-175 100,-300 97,-128 394,-272 l 456,-222 Q 2266,1288 2266,781 2266,391 1970,151 1675,-88 1309,-88 1047,-88 709,6 606,38 541,38 469,38 428,-44 H 325 V 978 H 428 Q 516,541 762,319 1009,97 1316,97 q 215,0 351,126 136,127 136,305 0,216 -152,363 -151,147 -604,372 -453,225 -594,406 -140,178 -140,450 0,353 242,590 242,238 626,238 169,0 410,-72 159,-47 212,-47 50,0 78,22 28,22 66,97 z"
             transform="scale(0.015625)" />
          <path
             id="TimesNewRomanPSMT-69"
             d="m 928,4444 q 131,0 223,-93 93,-92 93,-223 0,-131 -93,-225 -92,-94 -223,-94 -131,0 -225,94 -94,94 -94,225 0,131 92,223 93,93 227,93 z M 1188,2947 V 647 q 0,-269 39,-358 39,-89 115,-133 77,-43 280,-43 V 0 H 231 v 113 q 210,0 281,40 72,41 114,134 43,94 43,360 v 1103 q 0,466 -28,603 -22,100 -69,139 -47,39 -128,39 -88,0 -213,-47 l -43,113 862,350 z"
             transform="scale(0.015625)" />
          <path
             id="TimesNewRomanPSMT-6f"
             d="m 1600,2947 q 650,0 1044,-494 334,-422 334,-969 0,-384 -185,-778 Q 2609,313 2286,112 1963,-88 1566,-88 919,-88 538,428 216,863 216,1403 q 0,394 195,783 195,389 514,575 319,186 675,186 z m -97,-203 q -165,0 -333,-99 -167,-98 -270,-345 -103,-247 -103,-634 0,-625 248,-1079 249,-453 655,-453 303,0 500,250 197,250 197,860 0,762 -328,1200 -222,300 -566,300 z"
             transform="scale(0.015625)" />
          <path
             id="TimesNewRomanPSMT-6e"
             d="m 1034,2341 q 504,606 960,606 234,0 403,-117 169,-117 269,-386 68,-188 68,-575 V 647 q 0,-272 44,-369 35,-78 111,-122 77,-43 283,-43 V 0 H 1756 v 113 h 60 q 200,0 279,60 80,61 111,180 13,47 13,294 v 1172 q 0,390 -102,567 -101,177 -342,177 -372,0 -741,-407 V 647 q 0,-291 35,-359 44,-91 120,-133 77,-42 311,-42 V 0 H 84 v 113 h 63 q 219,0 295,110 77,111 77,424 v 1062 q 0,516 -24,628 -23,113 -72,153 -48,41 -129,41 -88,0 -210,-47 l -46,113 862,350 h 134 z"
             transform="scale(0.015625)" />
          <path
             id="TimesNewRomanPSMT-20"
             transform="scale(0.015625)"
             d="" />
        </defs>
        <use
           xlink:href="#TimesNewRomanPSMT-76"
           id="use341"
           x="0"
           y="0"
           width="100%"
           height="100%" />
        <use
           xlink:href="#TimesNewRomanPSMT-65"
           x="50"
           id="use343"
           y="0"
           width="100%"
           height="100%" />
        <use
           xlink:href="#TimesNewRomanPSMT-72"
           x="94.384766"
           id="use345"
           y="0"
           width="100%"
           height="100%" />
        <use
           xlink:href="#TimesNewRomanPSMT-73"
           x="127.68555"
           id="use347"
           y="0"
           width="100%"
           height="100%" />
        <use
           xlink:href="#TimesNewRomanPSMT-69"
           x="166.60156"
           id="use349"
           y="0"
           width="100%"
           height="100%" />
        <use
           xlink:href="#TimesNewRomanPSMT-6f"
           x="194.38477"
           id="use351"
           y="0"
           width="100%"
           height="100%" />
        <use
           xlink:href="#TimesNewRomanPSMT-6e"
           x="244.38477"
           id="use353"
           y="0"
           width="100%"
           height="100%" />
        <use
           xlink:href="#TimesNewRomanPSMT-20"
           x="294.38477"
           id="use355"
           y="0"
           width="100%"
           height="100%" />
        <use
           xlink:href="#TimesNewRomanPSMT-31"
           x="319.38477"
           id="use357"
           y="0"
           width="100%"
           height="100%" />
      </g>
    </g>
    <g
       id="PathCollection_4">
      <g
         id="g364">
        <use
           xlink:href="#m56bed94726"
           x="643.32794"
           y="483.73547"
           style="fill:#ff7f0e;fill-opacity:0.8;stroke:#ff7f0e;stroke-opacity:0.8"
           id="use362"
           width="100%"
           height="100%" />
      </g>
    </g>
    <g
       id="text_16">
      <!-- version 2 -->
      <g
         style="fill:#262626"
         transform="matrix(0.21,0,0,-0.21,681.12797,489.24797)"
         id="g385">
        <use
           xlink:href="#TimesNewRomanPSMT-76"
           id="use367"
           x="0"
           y="0"
           width="100%"
           height="100%" />
        <use
           xlink:href="#TimesNewRomanPSMT-65"
           x="50"
           id="use369"
           y="0"
           width="100%"
           height="100%" />
        <use
           xlink:href="#TimesNewRomanPSMT-72"
           x="94.384766"
           id="use371"
           y="0"
           width="100%"
           height="100%" />
        <use
           xlink:href="#TimesNewRomanPSMT-73"
           x="127.68555"
           id="use373"
           y="0"
           width="100%"
           height="100%" />
        <use
           xlink:href="#TimesNewRomanPSMT-69"
           x="166.60156"
           id="use375"
           y="0"
           width="100%"
           height="100%" />
        <use
           xlink:href="#TimesNewRomanPSMT-6f"
           x="194.38477"
           id="use377"
           y="0"
           width="100%"
           height="100%" />
        <use
           xlink:href="#TimesNewRomanPSMT-6e"
           x="244.38477"
           id="use379"
           y="0"
           width="100%"
           height="100%" />
        <use
           xlink:href="#TimesNewRomanPSMT-20"
           x="294.38477"
           id="use381"
           y="0"
           width="100%"
           height="100%" />
        <use
           xlink:href="#TimesNewRomanPSMT-32"
           x="319.38477"
           id="use383"
           y="0"
           width="100%"
           height="100%" />
      </g>
    </g>
  </g>
  <defs
     id="defs394">
    <clipPath
       id="p85d2b3352a">
      <rect
         x="108"
         y="69.12"
         width="669.6"
         height="443.52"
         id="rect391" />
    </clipPath>
  </defs>
  <rect
     style="fill:#ffffff;stroke:#ffffff;stroke-width:1.01109;stroke-dashoffset:75.5906;stroke-opacity:1"
     id="rect1558"
     width="166.02837"
     height="67.314598"
     x="603.83929"
     y="75.706726" />
  <path
     style="fill:none;stroke:#cccccc;stroke-width:0.75px;stroke-linecap:butt;stroke-linejoin:miter;stroke-opacity:1"
     d="m 629.42142,69.12 v 75.61364"
     id="path1727" />
  <path
     style="fill:none;stroke:#cccccc;stroke-width:0.75px;stroke-linecap:butt;stroke-linejoin:miter;stroke-opacity:1"
     d="m 747.16364,69.12 v 74.69294"
     id="path1729" />
  <path
     style="fill:none;stroke:#cccccc;stroke-width:0.75px;stroke-linecap:butt;stroke-linejoin:miter;stroke-opacity:1"
     d="M 777.6,143.04 H 600.46052"
     id="path1731" />
  <g
     id="PathCollection_1">
    <defs
       id="defs230">
      <path
         id="ma20349fe43"
         d="m 0,4.743416 c 1.257969,0 2.464584,-0.499796 3.354102,-1.389314 C 4.24362,2.464584 4.743416,1.257969 4.743416,0 4.743416,-1.257969 4.24362,-2.464584 3.354102,-3.354102 2.464584,-4.24362 1.257969,-4.743416 0,-4.743416 c -1.257969,0 -2.464584,0.499796 -3.354102,1.389314 C -4.24362,-2.464584 -4.743416,-1.257969 -4.743416,0 c 0,1.257969 0.499796,2.464584 1.389314,3.354102 C -2.464584,4.24362 -1.257969,4.743416 0,4.743416 Z"
         style="stroke:#1f77b4;stroke-opacity:0.8" />
    </defs>
    <g
       clip-path="url(#p85d2b3352a)"
       id="g256">
      <use
         xlink:href="#ma20349fe43"
         x="138.43637"
         y="143.03999"
         style="fill:#1f77b4;fill-opacity:0.8;stroke:#1f77b4;stroke-opacity:0.8"
         id="use232"
         width="100%"
         height="100%" />
      <use
         xlink:href="#ma20349fe43"
         x="145.5009"
         y="374.04001"
         style="fill:#1f77b4;fill-opacity:0.8;stroke:#1f77b4;stroke-opacity:0.8"
         id="use234"
         width="100%"
         height="100%" />
      <use
         xlink:href="#ma20349fe43"
         x="302.09805"
         y="268.33441"
         style="fill:#1f77b4;fill-opacity:0.8;stroke:#1f77b4;stroke-opacity:0.8"
         id="use236"
         width="100%"
         height="100%" />
      <use
         xlink:href="#ma20349fe43"
         x="342.1304"
         y="174.45599"
         style="fill:#1f77b4;fill-opacity:0.8;stroke:#1f77b4;stroke-opacity:0.8"
         id="use238"
         width="100%"
         height="100%" />
      <use
         xlink:href="#ma20349fe43"
         x="550.53412"
         y="147.8448"
         style="fill:#1f77b4;fill-opacity:0.8;stroke:#1f77b4;stroke-opacity:0.8"
         id="use240"
         width="100%"
         height="100%" />
      <use
         xlink:href="#ma20349fe43"
         x="616.46979"
         y="154.4976"
         style="fill:#1f77b4;fill-opacity:0.8;stroke:#1f77b4;stroke-opacity:0.8"
         id="use242"
         width="100%"
         height="100%" />
      <use
         xlink:href="#ma20349fe43"
         x="419.84027"
         y="171.49921"
         style="fill:#1f77b4;fill-opacity:0.8;stroke:#1f77b4;stroke-opacity:0.8"
         id="use244"
         width="100%"
         height="100%" />
      <use
         xlink:href="#ma20349fe43"
         x="616.46979"
         y="145.2576"
         style="fill:#1f77b4;fill-opacity:0.8;stroke:#1f77b4;stroke-opacity:0.8"
         id="use246"
         width="100%"
         height="100%" />
      <use
         xlink:href="#ma20349fe43"
         x="734.21198"
         y="155.6064"
         style="fill:#1f77b4;fill-opacity:0.8;stroke:#1f77b4;stroke-opacity:0.8"
         id="use248"
         width="100%"
         height="100%" />
      <use
         xlink:href="#ma20349fe43"
         x="616.46979"
         y="165.9552"
         style="fill:#1f77b4;fill-opacity:0.8;stroke:#1f77b4;stroke-opacity:0.8"
         id="use250"
         width="100%"
         height="100%" />
      <use
         xlink:href="#ma20349fe43"
         x="747.16364"
         y="153.38879"
         style="fill:#1f77b4;fill-opacity:0.8;stroke:#1f77b4;stroke-opacity:0.8"
         id="use252"
         width="100%"
         height="100%" />
      <use
         xlink:href="#ma20349fe43"
         x="681.22797"
         y="143.03999"
         style="fill:#1f77b4;fill-opacity:0.8;stroke:#1f77b4;stroke-opacity:0.8"
         id="use254"
         width="100%"
         height="100%" />
    </g>
  </g>
  <g
     id="PathCollection_2">
    <defs
       id="defs268">
      <path
         id="m56bed94726"
         d="m 0,4.743416 c 1.257969,0 2.464584,-0.499796 3.354102,-1.389314 C 4.24362,2.464584 4.743416,1.257969 4.743416,0 4.743416,-1.257969 4.24362,-2.464584 3.354102,-3.354102 2.464584,-4.24362 1.257969,-4.743416 0,-4.743416 c -1.257969,0 -2.464584,0.499796 -3.354102,1.389314 C -4.24362,-2.464584 -4.743416,-1.257969 -4.743416,0 c 0,1.257969 0.499796,2.464584 1.389314,3.354102 C -2.464584,4.24362 -1.257969,4.743416 0,4.743416 Z"
         style="stroke:#ff7f0e;stroke-opacity:0.8" />
    </defs>
    <g
       clip-path="url(#p85d2b3352a)"
       id="g294">
      <use
         xlink:href="#m56bed94726"
         x="158.45255"
         y="253.92"
         style="fill:#ff7f0e;fill-opacity:0.8;stroke:#ff7f0e;stroke-opacity:0.8"
         id="use270"
         width="100%"
         height="100%" />
      <use
         xlink:href="#m56bed94726"
         x="191.42036"
         y="181.84801"
         style="fill:#ff7f0e;fill-opacity:0.8;stroke:#ff7f0e;stroke-opacity:0.8"
         id="use272"
         width="100%"
         height="100%" />
      <use
         xlink:href="#m56bed94726"
         x="355.08206"
         y="158.5632"
         style="fill:#ff7f0e;fill-opacity:0.8;stroke:#ff7f0e;stroke-opacity:0.8"
         id="use274"
         width="100%"
         height="100%" />
      <use
         xlink:href="#m56bed94726"
         x="386.87244"
         y="143.03999"
         style="fill:#ff7f0e;fill-opacity:0.8;stroke:#ff7f0e;stroke-opacity:0.8"
         id="use276"
         width="100%"
         height="100%" />
      <use
         xlink:href="#m56bed94726"
         x="583.50195"
         y="143.03999"
         style="fill:#ff7f0e;fill-opacity:0.8;stroke:#ff7f0e;stroke-opacity:0.8"
         id="use278"
         width="100%"
         height="100%" />
      <use
         xlink:href="#m56bed94726"
         x="747.16364"
         y="143.03999"
         style="fill:#ff7f0e;fill-opacity:0.8;stroke:#ff7f0e;stroke-opacity:0.8"
         id="use280"
         width="100%"
         height="100%" />
      <use
         xlink:href="#m56bed94726"
         x="518.74371"
         y="143.03999"
         style="fill:#ff7f0e;fill-opacity:0.8;stroke:#ff7f0e;stroke-opacity:0.8"
         id="use282"
         width="100%"
         height="100%" />
      <use
         xlink:href="#m56bed94726"
         x="747.16364"
         y="143.03999"
         style="fill:#ff7f0e;fill-opacity:0.8;stroke:#ff7f0e;stroke-opacity:0.8"
         id="use284"
         width="100%"
         height="100%" />
      <use
         xlink:href="#m56bed94726"
         x="616.46979"
         y="165.9552"
         style="fill:#ff7f0e;fill-opacity:0.8;stroke:#ff7f0e;stroke-opacity:0.8"
         id="use286"
         width="100%"
         height="100%" />
      <use
         xlink:href="#m56bed94726"
         x="747.16364"
         y="143.03999"
         style="fill:#ff7f0e;fill-opacity:0.8;stroke:#ff7f0e;stroke-opacity:0.8"
         id="use288"
         width="100%"
         height="100%" />
      <use
         xlink:href="#m56bed94726"
         x="747.16364"
         y="153.38879"
         style="fill:#ff7f0e;fill-opacity:0.8;stroke:#ff7f0e;stroke-opacity:0.8"
         id="use290"
         width="100%"
         height="100%" />
      <use
         xlink:href="#m56bed94726"
         x="747.16364"
         y="173.7168"
         style="fill:#ff7f0e;fill-opacity:0.8;stroke:#ff7f0e;stroke-opacity:0.8"
         id="use292"
         width="100%"
         height="100%" />
    </g>
  </g>
</svg>
