<?xml version="1.0" encoding="UTF-8" standalone="no"?>
<svg
   width="864pt"
   height="576pt"
   viewBox="0 0 864 576"
   version="1.1"
   id="svg376"
   sodipodi:docname="M3.svg"
   inkscape:version="1.1.1 (3bf5ae0d25, 2021-09-20)"
   xmlns:inkscape="http://www.inkscape.org/namespaces/inkscape"
   xmlns:sodipodi="http://sodipodi.sourceforge.net/DTD/sodipodi-0.dtd"
   xmlns:xlink="http://www.w3.org/1999/xlink"
   xmlns="http://www.w3.org/2000/svg"
   xmlns:svg="http://www.w3.org/2000/svg"
   xmlns:rdf="http://www.w3.org/1999/02/22-rdf-syntax-ns#"
   xmlns:cc="http://creativecommons.org/ns#"
   xmlns:dc="http://purl.org/dc/elements/1.1/">
  <sodipodi:namedview
     id="namedview378"
     pagecolor="#ffffff"
     bordercolor="#666666"
     borderopacity="1.0"
     inkscape:pageshadow="2"
     inkscape:pageopacity="0.0"
     inkscape:pagecheckerboard="0"
     inkscape:document-units="pt"
     showgrid="false"
     inkscape:zoom="0.93619792"
     inkscape:cx="576.26704"
     inkscape:cy="384"
     inkscape:window-width="1920"
     inkscape:window-height="1017"
     inkscape:window-x="-8"
     inkscape:window-y="-8"
     inkscape:window-maximized="1"
     inkscape:current-layer="svg376" />
  <metadata
     id="metadata2">
    <rdf:RDF>
      <cc:Work>
        <dc:type
           rdf:resource="http://purl.org/dc/dcmitype/StillImage" />
        <dc:date>2023-11-11T16:31:55.360005</dc:date>
        <dc:format>image/svg+xml</dc:format>
        <dc:creator>
          <cc:Agent>
            <dc:title>Matplotlib v3.7.2, https://matplotlib.org/</dc:title>
          </cc:Agent>
        </dc:creator>
      </cc:Work>
    </rdf:RDF>
  </metadata>
  <defs
     id="defs6">
    <style
       type="text/css"
       id="style4">*{stroke-linejoin: round; stroke-linecap: butt}</style>
  </defs>
  <g
     id="axes_1">
    <g
       id="patch_2">
      <path
         d="M 108,512.64 H 777.6 V 69.12 H 108 Z"
         style="fill:#ffffff"
         id="path11" />
    </g>
    <g
       id="matplotlib.axis_1">
      <g
         id="xtick_1">
        <g
           id="text_1">
          <!-- v1-r -->
          <g
             style="fill:#262626"
             transform="matrix(0.18,0,0,-0.18,176.70656,532.13875)"
             id="g28">
            <defs
               id="defs18">
              <path
                 id="TimesNewRomanPSMT-76"
                 d="m 53,2863 h 1347 v -116 h -87 q -122,0 -186,-60 -64,-59 -64,-159 0,-109 65,-259 l 666,-1581 669,1640 q 71,175 71,266 0,44 -25,72 -34,47 -87,64 -53,17 -216,17 v 116 h 935 v -116 q -163,-13 -225,-66 -110,-93 -197,-312 L 1703,-88 H 1575 L 553,2328 q -69,169 -132,242 -62,74 -158,124 -54,28 -210,53 z"
                 transform="scale(0.015625)" />
              <path
                 id="TimesNewRomanPSMT-31"
                 d="m 750,3822 1031,503 h 103 V 747 q 0,-356 30,-444 30,-87 123,-134 94,-47 382,-53 V 0 H 825 v 116 q 300,6 387,51 88,46 122,122 35,77 35,458 v 2287 q 0,463 -31,594 -22,100 -80,147 -58,47 -139,47 -116,0 -322,-97 z"
                 transform="scale(0.015625)" />
              <path
                 id="TimesNewRomanPSMT-2d"
                 d="M 259,1672 H 1875 V 1200 H 259 Z"
                 transform="scale(0.015625)" />
              <path
                 id="TimesNewRomanPSMT-72"
                 d="m 1038,2947 v -644 q 359,644 737,644 172,0 284,-105 113,-104 113,-242 0,-122 -82,-207 -81,-84 -193,-84 -109,0 -245,108 -136,108 -202,108 -56,0 -122,-62 -140,-129 -290,-422 V 669 q 0,-238 59,-360 41,-84 144,-140 103,-56 297,-56 V 0 H 72 v 113 q 219,0 325,68 78,50 109,160 16,53 16,303 v 1109 q 0,500 -21,595 -20,96 -75,139 -54,44 -135,44 -97,0 -219,-47 l -31,113 865,350 z"
                 transform="scale(0.015625)" />
            </defs>
            <use
               xlink:href="#TimesNewRomanPSMT-76"
               id="use20"
               x="0"
               y="0"
               width="100%"
               height="100%" />
            <use
               xlink:href="#TimesNewRomanPSMT-31"
               x="50"
               id="use22"
               y="0"
               width="100%"
               height="100%" />
            <use
               xlink:href="#TimesNewRomanPSMT-2d"
               x="100"
               id="use24"
               y="0"
               width="100%"
               height="100%" />
            <use
               xlink:href="#TimesNewRomanPSMT-72"
               x="133.30078"
               id="use26"
               y="0"
               width="100%"
               height="100%" />
          </g>
        </g>
      </g>
      <g
         id="xtick_2">
        <g
           id="text_2">
          <!-- v1-f -->
          <g
             style="fill:#262626"
             transform="matrix(0.18,0,0,-0.18,344.10656,532.13875)"
             id="g43">
            <defs
               id="defs33">
              <path
                 id="TimesNewRomanPSMT-66"
                 d="M 1319,2638 V 756 q 0,-400 87,-506 116,-137 310,-137 h 259 V 0 H 266 v 113 h 128 q 125,0 228,62 103,63 142,169 39,106 39,412 V 2638 H 247 v 225 h 556 v 187 q 0,428 137,725 138,297 421,480 283,183 636,183 328,0 603,-213 181,-141 181,-316 0,-93 -81,-176 -81,-83 -175,-83 -72,0 -152,51 -79,52 -195,222 -115,171 -212,230 -97,60 -216,60 -144,0 -244,-77 -100,-77 -144,-238 -43,-160 -43,-829 v -206 h 737 v -225 z"
                 transform="scale(0.015625)" />
            </defs>
            <use
               xlink:href="#TimesNewRomanPSMT-76"
               id="use35"
               x="0"
               y="0"
               width="100%"
               height="100%" />
            <use
               xlink:href="#TimesNewRomanPSMT-31"
               x="50"
               id="use37"
               y="0"
               width="100%"
               height="100%" />
            <use
               xlink:href="#TimesNewRomanPSMT-2d"
               x="100"
               id="use39"
               y="0"
               width="100%"
               height="100%" />
            <use
               xlink:href="#TimesNewRomanPSMT-66"
               x="133.30078"
               id="use41"
               y="0"
               width="100%"
               height="100%" />
          </g>
        </g>
      </g>
      <g
         id="xtick_3">
        <g
           id="text_3">
          <!-- v2-r -->
          <g
             style="fill:#262626"
             transform="matrix(0.18,0,0,-0.18,511.50656,532.13875)"
             id="g58">
            <defs
               id="defs48">
              <path
                 id="TimesNewRomanPSMT-32"
                 d="M 2934,816 2638,0 H 138 v 116 q 1103,1006 1553,1643 450,638 450,1166 0,403 -247,662 -247,260 -591,260 -312,0 -561,-183 Q 494,3481 375,3128 H 259 q 79,578 402,887 323,310 808,310 515,0 860,-331 346,-331 346,-781 0,-322 -150,-644 Q 2294,2063 1775,1497 997,647 803,472 h 1106 q 338,0 474,25 136,25 245,101 110,77 191,218 z"
                 transform="scale(0.015625)" />
            </defs>
            <use
               xlink:href="#TimesNewRomanPSMT-76"
               id="use50"
               x="0"
               y="0"
               width="100%"
               height="100%" />
            <use
               xlink:href="#TimesNewRomanPSMT-32"
               x="50"
               id="use52"
               y="0"
               width="100%"
               height="100%" />
            <use
               xlink:href="#TimesNewRomanPSMT-2d"
               x="100"
               id="use54"
               y="0"
               width="100%"
               height="100%" />
            <use
               xlink:href="#TimesNewRomanPSMT-72"
               x="133.30078"
               id="use56"
               y="0"
               width="100%"
               height="100%" />
          </g>
        </g>
      </g>
      <g
         id="xtick_4">
        <g
           id="text_4">
          <!-- v2-f -->
          <g
             style="fill:#262626"
             transform="matrix(0.18,0,0,-0.18,678.90656,532.13875)"
             id="g70">
            <use
               xlink:href="#TimesNewRomanPSMT-76"
               id="use62"
               x="0"
               y="0"
               width="100%"
               height="100%" />
            <use
               xlink:href="#TimesNewRomanPSMT-32"
               x="50"
               id="use64"
               y="0"
               width="100%"
               height="100%" />
            <use
               xlink:href="#TimesNewRomanPSMT-2d"
               x="100"
               id="use66"
               y="0"
               width="100%"
               height="100%" />
            <use
               xlink:href="#TimesNewRomanPSMT-66"
               x="133.30078"
               id="use68"
               y="0"
               width="100%"
               height="100%" />
          </g>
        </g>
      </g>
      <g
         id="text_5">
        <!-- Specimen Type -->
        <g
           style="fill:#262626"
           transform="matrix(0.27,0,0,-0.27,359.63156,558.73719)"
           id="g112">
          <defs
             id="defs84">
            <path
               id="TimesNewRomanPSMT-53"
               d="M 2934,4334 V 2869 h -115 q -56,422 -202,672 -145,250 -414,396 -269,147 -556,147 -325,0 -538,-198 -212,-198 -212,-452 0,-193 134,-353 194,-234 922,-625 594,-318 811,-489 217,-170 334,-402 118,-231 118,-484 0,-481 -374,-830 -373,-348 -961,-348 -184,0 -347,28 -96,16 -401,114 Q 828,144 747,144 669,144 623,97 578,50 556,-97 H 441 v 1453 h 115 q 82,-456 219,-683 138,-226 420,-376 283,-150 621,-150 390,0 616,206 227,206 227,488 0,156 -86,315 -85,160 -267,297 -122,94 -666,398 -543,305 -773,486 -229,182 -348,400 -119,219 -119,482 0,456 350,785 350,330 891,330 337,0 715,-165 175,-78 247,-78 81,0 133,48 52,49 83,195 z"
               transform="scale(0.015625)" />
            <path
               id="TimesNewRomanPSMT-70"
               d="m -6,2578 881,356 h 119 v -668 q 222,378 445,529 224,152 470,152 432,0 719,-338 353,-412 353,-1075 0,-740 -425,-1225 -350,-397 -881,-397 -231,0 -400,66 -125,47 -281,188 v -872 q 0,-294 36,-373 36,-80 125,-127 89,-47 323,-47 v -116 H -22 v 116 h 78 q 172,-3 294,65 59,35 92,112 33,76 33,388 v 2707 q 0,278 -25,353 -25,75 -80,112 -54,38 -148,38 -75,0 -191,-44 z M 994,2081 V 1013 q 0,-347 28,-457 44,-181 214,-319 170,-137 430,-137 312,0 506,244 253,319 253,897 0,656 -287,1009 -200,244 -475,244 -150,0 -297,-75 -113,-56 -372,-338 z"
               transform="scale(0.015625)" />
            <path
               id="TimesNewRomanPSMT-65"
               d="m 681,1784 q -3,-637 310,-1000 312,-362 734,-362 281,0 489,154 208,155 349,530 l 96,-62 Q 2594,616 2278,264 1963,-88 1488,-88 972,-88 605,314 238,716 238,1394 q 0,734 376,1145 377,411 945,411 482,0 791,-317 309,-317 309,-849 z m 0,182 h 1325 q -15,275 -65,387 -78,175 -233,275 -155,100 -324,100 -259,0 -464,-202 -204,-201 -239,-560 z"
               transform="scale(0.015625)" />
            <path
               id="TimesNewRomanPSMT-63"
               d="M 2631,1088 Q 2516,522 2178,217 1841,-88 1431,-88 944,-88 581,321 219,731 219,1428 q 0,675 401,1097 402,422 964,422 422,0 694,-224 272,-223 272,-464 0,-118 -77,-192 -76,-73 -214,-73 -184,0 -278,119 -53,65 -70,249 -17,185 -127,282 -109,94 -303,94 -312,0 -503,-232 -253,-306 -253,-809 0,-513 251,-905 252,-392 680,-392 307,0 550,209 172,144 335,522 z"
               transform="scale(0.015625)" />
            <path
               id="TimesNewRomanPSMT-69"
               d="m 928,4444 q 131,0 223,-93 93,-92 93,-223 0,-131 -93,-225 -92,-94 -223,-94 -131,0 -225,94 -94,94 -94,225 0,131 92,223 93,93 227,93 z M 1188,2947 V 647 q 0,-269 39,-358 39,-89 115,-133 77,-43 280,-43 V 0 H 231 v 113 q 210,0 281,40 72,41 114,134 43,94 43,360 v 1103 q 0,466 -28,603 -22,100 -69,139 -47,39 -128,39 -88,0 -213,-47 l -43,113 862,350 z"
               transform="scale(0.015625)" />
            <path
               id="TimesNewRomanPSMT-6d"
               d="m 1050,2338 q 313,312 369,359 140,119 302,184 163,66 323,66 269,0 462,-157 194,-156 260,-452 322,375 543,492 222,117 457,117 228,0 404,-117 177,-117 280,-383 69,-181 69,-569 V 647 q 0,-269 40,-369 32,-69 116,-117 84,-48 275,-48 V 0 H 3538 v 113 h 59 q 184,0 287,71 72,50 104,160 12,53 12,303 v 1231 q 0,350 -84,494 -122,200 -391,200 -166,0 -333,-83 -167,-83 -404,-308 l -7,-34 7,-134 V 647 q 0,-294 32,-366 33,-72 123,-120 91,-48 310,-48 V 0 H 1806 v 113 q 238,0 327,56 89,56 123,169 16,53 16,309 v 1231 q 0,350 -103,503 -138,200 -385,200 -168,0 -334,-90 -259,-138 -400,-310 V 647 q 0,-281 39,-366 39,-84 115,-126 77,-42 312,-42 V 0 H 100 v 113 q 197,0 275,42 78,42 118,134 41,92 41,358 v 1094 q 0,472 -28,609 -22,103 -69,142 -46,39 -128,39 -87,0 -209,-47 l -47,113 863,350 h 134 z"
               transform="scale(0.015625)" />
            <path
               id="TimesNewRomanPSMT-6e"
               d="m 1034,2341 q 504,606 960,606 234,0 403,-117 169,-117 269,-386 68,-188 68,-575 V 647 q 0,-272 44,-369 35,-78 111,-122 77,-43 283,-43 V 0 H 1756 v 113 h 60 q 200,0 279,60 80,61 111,180 13,47 13,294 v 1172 q 0,390 -102,567 -101,177 -342,177 -372,0 -741,-407 V 647 q 0,-291 35,-359 44,-91 120,-133 77,-42 311,-42 V 0 H 84 v 113 h 63 q 219,0 295,110 77,111 77,424 v 1062 q 0,516 -24,628 -23,113 -72,153 -48,41 -129,41 -88,0 -210,-47 l -46,113 862,350 h 134 z"
               transform="scale(0.015625)" />
            <path
               id="TimesNewRomanPSMT-20"
               transform="scale(0.015625)"
               d="" />
            <path
               id="TimesNewRomanPSMT-54"
               d="m 3703,4238 47,-994 h -119 q -34,262 -93,375 -97,181 -258,267 -161,86 -424,86 H 2259 V 734 q 0,-390 85,-487 119,-131 365,-131 h 147 V 0 H 1059 v 116 h 150 q 269,0 382,162 68,100 68,456 V 3972 H 1150 Q 853,3972 728,3928 566,3869 450,3700 334,3531 313,3244 H 194 l 50,994 z"
               transform="scale(0.015625)" />
            <path
               id="TimesNewRomanPSMT-79"
               d="m 38,2863 h 1334 v -116 h -66 q -140,0 -211,-61 -70,-61 -70,-152 0,-121 103,-337 l 697,-1444 641,1581 q 53,129 53,254 0,56 -22,84 -25,34 -78,54 -53,21 -188,21 v 116 h 932 v -116 q -116,-13 -179,-51 -62,-37 -137,-140 -28,-43 -106,-240 L 1575,-541 q -169,-415 -443,-627 -273,-213 -526,-213 -184,0 -303,106 -119,106 -119,244 0,131 86,211 86,79 236,79 103,0 282,-68 125,-47 156,-47 94,0 204,97 111,96 224,375 L 1575,113 547,2272 q -47,97 -150,241 -78,109 -128,146 -72,50 -231,88 z"
               transform="scale(0.015625)" />
          </defs>
          <use
             xlink:href="#TimesNewRomanPSMT-53"
             id="use86"
             x="0"
             y="0"
             width="100%"
             height="100%" />
          <use
             xlink:href="#TimesNewRomanPSMT-70"
             x="55.615234"
             id="use88"
             y="0"
             width="100%"
             height="100%" />
          <use
             xlink:href="#TimesNewRomanPSMT-65"
             x="105.61523"
             id="use90"
             y="0"
             width="100%"
             height="100%" />
          <use
             xlink:href="#TimesNewRomanPSMT-63"
             x="150"
             id="use92"
             y="0"
             width="100%"
             height="100%" />
          <use
             xlink:href="#TimesNewRomanPSMT-69"
             x="194.38477"
             id="use94"
             y="0"
             width="100%"
             height="100%" />
          <use
             xlink:href="#TimesNewRomanPSMT-6d"
             x="222.16797"
             id="use96"
             y="0"
             width="100%"
             height="100%" />
          <use
             xlink:href="#TimesNewRomanPSMT-65"
             x="299.95117"
             id="use98"
             y="0"
             width="100%"
             height="100%" />
          <use
             xlink:href="#TimesNewRomanPSMT-6e"
             x="344.33594"
             id="use100"
             y="0"
             width="100%"
             height="100%" />
          <use
             xlink:href="#TimesNewRomanPSMT-20"
             x="394.33594"
             id="use102"
             y="0"
             width="100%"
             height="100%" />
          <use
             xlink:href="#TimesNewRomanPSMT-54"
             x="417.58594"
             id="use104"
             y="0"
             width="100%"
             height="100%" />
          <use
             xlink:href="#TimesNewRomanPSMT-79"
             x="471.66992"
             id="use106"
             y="0"
             width="100%"
             height="100%" />
          <use
             xlink:href="#TimesNewRomanPSMT-70"
             x="521.66992"
             id="use108"
             y="0"
             width="100%"
             height="100%" />
          <use
             xlink:href="#TimesNewRomanPSMT-65"
             x="571.66992"
             id="use110"
             y="0"
             width="100%"
             height="100%" />
        </g>
      </g>
    </g>
    <g
       id="matplotlib.axis_2">
      <g
         id="ytick_1">
        <g
           id="line2d_1">
          <path
             d="M 108,512.64 H 777.6"
             clip-path="url(#p0145e4ec75)"
             style="fill:none;stroke:#cccccc;stroke-width:0.8;stroke-linecap:round"
             id="path116" />
        </g>
        <g
           id="text_6">
          <!-- 0% -->
          <g
             style="fill:#262626"
             transform="matrix(0.18,0,0,-0.18,77.006563,518.88937)"
             id="g127">
            <defs
               id="defs121">
              <path
                 id="TimesNewRomanPSMT-30"
                 d="m 231,2094 q 0,725 219,1248 219,524 581,780 282,203 582,203 487,0 875,-497 484,-615 484,-1669 0,-737 -213,-1253 Q 2547,391 2217,158 1888,-75 1581,-75 975,-75 572,641 231,1244 231,2094 Z m 613,-78 q 0,-875 215,-1428 179,-466 532,-466 168,0 349,151 182,152 276,508 143,538 143,1516 0,725 -150,1209 -112,360 -290,510 -128,103 -310,103 -212,0 -378,-191 -225,-259 -306,-816 -81,-556 -81,-1096 z"
                 transform="scale(0.015625)" />
              <path
                 id="TimesNewRomanPSMT-25"
                 d="M 4350,4334 1263,-175 H 984 l 3088,4509 z m -3212,0 q 421,0 654,-350 233,-350 233,-803 0,-543 -263,-840 -262,-297 -631,-297 -247,0 -453,136 -206,136 -330,404 -123,269 -123,597 0,328 125,605 125,277 342,412 217,136 446,136 z m -10,-175 q -159,0 -283,-188 -123,-187 -123,-787 0,-434 69,-662 53,-172 165,-266 66,-56 163,-56 150,0 256,163 156,240 156,803 0,593 -153,834 -100,159 -250,159 z M 4206,2103 q 222,0 442,-141 221,-140 341,-409 120,-269 120,-590 0,-554 -266,-846 -265,-292 -627,-292 -228,0 -443,141 -214,140 -337,401 -123,261 -123,596 0,328 123,599 123,272 337,406 215,135 433,135 z m 3,-165 q -150,0 -259,-169 -141,-219 -141,-828 0,-560 144,-782 106,-159 256,-159 144,0 257,172 150,228 150,784 0,588 -150,822 -103,160 -257,160 z"
                 transform="scale(0.015625)" />
            </defs>
            <use
               xlink:href="#TimesNewRomanPSMT-30"
               id="use123"
               x="0"
               y="0"
               width="100%"
               height="100%" />
            <use
               xlink:href="#TimesNewRomanPSMT-25"
               x="50"
               id="use125"
               y="0"
               width="100%"
               height="100%" />
          </g>
        </g>
      </g>
      <g
         id="ytick_2">
        <g
           id="line2d_2">
          <path
             d="M 108,428.16 H 777.6"
             clip-path="url(#p0145e4ec75)"
             style="fill:none;stroke:#cccccc;stroke-width:0.8;stroke-linecap:round"
             id="path131" />
        </g>
        <g
           id="text_7">
          <!-- 20% -->
          <g
             style="fill:#262626"
             transform="matrix(0.18,0,0,-0.18,68.006563,434.40937)"
             id="g140">
            <use
               xlink:href="#TimesNewRomanPSMT-32"
               id="use134"
               x="0"
               y="0"
               width="100%"
               height="100%" />
            <use
               xlink:href="#TimesNewRomanPSMT-30"
               x="50"
               id="use136"
               y="0"
               width="100%"
               height="100%" />
            <use
               xlink:href="#TimesNewRomanPSMT-25"
               x="100"
               id="use138"
               y="0"
               width="100%"
               height="100%" />
          </g>
        </g>
      </g>
      <g
         id="ytick_3">
        <g
           id="line2d_3">
          <path
             d="M 108,343.68 H 777.6"
             clip-path="url(#p0145e4ec75)"
             style="fill:none;stroke:#cccccc;stroke-width:0.8;stroke-linecap:round"
             id="path144" />
        </g>
        <g
           id="text_8">
          <!-- 40% -->
          <g
             style="fill:#262626"
             transform="matrix(0.18,0,0,-0.18,68.006563,349.92937)"
             id="g156">
            <defs
               id="defs148">
              <path
                 id="TimesNewRomanPSMT-34"
                 d="M 2978,1563 V 1119 H 2409 V 0 H 1894 V 1119 H 100 v 400 l 1966,2806 h 343 V 1563 Z m -1084,0 V 3666 L 406,1563 Z"
                 transform="scale(0.015625)" />
            </defs>
            <use
               xlink:href="#TimesNewRomanPSMT-34"
               id="use150"
               x="0"
               y="0"
               width="100%"
               height="100%" />
            <use
               xlink:href="#TimesNewRomanPSMT-30"
               x="50"
               id="use152"
               y="0"
               width="100%"
               height="100%" />
            <use
               xlink:href="#TimesNewRomanPSMT-25"
               x="100"
               id="use154"
               y="0"
               width="100%"
               height="100%" />
          </g>
        </g>
      </g>
      <g
         id="ytick_4">
        <g
           id="line2d_4">
          <path
             d="M 108,259.2 H 777.6"
             clip-path="url(#p0145e4ec75)"
             style="fill:none;stroke:#cccccc;stroke-width:0.8;stroke-linecap:round"
             id="path160" />
        </g>
        <g
           id="text_9">
          <!-- 60% -->
          <g
             style="fill:#262626"
             transform="matrix(0.18,0,0,-0.18,68.006563,265.44937)"
             id="g172">
            <defs
               id="defs164">
              <path
                 id="TimesNewRomanPSMT-36"
                 d="m 2869,4325 v -116 q -413,-40 -674,-164 -261,-123 -516,-376 -254,-253 -421,-564 -167,-311 -280,-739 450,309 903,309 435,0 753,-350 319,-350 319,-900 0,-531 -322,-969 -387,-531 -1025,-531 -434,0 -737,288 -594,559 -594,1450 0,568 228,1080 228,513 651,910 424,397 811,534 388,138 723,138 z M 925,2138 q -56,-422 -56,-682 0,-300 111,-652 111,-351 329,-557 160,-147 388,-147 272,0 486,256 214,257 214,732 0,534 -213,924 -212,391 -603,391 -118,0 -254,-50 -136,-50 -402,-215 z"
                 transform="scale(0.015625)" />
            </defs>
            <use
               xlink:href="#TimesNewRomanPSMT-36"
               id="use166"
               x="0"
               y="0"
               width="100%"
               height="100%" />
            <use
               xlink:href="#TimesNewRomanPSMT-30"
               x="50"
               id="use168"
               y="0"
               width="100%"
               height="100%" />
            <use
               xlink:href="#TimesNewRomanPSMT-25"
               x="100"
               id="use170"
               y="0"
               width="100%"
               height="100%" />
          </g>
        </g>
      </g>
      <g
         id="ytick_5">
        <g
           id="line2d_5">
          <path
             d="M 108,174.72 H 777.6"
             clip-path="url(#p0145e4ec75)"
             style="fill:none;stroke:#cccccc;stroke-width:0.8;stroke-linecap:round"
             id="path176" />
        </g>
        <g
           id="text_10">
          <!-- 80% -->
          <g
             style="fill:#262626"
             transform="matrix(0.18,0,0,-0.18,68.006563,180.96938)"
             id="g188">
            <defs
               id="defs180">
              <path
                 id="TimesNewRomanPSMT-38"
                 d="m 1228,2134 q -503,413 -649,663 -145,250 -145,519 0,412 319,710 319,299 847,299 513,0 825,-278 313,-278 313,-634 0,-238 -169,-485 -169,-247 -703,-581 550,-425 728,-669 237,-319 237,-672 0,-447 -341,-764 -340,-317 -893,-317 -603,0 -941,378 -268,303 -268,663 0,281 189,557 189,277 651,611 z m 491,335 q 375,337 475,532 100,196 100,443 0,328 -185,514 -184,186 -503,186 -318,0 -518,-185 -200,-184 -200,-431 0,-162 82,-325 83,-162 236,-309 z M 1375,2016 Q 1116,1797 991,1539 866,1281 866,981 866,578 1086,336 1306,94 1647,94 q 337,0 540,190 204,191 204,463 0,225 -119,403 -222,331 -897,866 z"
                 transform="scale(0.015625)" />
            </defs>
            <use
               xlink:href="#TimesNewRomanPSMT-38"
               id="use182"
               x="0"
               y="0"
               width="100%"
               height="100%" />
            <use
               xlink:href="#TimesNewRomanPSMT-30"
               x="50"
               id="use184"
               y="0"
               width="100%"
               height="100%" />
            <use
               xlink:href="#TimesNewRomanPSMT-25"
               x="100"
               id="use186"
               y="0"
               width="100%"
               height="100%" />
          </g>
        </g>
      </g>
      <g
         id="ytick_6">
        <g
           id="line2d_6">
          <path
             d="M 108,90.24 H 777.6"
             clip-path="url(#p0145e4ec75)"
             style="fill:none;stroke:#cccccc;stroke-width:0.8;stroke-linecap:round"
             id="path192" />
        </g>
        <g
           id="text_11">
          <!-- 100% -->
          <g
             style="fill:#262626"
             transform="matrix(0.18,0,0,-0.18,59.006563,96.489375)"
             id="g203">
            <use
               xlink:href="#TimesNewRomanPSMT-31"
               id="use195"
               x="0"
               y="0"
               width="100%"
               height="100%" />
            <use
               xlink:href="#TimesNewRomanPSMT-30"
               x="50"
               id="use197"
               y="0"
               width="100%"
               height="100%" />
            <use
               xlink:href="#TimesNewRomanPSMT-30"
               x="100"
               id="use199"
               y="0"
               width="100%"
               height="100%" />
            <use
               xlink:href="#TimesNewRomanPSMT-25"
               x="150"
               id="use201"
               y="0"
               width="100%"
               height="100%" />
          </g>
        </g>
      </g>
      <g
         id="text_12">
        <!-- $R_\mathrm{f}$ / $R_\mathrm{r}$ -->
        <g
           style="fill:#262626"
           transform="matrix(0,-0.27,-0.27,0,49.231094,325.44)"
           id="g227">
          <defs
             id="defs211">
            <path
               id="STIXGeneral-Italic-52"
               d="m 845,4179 h 1613 q 620,0 962,-243 343,-243 343,-659 0,-499 -422,-819 -250,-192 -839,-327 L 3072,627 Q 3181,333 3299,217 3418,102 3629,102 V 0 h -941 l -787,2074 -423,32 -352,-1300 q -83,-294 -83,-403 0,-147 83,-211 84,-64 346,-90 V 0 H -83 v 102 q 256,32 361,141 106,109 183,403 l 761,2759 q 77,294 77,403 0,115 -89,179 -77,51 -365,90 z M 1958,3795 1555,2342 q 199,-32 327,-32 569,0 889,256 320,256 320,704 0,333 -199,525 -198,192 -569,192 -313,0 -365,-192 z"
               transform="scale(0.015625)" />
            <path
               id="STIXGeneral-Regular-66"
               d="m 134,2880 h 525 q 7,384 51,598 45,215 173,432 269,461 903,461 288,0 476,-112 189,-112 189,-285 0,-108 -77,-185 -76,-77 -192,-77 -153,0 -288,230 -153,250 -339,250 -358,0 -358,-570 v -742 h 781 V 2675 H 1197 V 666 q 0,-359 102,-458 103,-99 493,-112 V 0 H 128 v 96 q 346,19 438,118 93,100 93,452 V 2675 H 134 Z"
               transform="scale(0.015625)" />
            <path
               id="TimesNewRomanPSMT-2f"
               d="M 1794,4444 259,-88 H 9 l 1535,4532 z"
               transform="scale(0.015625)" />
            <path
               id="STIXGeneral-Regular-72"
               d="m 1024,2931 v -589 q 243,346 406,474 164,128 362,128 166,0 259,-90 93,-89 93,-249 0,-135 -67,-212 -67,-76 -183,-76 -121,0 -256,128 -102,96 -166,96 -134,0 -291,-186 -157,-185 -157,-339 V 576 q 0,-275 109,-371 109,-96 435,-109 V 0 H 32 v 96 q 307,58 380,128 74,70 74,314 v 1600 q 0,211 -48,297 -48,87 -169,87 -103,0 -224,-26 v 102 q 403,128 947,346 z"
               transform="scale(0.015625)" />
          </defs>
          <use
             xlink:href="#STIXGeneral-Italic-52"
             transform="translate(0,0.5625)"
             id="use213"
             x="0"
             y="0"
             width="100%"
             height="100%" />
          <use
             xlink:href="#STIXGeneral-Regular-66"
             transform="matrix(0.7,0,0,0.7,61.099991,-12.665625)"
             id="use215"
             x="0"
             y="0"
             width="100%"
             height="100%" />
          <use
             xlink:href="#TimesNewRomanPSMT-20"
             transform="translate(88.819357,0.5625)"
             id="use217"
             x="0"
             y="0"
             width="100%"
             height="100%" />
          <use
             xlink:href="#TimesNewRomanPSMT-2f"
             transform="translate(113.81936,0.5625)"
             id="use219"
             x="0"
             y="0"
             width="100%"
             height="100%" />
          <use
             xlink:href="#TimesNewRomanPSMT-20"
             transform="translate(141.60256,0.5625)"
             id="use221"
             x="0"
             y="0"
             width="100%"
             height="100%" />
          <use
             xlink:href="#STIXGeneral-Italic-52"
             transform="translate(166.60256,0.5625)"
             id="use223"
             x="0"
             y="0"
             width="100%"
             height="100%" />
          <use
             xlink:href="#STIXGeneral-Regular-72"
             transform="matrix(0.7,0,0,0.7,227.70255,-12.665625)"
             id="use225"
             x="0"
             y="0"
             width="100%"
             height="100%" />
        </g>
      </g>
    </g>
    <g
       id="patch_3">
      <path
         d="M 124.74,512.64 H 191.7 V 219.31337 h -66.96 z"
         clip-path="url(#p0145e4ec75)"
         style="fill:#3274a1;stroke:#ffffff;stroke-linejoin:miter"
         id="path231" />
    </g>
    <g
       id="patch_4">
      <path
         d="M 292.14,512.64 H 359.1 V 248.82103 h -66.96 z"
         clip-path="url(#p0145e4ec75)"
         style="fill:#3274a1;stroke:#ffffff;stroke-linejoin:miter"
         id="path234" />
    </g>
    <g
       id="patch_5">
      <path
         d="M 459.54,512.64 H 526.5 V 192.4608 h -66.96 z"
         clip-path="url(#p0145e4ec75)"
         style="fill:#3274a1;stroke:#ffffff;stroke-linejoin:miter"
         id="path237" />
    </g>
    <g
       id="patch_6">
      <path
         d="M 626.94,512.64 H 693.9 V 202.53806 h -66.96 z"
         clip-path="url(#p0145e4ec75)"
         style="fill:#3274a1;stroke:#ffffff;stroke-linejoin:miter"
         id="path240" />
    </g>
    <g
       id="patch_7">
      <path
         d="m 191.7,512.64 h 66.96 V 113.53234 H 191.7 Z"
         clip-path="url(#p0145e4ec75)"
         style="fill:#e1812c;stroke:#ffffff;stroke-linejoin:miter"
         id="path243" />
    </g>
    <g
       id="patch_8">
      <path
         d="m 359.1,512.64 h 66.96 V 110.5152 H 359.1 Z"
         clip-path="url(#p0145e4ec75)"
         style="fill:#e1812c;stroke:#ffffff;stroke-linejoin:miter"
         id="path246" />
    </g>
    <g
       id="patch_9">
      <path
         d="m 526.5,512.64 h 66.96 V 99.1104 H 526.5 Z"
         clip-path="url(#p0145e4ec75)"
         style="fill:#e1812c;stroke:#ffffff;stroke-linejoin:miter"
         id="path249" />
    </g>
    <g
       id="patch_10">
      <path
         d="m 693.9,512.64 h 66.96 V 100.49829 H 693.9 Z"
         clip-path="url(#p0145e4ec75)"
         style="fill:#e1812c;stroke:#ffffff;stroke-linejoin:miter"
         id="path252" />
    </g>
    <g
       id="line2d_7">
      <path
         d="m 158.22,241.15749 v -45.319"
         clip-path="url(#p0145e4ec75)"
         style="fill:none;stroke:#424242;stroke-width:1.5;stroke-linecap:round"
         id="path255" />
    </g>
    <g
       id="line2d_8">
      <path
         d="m 150.687,241.15749 h 15.066"
         clip-path="url(#p0145e4ec75)"
         style="fill:none;stroke:#424242;stroke-width:1.5;stroke-linecap:round"
         id="path258" />
    </g>
    <g
       id="line2d_9">
      <path
         d="m 150.687,195.83849 h 15.066"
         clip-path="url(#p0145e4ec75)"
         style="fill:none;stroke:#424242;stroke-width:1.5;stroke-linecap:round"
         id="path261" />
    </g>
    <g
       id="line2d_10">
      <path
         d="M 325.62,281.28549 V 213.97906"
         clip-path="url(#p0145e4ec75)"
         style="fill:none;stroke:#424242;stroke-width:1.5;stroke-linecap:round"
         id="path264" />
    </g>
    <g
       id="line2d_11">
      <path
         d="m 318.087,281.28549 h 15.066"
         clip-path="url(#p0145e4ec75)"
         style="fill:none;stroke:#424242;stroke-width:1.5;stroke-linecap:round"
         id="path267" />
    </g>
    <g
       id="line2d_12">
      <path
         d="m 318.087,213.97906 h 15.066"
         clip-path="url(#p0145e4ec75)"
         style="fill:none;stroke:#424242;stroke-width:1.5;stroke-linecap:round"
         id="path270" />
    </g>
    <g
       id="line2d_13">
      <path
         d="M 493.02,204.288 V 180.6336"
         clip-path="url(#p0145e4ec75)"
         style="fill:none;stroke:#424242;stroke-width:1.5;stroke-linecap:round"
         id="path273" />
    </g>
    <g
       id="line2d_14">
      <path
         d="m 485.487,204.288 h 15.066"
         clip-path="url(#p0145e4ec75)"
         style="fill:none;stroke:#424242;stroke-width:1.5;stroke-linecap:round"
         id="path276" />
    </g>
    <g
       id="line2d_15">
      <path
         d="m 485.487,180.6336 h 15.066"
         clip-path="url(#p0145e4ec75)"
         style="fill:none;stroke:#424242;stroke-width:1.5;stroke-linecap:round"
         id="path279" />
    </g>
    <g
       id="line2d_16">
      <path
         d="M 660.42,224.26149 V 180.81463"
         clip-path="url(#p0145e4ec75)"
         style="fill:none;stroke:#424242;stroke-width:1.5;stroke-linecap:round"
         id="path282" />
    </g>
    <g
       id="line2d_17">
      <path
         d="m 652.887,224.26149 h 15.066"
         clip-path="url(#p0145e4ec75)"
         style="fill:none;stroke:#424242;stroke-width:1.5;stroke-linecap:round"
         id="path285" />
    </g>
    <g
       id="line2d_18">
      <path
         d="m 652.887,180.81463 h 15.066"
         clip-path="url(#p0145e4ec75)"
         style="fill:none;stroke:#424242;stroke-width:1.5;stroke-linecap:round"
         id="path288" />
    </g>
    <g
       id="line2d_19">
      <path
         d="M 225.18,133.8181 V 97.179429"
         clip-path="url(#p0145e4ec75)"
         style="fill:none;stroke:#424242;stroke-width:1.5;stroke-linecap:round"
         id="path291" />
    </g>
    <g
       id="line2d_20">
      <path
         d="m 217.647,133.8181 h 15.066"
         clip-path="url(#p0145e4ec75)"
         style="fill:none;stroke:#424242;stroke-width:1.5;stroke-linecap:round"
         id="path294" />
    </g>
    <g
       id="line2d_21">
      <path
         d="m 217.647,97.179429 h 15.066"
         clip-path="url(#p0145e4ec75)"
         style="fill:none;stroke:#424242;stroke-width:1.5;stroke-linecap:round"
         id="path297" />
    </g>
    <g
       id="line2d_22">
      <path
         d="M 392.58,138.53842 V 90.24"
         clip-path="url(#p0145e4ec75)"
         style="fill:none;stroke:#424242;stroke-width:1.5;stroke-linecap:round"
         id="path300" />
    </g>
    <g
       id="line2d_23">
      <path
         d="m 385.047,138.53842 h 15.066"
         clip-path="url(#p0145e4ec75)"
         style="fill:none;stroke:#424242;stroke-width:1.5;stroke-linecap:round"
         id="path303" />
    </g>
    <g
       id="line2d_24">
      <path
         d="m 385.047,90.24 h 15.066"
         clip-path="url(#p0145e4ec75)"
         style="fill:none;stroke:#424242;stroke-width:1.5;stroke-linecap:round"
         id="path306" />
    </g>
    <g
       id="line2d_25">
      <path
         d="M 559.98,107.5584 V 92.533029"
         clip-path="url(#p0145e4ec75)"
         style="fill:none;stroke:#424242;stroke-width:1.5;stroke-linecap:round"
         id="path309" />
    </g>
    <g
       id="line2d_26">
      <path
         d="m 552.447,107.5584 h 15.066"
         clip-path="url(#p0145e4ec75)"
         style="fill:none;stroke:#424242;stroke-width:1.5;stroke-linecap:round"
         id="path312" />
    </g>
    <g
       id="line2d_27">
      <path
         d="m 552.447,92.533029 h 15.066"
         clip-path="url(#p0145e4ec75)"
         style="fill:none;stroke:#424242;stroke-width:1.5;stroke-linecap:round"
         id="path315" />
    </g>
    <g
       id="line2d_28">
      <path
         d="M 727.38,116.54949 V 90.24"
         clip-path="url(#p0145e4ec75)"
         style="fill:none;stroke:#424242;stroke-width:1.5;stroke-linecap:round"
         id="path318" />
    </g>
    <g
       id="line2d_29">
      <path
         d="m 719.847,116.54949 h 15.066"
         clip-path="url(#p0145e4ec75)"
         style="fill:none;stroke:#424242;stroke-width:1.5;stroke-linecap:round"
         id="path321" />
    </g>
    <g
       id="line2d_30">
      <path
         d="m 719.847,90.24 h 15.066"
         clip-path="url(#p0145e4ec75)"
         style="fill:none;stroke:#424242;stroke-width:1.5;stroke-linecap:round"
         id="path324" />
    </g>
    <g
       id="patch_11">
      <path
         d="M 108,512.64 V 69.12"
         style="fill:none;stroke:#cccccc;stroke-width:2;stroke-linecap:square;stroke-linejoin:miter"
         id="path327" />
    </g>
    <g
       id="patch_12">
      <path
         d="M 777.6,512.64 V 69.12"
         style="fill:none;stroke:#cccccc;stroke-width:0.8;stroke-linecap:square;stroke-linejoin:miter"
         id="path330" />
    </g>
    <g
       id="patch_13">
      <path
         d="M 108,512.64 H 777.6"
         style="fill:none;stroke:#cccccc;stroke-width:2;stroke-linecap:square;stroke-linejoin:miter"
         id="path333" />
    </g>
    <g
       id="patch_14">
      <path
         d="M 108,69.12 H 777.6"
         style="fill:none;stroke:#cccccc;stroke-width:0.8;stroke-linecap:square;stroke-linejoin:miter"
         id="path336" />
    </g>
    <g
       id="legend_1">
      <g
         id="patch_15">
        <path
           d="m 118.5,124.52859 h 61.95 q 3,0 3,-3 V 79.62 q 0,-3 -3,-3 H 118.5 q -3,0 -3,3 v 41.90859 q 0,3 3,3 z"
           style="opacity:0.8;fill:#ffffff;stroke:#cccccc;stroke-linejoin:miter"
           id="path339" />
      </g>
      <g
         id="line2d_31">
        <path
           d="m 121.5,87.87 h 15 15"
           style="fill:none;stroke:#1f77b4;stroke-width:5;stroke-linecap:round"
           id="path342" />
      </g>
      <g
         id="text_13">
        <!-- $R_f$ -->
        <g
           style="fill:#262626"
           transform="matrix(0.15,0,0,-0.15,163.5,93.12)"
           id="g352">
          <defs
             id="defs346">
            <path
               id="STIXGeneral-Italic-66"
               d="m 262,2739 h 596 q 249,807 460,1107 346,493 845,493 237,0 394,-112 157,-112 157,-285 0,-108 -80,-192 -80,-83 -189,-83 -90,0 -164,70 -73,71 -73,180 0,64 32,121 32,58 32,77 0,83 -141,83 -269,0 -455,-349 -185,-348 -326,-1110 h 685 l -38,-205 H 1306 L 845,486 q -410,-1811 -1280,-1811 -218,0 -362,112 -144,112 -144,279 0,108 71,188 70,80 172,80 109,0 177,-67 67,-67 67,-169 0,-45 -29,-99 -29,-55 -29,-87 0,-102 128,-102 397,0 621,1036 L 800,2534 H 218 Z"
               transform="scale(0.015625)" />
          </defs>
          <use
             xlink:href="#STIXGeneral-Italic-52"
             transform="translate(0,0.703125)"
             id="use348"
             x="0"
             y="0"
             width="100%"
             height="100%" />
          <use
             xlink:href="#STIXGeneral-Italic-66"
             transform="matrix(0.7,0,0,0.7,61.099991,-12.525)"
             id="use350"
             x="0"
             y="0"
             width="100%"
             height="100%" />
        </g>
      </g>
      <g
         id="line2d_32">
        <path
           d="m 121.5,110.07 h 15 15"
           style="fill:none;stroke:#ff7f0e;stroke-width:5;stroke-linecap:round"
           id="path355" />
      </g>
      <g
         id="text_14">
        <!-- $R_r$ -->
        <g
           style="fill:#262626"
           transform="matrix(0.15,0,0,-0.15,163.5,115.32)"
           id="g365">
          <defs
             id="defs359">
            <path
               id="STIXGeneral-Italic-72"
               d="m 1126,1427 103,224 q 217,480 601,883 276,288 506,288 134,0 217,-90 84,-89 84,-236 0,-147 -80,-247 -80,-99 -221,-99 -122,0 -224,167 -51,89 -102,89 -173,0 -525,-601 Q 1267,1434 1136,1104 1005,774 774,0 H 288 l 518,1869 q 103,377 103,525 0,166 -243,166 -52,0 -199,-19 v 109 l 992,172 19,-12 z"
               transform="scale(0.015625)" />
          </defs>
          <use
             xlink:href="#STIXGeneral-Italic-52"
             transform="translate(0,0.703125)"
             id="use361"
             x="0"
             y="0"
             width="100%"
             height="100%" />
          <use
             xlink:href="#STIXGeneral-Italic-72"
             transform="matrix(0.7,0,0,0.7,61.099991,-12.525)"
             id="use363"
             x="0"
             y="0"
             width="100%"
             height="100%" />
        </g>
      </g>
    </g>
  </g>
  <defs
     id="defs374">
    <clipPath
       id="p0145e4ec75">
      <rect
         x="108"
         y="69.12"
         width="669.6"
         height="443.52"
         id="rect371" />
    </clipPath>
  </defs>
</svg>
