<?xml version="1.0" encoding="UTF-8" standalone="no"?>
<svg
   width="864pt"
   height="576pt"
   viewBox="0 0 864 576"
   version="1.1"
   id="svg424"
   sodipodi:docname="Recovery Temperature vs Beta.svg"
   inkscape:version="1.1.1 (3bf5ae0d25, 2021-09-20)"
   xmlns:inkscape="http://www.inkscape.org/namespaces/inkscape"
   xmlns:sodipodi="http://sodipodi.sourceforge.net/DTD/sodipodi-0.dtd"
   xmlns:xlink="http://www.w3.org/1999/xlink"
   xmlns="http://www.w3.org/2000/svg"
   xmlns:svg="http://www.w3.org/2000/svg"
   xmlns:rdf="http://www.w3.org/1999/02/22-rdf-syntax-ns#"
   xmlns:cc="http://creativecommons.org/ns#"
   xmlns:dc="http://purl.org/dc/elements/1.1/">
  <sodipodi:namedview
     id="namedview426"
     pagecolor="#ffffff"
     bordercolor="#666666"
     borderopacity="1.0"
     inkscape:pageshadow="2"
     inkscape:pageopacity="0.0"
     inkscape:pagecheckerboard="0"
     inkscape:document-units="pt"
     showgrid="false"
     inkscape:zoom="0.93619792"
     inkscape:cx="576.26704"
     inkscape:cy="384"
     inkscape:window-width="1920"
     inkscape:window-height="1017"
     inkscape:window-x="-8"
     inkscape:window-y="-8"
     inkscape:window-maximized="1"
     inkscape:current-layer="svg424" />
  <metadata
     id="metadata2">
    <rdf:RDF>
      <cc:Work>
        <dc:type
           rdf:resource="http://purl.org/dc/dcmitype/StillImage" />
        <dc:date>2023-11-11T11:32:06.649519</dc:date>
        <dc:format>image/svg+xml</dc:format>
        <dc:creator>
          <cc:Agent>
            <dc:title>Matplotlib v3.7.2, https://matplotlib.org/</dc:title>
          </cc:Agent>
        </dc:creator>
      </cc:Work>
    </rdf:RDF>
  </metadata>
  <defs
     id="defs6">
    <style
       type="text/css"
       id="style4">*{stroke-linejoin: round; stroke-linecap: butt}</style>
  </defs>
  <g
     id="axes_1">
    <g
       id="patch_2">
      <path
         d="M 108,512.64 H 777.6 V 69.12 H 108 Z"
         style="fill:#ffffff"
         id="path11" />
    </g>
    <g
       id="matplotlib.axis_1">
      <g
         id="xtick_1">
        <g
           id="line2d_1">
          <path
             d="M 133.75385,512.64 V 69.12"
             clip-path="url(#pe4983e8567)"
             style="fill:none;stroke:#cccccc;stroke-width:0.8;stroke-linecap:round"
             id="path14" />
        </g>
        <g
           id="text_1">
          <!-- 120 °C -->
          <g
             style="fill:#262626"
             transform="matrix(0.18,0,0,-0.18,108.40197,532.13875)"
             id="g37">
            <defs
               id="defs23">
              <path
                 id="TimesNewRomanPSMT-31"
                 d="m 750,3822 1031,503 h 103 V 747 q 0,-356 30,-444 30,-87 123,-134 94,-47 382,-53 V 0 H 825 v 116 q 300,6 387,51 88,46 122,122 35,77 35,458 v 2287 q 0,463 -31,594 -22,100 -80,147 -58,47 -139,47 -116,0 -322,-97 z"
                 transform="scale(0.015625)" />
              <path
                 id="TimesNewRomanPSMT-32"
                 d="M 2934,816 2638,0 H 138 v 116 q 1103,1006 1553,1643 450,638 450,1166 0,403 -247,662 -247,260 -591,260 -312,0 -561,-183 Q 494,3481 375,3128 H 259 q 79,578 402,887 323,310 808,310 515,0 860,-331 346,-331 346,-781 0,-322 -150,-644 Q 2294,2063 1775,1497 997,647 803,472 h 1106 q 338,0 474,25 136,25 245,101 110,77 191,218 z"
                 transform="scale(0.015625)" />
              <path
                 id="TimesNewRomanPSMT-30"
                 d="m 231,2094 q 0,725 219,1248 219,524 581,780 282,203 582,203 487,0 875,-497 484,-615 484,-1669 0,-737 -213,-1253 Q 2547,391 2217,158 1888,-75 1581,-75 975,-75 572,641 231,1244 231,2094 Z m 613,-78 q 0,-875 215,-1428 179,-466 532,-466 168,0 349,151 182,152 276,508 143,538 143,1516 0,725 -150,1209 -112,360 -290,510 -128,103 -310,103 -212,0 -378,-191 -225,-259 -306,-816 -81,-556 -81,-1096 z"
                 transform="scale(0.015625)" />
              <path
                 id="TimesNewRomanPSMT-20"
                 transform="scale(0.015625)"
                 d="" />
              <path
                 id="TimesNewRomanPSMT-b0"
                 d="m 1266,4331 q 403,0 682,-281 280,-281 280,-681 0,-397 -281,-679 -281,-281 -681,-281 -397,0 -679,281 -281,282 -281,679 0,400 280,681 280,281 680,281 z m 0,-262 q -291,0 -494,-203 -203,-203 -203,-494 0,-288 203,-493 203,-204 494,-204 287,0 492,204 205,205 205,493 0,291 -204,494 -203,203 -493,203 z"
                 transform="scale(0.015625)" />
              <path
                 id="TimesNewRomanPSMT-43"
                 d="m 3853,4334 97,-1440 h -97 q -194,647 -553,931 -359,284 -862,284 -422,0 -763,-214 -341,-214 -536,-683 -195,-468 -195,-1165 0,-575 184,-997 185,-422 555,-647 370,-225 845,-225 413,0 728,176 316,177 694,702 l 97,-62 Q 3728,428 3303,165 2878,-97 2294,-97 1241,-97 663,684 231,1266 231,2053 q 0,635 284,1166 285,531 783,823 499,292 1090,292 459,0 906,-225 131,-68 187,-68 85,0 147,59 81,84 116,234 z"
                 transform="scale(0.015625)" />
            </defs>
            <use
               xlink:href="#TimesNewRomanPSMT-31"
               id="use25"
               x="0"
               y="0"
               width="100%"
               height="100%" />
            <use
               xlink:href="#TimesNewRomanPSMT-32"
               x="50"
               id="use27"
               y="0"
               width="100%"
               height="100%" />
            <use
               xlink:href="#TimesNewRomanPSMT-30"
               x="100"
               id="use29"
               y="0"
               width="100%"
               height="100%" />
            <use
               xlink:href="#TimesNewRomanPSMT-20"
               x="150"
               id="use31"
               y="0"
               width="100%"
               height="100%" />
            <use
               xlink:href="#TimesNewRomanPSMT-b0"
               x="175"
               id="use33"
               y="0"
               width="100%"
               height="100%" />
            <use
               xlink:href="#TimesNewRomanPSMT-43"
               x="214.99023"
               id="use35"
               y="0"
               width="100%"
               height="100%" />
          </g>
        </g>
      </g>
      <g
         id="xtick_2">
        <g
           id="line2d_2">
          <path
             d="M 236.76923,512.64 V 69.12"
             clip-path="url(#pe4983e8567)"
             style="fill:none;stroke:#cccccc;stroke-width:0.8;stroke-linecap:round"
             id="path41" />
        </g>
        <g
           id="text_2">
          <!-- 140 °C -->
          <g
             style="fill:#262626"
             transform="matrix(0.18,0,0,-0.18,211.41736,532.13875)"
             id="g59">
            <defs
               id="defs45">
              <path
                 id="TimesNewRomanPSMT-34"
                 d="M 2978,1563 V 1119 H 2409 V 0 H 1894 V 1119 H 100 v 400 l 1966,2806 h 343 V 1563 Z m -1084,0 V 3666 L 406,1563 Z"
                 transform="scale(0.015625)" />
            </defs>
            <use
               xlink:href="#TimesNewRomanPSMT-31"
               id="use47"
               x="0"
               y="0"
               width="100%"
               height="100%" />
            <use
               xlink:href="#TimesNewRomanPSMT-34"
               x="50"
               id="use49"
               y="0"
               width="100%"
               height="100%" />
            <use
               xlink:href="#TimesNewRomanPSMT-30"
               x="100"
               id="use51"
               y="0"
               width="100%"
               height="100%" />
            <use
               xlink:href="#TimesNewRomanPSMT-20"
               x="150"
               id="use53"
               y="0"
               width="100%"
               height="100%" />
            <use
               xlink:href="#TimesNewRomanPSMT-b0"
               x="175"
               id="use55"
               y="0"
               width="100%"
               height="100%" />
            <use
               xlink:href="#TimesNewRomanPSMT-43"
               x="214.99023"
               id="use57"
               y="0"
               width="100%"
               height="100%" />
          </g>
        </g>
      </g>
      <g
         id="xtick_3">
        <g
           id="line2d_3">
          <path
             d="M 339.78461,512.64 V 69.12"
             clip-path="url(#pe4983e8567)"
             style="fill:none;stroke:#cccccc;stroke-width:0.8;stroke-linecap:round"
             id="path63" />
        </g>
        <g
           id="text_3">
          <!-- 160 °C -->
          <g
             style="fill:#262626"
             transform="matrix(0.18,0,0,-0.18,314.43274,532.13875)"
             id="g81">
            <defs
               id="defs67">
              <path
                 id="TimesNewRomanPSMT-36"
                 d="m 2869,4325 v -116 q -413,-40 -674,-164 -261,-123 -516,-376 -254,-253 -421,-564 -167,-311 -280,-739 450,309 903,309 435,0 753,-350 319,-350 319,-900 0,-531 -322,-969 -387,-531 -1025,-531 -434,0 -737,288 -594,559 -594,1450 0,568 228,1080 228,513 651,910 424,397 811,534 388,138 723,138 z M 925,2138 q -56,-422 -56,-682 0,-300 111,-652 111,-351 329,-557 160,-147 388,-147 272,0 486,256 214,257 214,732 0,534 -213,924 -212,391 -603,391 -118,0 -254,-50 -136,-50 -402,-215 z"
                 transform="scale(0.015625)" />
            </defs>
            <use
               xlink:href="#TimesNewRomanPSMT-31"
               id="use69"
               x="0"
               y="0"
               width="100%"
               height="100%" />
            <use
               xlink:href="#TimesNewRomanPSMT-36"
               x="50"
               id="use71"
               y="0"
               width="100%"
               height="100%" />
            <use
               xlink:href="#TimesNewRomanPSMT-30"
               x="100"
               id="use73"
               y="0"
               width="100%"
               height="100%" />
            <use
               xlink:href="#TimesNewRomanPSMT-20"
               x="150"
               id="use75"
               y="0"
               width="100%"
               height="100%" />
            <use
               xlink:href="#TimesNewRomanPSMT-b0"
               x="175"
               id="use77"
               y="0"
               width="100%"
               height="100%" />
            <use
               xlink:href="#TimesNewRomanPSMT-43"
               x="214.99023"
               id="use79"
               y="0"
               width="100%"
               height="100%" />
          </g>
        </g>
      </g>
      <g
         id="xtick_4">
        <g
           id="line2d_4">
          <path
             d="M 442.8,512.64 V 69.12"
             clip-path="url(#pe4983e8567)"
             style="fill:none;stroke:#cccccc;stroke-width:0.8;stroke-linecap:round"
             id="path85" />
        </g>
        <g
           id="text_4">
          <!-- 180 °C -->
          <g
             style="fill:#262626"
             transform="matrix(0.18,0,0,-0.18,417.44812,532.13875)"
             id="g103">
            <defs
               id="defs89">
              <path
                 id="TimesNewRomanPSMT-38"
                 d="m 1228,2134 q -503,413 -649,663 -145,250 -145,519 0,412 319,710 319,299 847,299 513,0 825,-278 313,-278 313,-634 0,-238 -169,-485 -169,-247 -703,-581 550,-425 728,-669 237,-319 237,-672 0,-447 -341,-764 -340,-317 -893,-317 -603,0 -941,378 -268,303 -268,663 0,281 189,557 189,277 651,611 z m 491,335 q 375,337 475,532 100,196 100,443 0,328 -185,514 -184,186 -503,186 -318,0 -518,-185 -200,-184 -200,-431 0,-162 82,-325 83,-162 236,-309 z M 1375,2016 Q 1116,1797 991,1539 866,1281 866,981 866,578 1086,336 1306,94 1647,94 q 337,0 540,190 204,191 204,463 0,225 -119,403 -222,331 -897,866 z"
                 transform="scale(0.015625)" />
            </defs>
            <use
               xlink:href="#TimesNewRomanPSMT-31"
               id="use91"
               x="0"
               y="0"
               width="100%"
               height="100%" />
            <use
               xlink:href="#TimesNewRomanPSMT-38"
               x="50"
               id="use93"
               y="0"
               width="100%"
               height="100%" />
            <use
               xlink:href="#TimesNewRomanPSMT-30"
               x="100"
               id="use95"
               y="0"
               width="100%"
               height="100%" />
            <use
               xlink:href="#TimesNewRomanPSMT-20"
               x="150"
               id="use97"
               y="0"
               width="100%"
               height="100%" />
            <use
               xlink:href="#TimesNewRomanPSMT-b0"
               x="175"
               id="use99"
               y="0"
               width="100%"
               height="100%" />
            <use
               xlink:href="#TimesNewRomanPSMT-43"
               x="214.99023"
               id="use101"
               y="0"
               width="100%"
               height="100%" />
          </g>
        </g>
      </g>
      <g
         id="xtick_5">
        <g
           id="line2d_5">
          <path
             d="M 545.81538,512.64 V 69.12"
             clip-path="url(#pe4983e8567)"
             style="fill:none;stroke:#cccccc;stroke-width:0.8;stroke-linecap:round"
             id="path107" />
        </g>
        <g
           id="text_5">
          <!-- 200 °C -->
          <g
             style="fill:#262626"
             transform="matrix(0.18,0,0,-0.18,520.46351,532.13875)"
             id="g122">
            <use
               xlink:href="#TimesNewRomanPSMT-32"
               id="use110"
               x="0"
               y="0"
               width="100%"
               height="100%" />
            <use
               xlink:href="#TimesNewRomanPSMT-30"
               x="50"
               id="use112"
               y="0"
               width="100%"
               height="100%" />
            <use
               xlink:href="#TimesNewRomanPSMT-30"
               x="100"
               id="use114"
               y="0"
               width="100%"
               height="100%" />
            <use
               xlink:href="#TimesNewRomanPSMT-20"
               x="150"
               id="use116"
               y="0"
               width="100%"
               height="100%" />
            <use
               xlink:href="#TimesNewRomanPSMT-b0"
               x="175"
               id="use118"
               y="0"
               width="100%"
               height="100%" />
            <use
               xlink:href="#TimesNewRomanPSMT-43"
               x="214.99023"
               id="use120"
               y="0"
               width="100%"
               height="100%" />
          </g>
        </g>
      </g>
      <g
         id="xtick_6">
        <g
           id="line2d_6">
          <path
             d="M 648.83077,512.64 V 69.12"
             clip-path="url(#pe4983e8567)"
             style="fill:none;stroke:#cccccc;stroke-width:0.8;stroke-linecap:round"
             id="path126" />
        </g>
        <g
           id="text_6">
          <!-- 220 °C -->
          <g
             style="fill:#262626"
             transform="matrix(0.18,0,0,-0.18,623.47889,532.13875)"
             id="g141">
            <use
               xlink:href="#TimesNewRomanPSMT-32"
               id="use129"
               x="0"
               y="0"
               width="100%"
               height="100%" />
            <use
               xlink:href="#TimesNewRomanPSMT-32"
               x="50"
               id="use131"
               y="0"
               width="100%"
               height="100%" />
            <use
               xlink:href="#TimesNewRomanPSMT-30"
               x="100"
               id="use133"
               y="0"
               width="100%"
               height="100%" />
            <use
               xlink:href="#TimesNewRomanPSMT-20"
               x="150"
               id="use135"
               y="0"
               width="100%"
               height="100%" />
            <use
               xlink:href="#TimesNewRomanPSMT-b0"
               x="175"
               id="use137"
               y="0"
               width="100%"
               height="100%" />
            <use
               xlink:href="#TimesNewRomanPSMT-43"
               x="214.99023"
               id="use139"
               y="0"
               width="100%"
               height="100%" />
          </g>
        </g>
      </g>
      <g
         id="xtick_7">
        <g
           id="line2d_7">
          <path
             d="M 751.84615,512.64 V 69.12"
             clip-path="url(#pe4983e8567)"
             style="fill:none;stroke:#cccccc;stroke-width:0.8;stroke-linecap:round"
             id="path145" />
        </g>
        <g
           id="text_7">
          <!-- 240 °C -->
          <g
             style="fill:#262626"
             transform="matrix(0.18,0,0,-0.18,726.49428,532.13875)"
             id="g160">
            <use
               xlink:href="#TimesNewRomanPSMT-32"
               id="use148"
               x="0"
               y="0"
               width="100%"
               height="100%" />
            <use
               xlink:href="#TimesNewRomanPSMT-34"
               x="50"
               id="use150"
               y="0"
               width="100%"
               height="100%" />
            <use
               xlink:href="#TimesNewRomanPSMT-30"
               x="100"
               id="use152"
               y="0"
               width="100%"
               height="100%" />
            <use
               xlink:href="#TimesNewRomanPSMT-20"
               x="150"
               id="use154"
               y="0"
               width="100%"
               height="100%" />
            <use
               xlink:href="#TimesNewRomanPSMT-b0"
               x="175"
               id="use156"
               y="0"
               width="100%"
               height="100%" />
            <use
               xlink:href="#TimesNewRomanPSMT-43"
               x="214.99023"
               id="use158"
               y="0"
               width="100%"
               height="100%" />
          </g>
        </g>
      </g>
      <g
         id="text_8">
        <!-- $T_\mathrm{set(r)}$ -->
        <g
           style="fill:#262626"
           transform="matrix(0.27,0,0,-0.27,414.72,557.80906)"
           id="g187">
          <defs
             id="defs171">
            <path
               id="STIXGeneral-Italic-54"
               d="m 4051,4179 -281,-1049 -109,12 q 19,160 19,295 0,518 -646,518 H 2662 L 1786,819 q -90,-313 -90,-422 0,-147 70,-202 71,-54 269,-73 l 224,-20 V 0 H 416 v 102 q 333,32 473,128 141,96 212,352 l 915,3373 Q 1254,3955 988,3817 723,3680 493,3162 l -115,25 268,992 z"
               transform="scale(0.015625)" />
            <path
               id="STIXGeneral-Regular-73"
               d="m 998,1926 666,-403 q 320,-192 441,-359 122,-166 122,-428 0,-320 -266,-560 Q 1696,-64 1331,-64 1030,-64 864,-6 691,51 570,51 461,51 416,-26 H 333 V 979 H 435 Q 538,512 730,294 922,77 1248,77 q 237,0 384,134 147,135 147,339 0,295 -339,480 l -346,192 q -768,429 -768,928 0,372 240,580 240,208 644,208 281,0 428,-71 116,-51 180,-51 44,0 102,64 h 70 l 32,-870 h -96 q -108,435 -272,611 -163,176 -451,176 -217,0 -349,-109 -131,-109 -131,-326 0,-109 73,-234 74,-125 202,-202 z"
               transform="scale(0.015625)" />
            <path
               id="STIXGeneral-Regular-65"
               d="m 2611,1050 103,-45 Q 2330,-64 1376,-64 813,-64 486,329 160,723 160,1389 q 0,685 365,1120 365,435 960,435 576,0 889,-442 186,-256 218,-729 H 621 q 25,-403 79,-615 55,-211 215,-428 269,-352 711,-352 313,0 527,153 215,154 458,519 z M 634,1978 h 1305 q -57,403 -189,569 -131,167 -438,167 -269,0 -448,-189 -179,-189 -230,-547 z"
               transform="scale(0.015625)" />
            <path
               id="STIXGeneral-Regular-74"
               d="m 1702,493 84,-71 Q 1478,-64 1011,-64 448,-64 448,749 V 2675 H 109 q -26,19 -26,45 0,51 109,122 243,140 621,684 13,20 61,80 48,61 67,100 45,0 45,-84 v -742 h 646 V 2675 H 986 V 845 q 0,-307 76,-442 77,-134 256,-134 192,0 384,224 z"
               transform="scale(0.015625)" />
            <path
               id="STIXGeneral-Regular-28"
               d="m 1946,-1030 -77,-103 Q 1126,-710 716,32 307,774 307,1613 q 0,1773 1581,2713 l 58,-102 Q 1293,3667 1075,3126 858,2586 858,1632 858,685 1082,96 q 224,-589 864,-1126 z"
               transform="scale(0.015625)" />
            <path
               id="STIXGeneral-Regular-72"
               d="m 1024,2931 v -589 q 243,346 406,474 164,128 362,128 166,0 259,-90 93,-89 93,-249 0,-135 -67,-212 -67,-76 -183,-76 -121,0 -256,128 -102,96 -166,96 -134,0 -291,-186 -157,-185 -157,-339 V 576 q 0,-275 109,-371 109,-96 435,-109 V 0 H 32 v 96 q 307,58 380,128 74,70 74,314 v 1600 q 0,211 -48,297 -48,87 -169,87 -103,0 -224,-26 v 102 q 403,128 947,346 z"
               transform="scale(0.015625)" />
            <path
               id="STIXGeneral-Regular-29"
               d="m 186,4224 76,102 q 730,-435 1146,-1178 416,-742 416,-1567 0,-1747 -1581,-2714 l -57,103 q 659,544 873,1084 215,541 215,1508 0,972 -215,1558 -214,586 -873,1104 z"
               transform="scale(0.015625)" />
          </defs>
          <use
             xlink:href="#STIXGeneral-Italic-54"
             transform="translate(0,0.703125)"
             id="use173"
             x="0"
             y="0"
             width="100%"
             height="100%" />
          <use
             xlink:href="#STIXGeneral-Regular-73"
             transform="matrix(0.7,0,0,0.7,55.599991,-12.525)"
             id="use175"
             x="0"
             y="0"
             width="100%"
             height="100%" />
          <use
             xlink:href="#STIXGeneral-Regular-65"
             transform="matrix(0.7,0,0,0.7,82.829987,-12.525)"
             id="use177"
             x="0"
             y="0"
             width="100%"
             height="100%" />
          <use
             xlink:href="#STIXGeneral-Regular-74"
             transform="matrix(0.7,0,0,0.7,113.90998,-12.525)"
             id="use179"
             x="0"
             y="0"
             width="100%"
             height="100%" />
          <use
             xlink:href="#STIXGeneral-Regular-28"
             transform="matrix(0.7,0,0,0.7,133.36997,-12.525)"
             id="use181"
             x="0"
             y="0"
             width="100%"
             height="100%" />
          <use
             xlink:href="#STIXGeneral-Regular-72"
             transform="matrix(0.7,0,0,0.7,156.67996,-12.525)"
             id="use183"
             x="0"
             y="0"
             width="100%"
             height="100%" />
          <use
             xlink:href="#STIXGeneral-Regular-29"
             transform="matrix(0.7,0,0,0.7,179.98996,-12.525)"
             id="use185"
             x="0"
             y="0"
             width="100%"
             height="100%" />
        </g>
      </g>
    </g>
    <g
       id="matplotlib.axis_2">
      <g
         id="ytick_1">
        <g
           id="line2d_8">
          <path
             d="M 108,494.8992 H 777.6"
             clip-path="url(#pe4983e8567)"
             style="fill:none;stroke:#cccccc;stroke-width:0.8;stroke-linecap:round"
             id="path191" />
        </g>
        <g
           id="text_9">
          <!-- 0% -->
          <g
             style="fill:#262626"
             transform="matrix(0.18,0,0,-0.18,77.006563,501.14857)"
             id="g201">
            <defs
               id="defs195">
              <path
                 id="TimesNewRomanPSMT-25"
                 d="M 4350,4334 1263,-175 H 984 l 3088,4509 z m -3212,0 q 421,0 654,-350 233,-350 233,-803 0,-543 -263,-840 -262,-297 -631,-297 -247,0 -453,136 -206,136 -330,404 -123,269 -123,597 0,328 125,605 125,277 342,412 217,136 446,136 z m -10,-175 q -159,0 -283,-188 -123,-187 -123,-787 0,-434 69,-662 53,-172 165,-266 66,-56 163,-56 150,0 256,163 156,240 156,803 0,593 -153,834 -100,159 -250,159 z M 4206,2103 q 222,0 442,-141 221,-140 341,-409 120,-269 120,-590 0,-554 -266,-846 -265,-292 -627,-292 -228,0 -443,141 -214,140 -337,401 -123,261 -123,596 0,328 123,599 123,272 337,406 215,135 433,135 z m 3,-165 q -150,0 -259,-169 -141,-219 -141,-828 0,-560 144,-782 106,-159 256,-159 144,0 257,172 150,228 150,784 0,588 -150,822 -103,160 -257,160 z"
                 transform="scale(0.015625)" />
            </defs>
            <use
               xlink:href="#TimesNewRomanPSMT-30"
               id="use197"
               x="0"
               y="0"
               width="100%"
               height="100%" />
            <use
               xlink:href="#TimesNewRomanPSMT-25"
               x="50"
               id="use199"
               y="0"
               width="100%"
               height="100%" />
          </g>
        </g>
      </g>
      <g
         id="ytick_2">
        <g
           id="line2d_9">
          <path
             d="M 108,423.936 H 777.6"
             clip-path="url(#pe4983e8567)"
             style="fill:none;stroke:#cccccc;stroke-width:0.8;stroke-linecap:round"
             id="path205" />
        </g>
        <g
           id="text_10">
          <!-- 20% -->
          <g
             style="fill:#262626"
             transform="matrix(0.18,0,0,-0.18,68.006563,430.18538)"
             id="g214">
            <use
               xlink:href="#TimesNewRomanPSMT-32"
               id="use208"
               x="0"
               y="0"
               width="100%"
               height="100%" />
            <use
               xlink:href="#TimesNewRomanPSMT-30"
               x="50"
               id="use210"
               y="0"
               width="100%"
               height="100%" />
            <use
               xlink:href="#TimesNewRomanPSMT-25"
               x="100"
               id="use212"
               y="0"
               width="100%"
               height="100%" />
          </g>
        </g>
      </g>
      <g
         id="ytick_3">
        <g
           id="line2d_10">
          <path
             d="M 108,352.9728 H 777.6"
             clip-path="url(#pe4983e8567)"
             style="fill:none;stroke:#cccccc;stroke-width:0.8;stroke-linecap:round"
             id="path218" />
        </g>
        <g
           id="text_11">
          <!-- 40% -->
          <g
             style="fill:#262626"
             transform="matrix(0.18,0,0,-0.18,68.006563,359.22217)"
             id="g227">
            <use
               xlink:href="#TimesNewRomanPSMT-34"
               id="use221"
               x="0"
               y="0"
               width="100%"
               height="100%" />
            <use
               xlink:href="#TimesNewRomanPSMT-30"
               x="50"
               id="use223"
               y="0"
               width="100%"
               height="100%" />
            <use
               xlink:href="#TimesNewRomanPSMT-25"
               x="100"
               id="use225"
               y="0"
               width="100%"
               height="100%" />
          </g>
        </g>
      </g>
      <g
         id="ytick_4">
        <g
           id="line2d_11">
          <path
             d="M 108,282.0096 H 777.6"
             clip-path="url(#pe4983e8567)"
             style="fill:none;stroke:#cccccc;stroke-width:0.8;stroke-linecap:round"
             id="path231" />
        </g>
        <g
           id="text_12">
          <!-- 60% -->
          <g
             style="fill:#262626"
             transform="matrix(0.18,0,0,-0.18,68.006563,288.25898)"
             id="g240">
            <use
               xlink:href="#TimesNewRomanPSMT-36"
               id="use234"
               x="0"
               y="0"
               width="100%"
               height="100%" />
            <use
               xlink:href="#TimesNewRomanPSMT-30"
               x="50"
               id="use236"
               y="0"
               width="100%"
               height="100%" />
            <use
               xlink:href="#TimesNewRomanPSMT-25"
               x="100"
               id="use238"
               y="0"
               width="100%"
               height="100%" />
          </g>
        </g>
      </g>
      <g
         id="ytick_5">
        <g
           id="line2d_12">
          <path
             d="M 108,211.0464 H 777.6"
             clip-path="url(#pe4983e8567)"
             style="fill:none;stroke:#cccccc;stroke-width:0.8;stroke-linecap:round"
             id="path244" />
        </g>
        <g
           id="text_13">
          <!-- 80% -->
          <g
             style="fill:#262626"
             transform="matrix(0.18,0,0,-0.18,68.006563,217.29577)"
             id="g253">
            <use
               xlink:href="#TimesNewRomanPSMT-38"
               id="use247"
               x="0"
               y="0"
               width="100%"
               height="100%" />
            <use
               xlink:href="#TimesNewRomanPSMT-30"
               x="50"
               id="use249"
               y="0"
               width="100%"
               height="100%" />
            <use
               xlink:href="#TimesNewRomanPSMT-25"
               x="100"
               id="use251"
               y="0"
               width="100%"
               height="100%" />
          </g>
        </g>
      </g>
      <g
         id="ytick_6">
        <g
           id="line2d_13">
          <path
             d="M 108,140.0832 H 777.6"
             clip-path="url(#pe4983e8567)"
             style="fill:none;stroke:#cccccc;stroke-width:0.8;stroke-linecap:round"
             id="path257" />
        </g>
        <g
           id="text_14">
          <!-- 100% -->
          <g
             style="fill:#262626"
             transform="matrix(0.18,0,0,-0.18,59.006563,146.33257)"
             id="g268">
            <use
               xlink:href="#TimesNewRomanPSMT-31"
               id="use260"
               x="0"
               y="0"
               width="100%"
               height="100%" />
            <use
               xlink:href="#TimesNewRomanPSMT-30"
               x="50"
               id="use262"
               y="0"
               width="100%"
               height="100%" />
            <use
               xlink:href="#TimesNewRomanPSMT-30"
               x="100"
               id="use264"
               y="0"
               width="100%"
               height="100%" />
            <use
               xlink:href="#TimesNewRomanPSMT-25"
               x="150"
               id="use266"
               y="0"
               width="100%"
               height="100%" />
          </g>
        </g>
      </g>
      <g
         id="ytick_7">
        <g
           id="line2d_14">
          <path
             d="M 108,69.12 H 777.6"
             clip-path="url(#pe4983e8567)"
             style="fill:none;stroke:#cccccc;stroke-width:0.8;stroke-linecap:round"
             id="path272" />
        </g>
        <g
           id="text_15">
          <!-- 120% -->
          <g
             style="fill:#262626"
             transform="matrix(0.18,0,0,-0.18,59.006563,75.369375)"
             id="g283">
            <use
               xlink:href="#TimesNewRomanPSMT-31"
               id="use275"
               x="0"
               y="0"
               width="100%"
               height="100%" />
            <use
               xlink:href="#TimesNewRomanPSMT-32"
               x="50"
               id="use277"
               y="0"
               width="100%"
               height="100%" />
            <use
               xlink:href="#TimesNewRomanPSMT-30"
               x="100"
               id="use279"
               y="0"
               width="100%"
               height="100%" />
            <use
               xlink:href="#TimesNewRomanPSMT-25"
               x="150"
               id="use281"
               y="0"
               width="100%"
               height="100%" />
          </g>
        </g>
      </g>
      <g
         id="text_16">
        <!-- $R_\mathrm{r}$ -->
        <g
           style="fill:#262626"
           transform="matrix(0,-0.27,-0.27,0,49.231094,302.895)"
           id="g294">
          <defs
             id="defs288">
            <path
               id="STIXGeneral-Italic-52"
               d="m 845,4179 h 1613 q 620,0 962,-243 343,-243 343,-659 0,-499 -422,-819 -250,-192 -839,-327 L 3072,627 Q 3181,333 3299,217 3418,102 3629,102 V 0 h -941 l -787,2074 -423,32 -352,-1300 q -83,-294 -83,-403 0,-147 83,-211 84,-64 346,-90 V 0 H -83 v 102 q 256,32 361,141 106,109 183,403 l 761,2759 q 77,294 77,403 0,115 -89,179 -77,51 -365,90 z M 1958,3795 1555,2342 q 199,-32 327,-32 569,0 889,256 320,256 320,704 0,333 -199,525 -198,192 -569,192 -313,0 -365,-192 z"
               transform="scale(0.015625)" />
          </defs>
          <use
             xlink:href="#STIXGeneral-Italic-52"
             transform="translate(0,0.703125)"
             id="use290"
             x="0"
             y="0"
             width="100%"
             height="100%" />
          <use
             xlink:href="#STIXGeneral-Regular-72"
             transform="matrix(0.7,0,0,0.7,61.099991,-12.525)"
             id="use292"
             x="0"
             y="0"
             width="100%"
             height="100%" />
        </g>
      </g>
    </g>
    <g
       id="PathCollection_1">
      <defs
         id="defs299">
        <path
           id="m8905614208"
           d="m 0,4.743416 c 1.257969,0 2.464584,-0.499796 3.354102,-1.389314 C 4.24362,2.464584 4.743416,1.257969 4.743416,0 4.743416,-1.257969 4.24362,-2.464584 3.354102,-3.354102 2.464584,-4.24362 1.257969,-4.743416 0,-4.743416 c -1.257969,0 -2.464584,0.499796 -3.354102,1.389314 C -4.24362,-2.464584 -4.743416,-1.257969 -4.743416,0 c 0,1.257969 0.499796,2.464584 1.389314,3.354102 C -2.464584,4.24362 -1.257969,4.743416 0,4.743416 Z"
           style="stroke:#1f77b4;stroke-opacity:0.8" />
      </defs>
      <g
         clip-path="url(#pe4983e8567)"
         id="g313">
        <use
           xlink:href="#m8905614208"
           x="758.30914"
           y="150.01805"
           style="fill:#1f77b4;fill-opacity:0.8;stroke:#1f77b4;stroke-opacity:0.8"
           id="use301"
           width="100%"
           height="100%" />
        <use
           xlink:href="#m8905614208"
           x="639.64124"
           y="140.08321"
           style="fill:#1f77b4;fill-opacity:0.8;stroke:#1f77b4;stroke-opacity:0.8"
           id="use303"
           width="100%"
           height="100%" />
        <use
           xlink:href="#m8905614208"
           x="538.76508"
           y="140.08321"
           style="fill:#1f77b4;fill-opacity:0.8;stroke:#1f77b4;stroke-opacity:0.8"
           id="use305"
           width="100%"
           height="100%" />
        <use
           xlink:href="#m8905614208"
           x="285.10306"
           y="202.53082"
           style="fill:#1f77b4;fill-opacity:0.8;stroke:#1f77b4;stroke-opacity:0.8"
           id="use307"
           width="100%"
           height="100%" />
        <use
           xlink:href="#m8905614208"
           x="279.44189"
           y="211.75603"
           style="fill:#1f77b4;fill-opacity:0.8;stroke:#1f77b4;stroke-opacity:0.8"
           id="use309"
           width="100%"
           height="100%" />
        <use
           xlink:href="#m8905614208"
           x="283.099"
           y="199.33748"
           style="fill:#1f77b4;fill-opacity:0.8;stroke:#1f77b4;stroke-opacity:0.8"
           id="use311"
           width="100%"
           height="100%" />
      </g>
    </g>
    <g
       id="PathCollection_2">
      <defs
         id="defs317">
        <path
           id="mbc703a1d24"
           d="m 0,4.743416 c 1.257969,0 2.464584,-0.499796 3.354102,-1.389314 C 4.24362,2.464584 4.743416,1.257969 4.743416,0 4.743416,-1.257969 4.24362,-2.464584 3.354102,-3.354102 2.464584,-4.24362 1.257969,-4.743416 0,-4.743416 c -1.257969,0 -2.464584,0.499796 -3.354102,1.389314 C -4.24362,-2.464584 -4.743416,-1.257969 -4.743416,0 c 0,1.257969 0.499796,2.464584 1.389314,3.354102 C -2.464584,4.24362 -1.257969,4.743416 0,4.743416 Z"
           style="stroke:#ff7f0e;stroke-opacity:0.8" />
      </defs>
      <g
         clip-path="url(#pe4983e8567)"
         id="g337">
        <use
           xlink:href="#mbc703a1d24"
           x="746.37439"
           y="140.08321"
           style="fill:#ff7f0e;fill-opacity:0.8;stroke:#ff7f0e;stroke-opacity:0.8"
           id="use319"
           width="100%"
           height="100%" />
        <use
           xlink:href="#mbc703a1d24"
           x="642.0791"
           y="140.08321"
           style="fill:#ff7f0e;fill-opacity:0.8;stroke:#ff7f0e;stroke-opacity:0.8"
           id="use321"
           width="100%"
           height="100%" />
        <use
           xlink:href="#mbc703a1d24"
           x="553.48944"
           y="143.98618"
           style="fill:#ff7f0e;fill-opacity:0.8;stroke:#ff7f0e;stroke-opacity:0.8"
           id="use323"
           width="100%"
           height="100%" />
        <use
           xlink:href="#mbc703a1d24"
           x="290.83063"
           y="140.08321"
           style="fill:#ff7f0e;fill-opacity:0.8;stroke:#ff7f0e;stroke-opacity:0.8"
           id="use325"
           width="100%"
           height="100%" />
        <use
           xlink:href="#mbc703a1d24"
           x="282.81128"
           y="140.08321"
           style="fill:#ff7f0e;fill-opacity:0.8;stroke:#ff7f0e;stroke-opacity:0.8"
           id="use327"
           width="100%"
           height="100%" />
        <use
           xlink:href="#mbc703a1d24"
           x="279.78436"
           y="159.9529"
           style="fill:#ff7f0e;fill-opacity:0.8;stroke:#ff7f0e;stroke-opacity:0.8"
           id="use329"
           width="100%"
           height="100%" />
        <use
           xlink:href="#mbc703a1d24"
           x="132.3784"
           y="494.8992"
           style="fill:#ff7f0e;fill-opacity:0.8;stroke:#ff7f0e;stroke-opacity:0.8"
           id="use331"
           width="100%"
           height="100%" />
        <use
           xlink:href="#mbc703a1d24"
           x="141.03416"
           y="494.8992"
           style="fill:#ff7f0e;fill-opacity:0.8;stroke:#ff7f0e;stroke-opacity:0.8"
           id="use333"
           width="100%"
           height="100%" />
        <use
           xlink:href="#mbc703a1d24"
           x="138.50584"
           y="494.8992"
           style="fill:#ff7f0e;fill-opacity:0.8;stroke:#ff7f0e;stroke-opacity:0.8"
           id="use335"
           width="100%"
           height="100%" />
      </g>
    </g>
    <g
       id="patch_3">
      <path
         d="M 108,512.64 V 69.12"
         style="fill:none;stroke:#cccccc;stroke-width:0.8;stroke-linecap:square;stroke-linejoin:miter"
         id="path340" />
    </g>
    <g
       id="patch_4">
      <path
         d="M 777.6,512.64 V 69.12"
         style="fill:none;stroke:#cccccc;stroke-width:0.8;stroke-linecap:square;stroke-linejoin:miter"
         id="path343" />
    </g>
    <g
       id="patch_5">
      <path
         d="M 108,512.64 H 777.6"
         style="fill:none;stroke:#cccccc;stroke-width:0.8;stroke-linecap:square;stroke-linejoin:miter"
         id="path346" />
    </g>
    <g
       id="patch_6">
      <path
         d="M 108,69.12 H 777.6"
         style="fill:none;stroke:#cccccc;stroke-width:0.8;stroke-linecap:square;stroke-linejoin:miter"
         id="path349" />
    </g>
    <g
       id="legend_1">
      <g
         id="patch_7">
        <path
           d="M 618.12797,502.14 H 762.9 q 4.2,0 4.2,-4.2 v -57.28406 q 0,-4.2 -4.2,-4.2 H 618.12797 q -4.2,0 -4.2,4.2 V 497.94 q 0,4.2 4.2,4.2 z"
           style="opacity:0.8;fill:#ffffff;stroke:#cccccc;stroke-linejoin:miter"
           id="path352" />
      </g>
      <g
         id="PathCollection_3">
        <g
           id="g357">
          <use
             xlink:href="#m8905614208"
             x="643.32794"
             y="454.04343"
             style="fill:#1f77b4;fill-opacity:0.8;stroke:#1f77b4;stroke-opacity:0.8"
             id="use355"
             width="100%"
             height="100%" />
        </g>
      </g>
      <g
         id="text_17">
        <!-- version 1 -->
        <g
           style="fill:#262626"
           transform="matrix(0.21,0,0,-0.21,681.12797,459.55594)"
           id="g387">
          <defs
             id="defs367">
            <path
               id="TimesNewRomanPSMT-76"
               d="m 53,2863 h 1347 v -116 h -87 q -122,0 -186,-60 -64,-59 -64,-159 0,-109 65,-259 l 666,-1581 669,1640 q 71,175 71,266 0,44 -25,72 -34,47 -87,64 -53,17 -216,17 v 116 h 935 v -116 q -163,-13 -225,-66 -110,-93 -197,-312 L 1703,-88 H 1575 L 553,2328 q -69,169 -132,242 -62,74 -158,124 -54,28 -210,53 z"
               transform="scale(0.015625)" />
            <path
               id="TimesNewRomanPSMT-65"
               d="m 681,1784 q -3,-637 310,-1000 312,-362 734,-362 281,0 489,154 208,155 349,530 l 96,-62 Q 2594,616 2278,264 1963,-88 1488,-88 972,-88 605,314 238,716 238,1394 q 0,734 376,1145 377,411 945,411 482,0 791,-317 309,-317 309,-849 z m 0,182 h 1325 q -15,275 -65,387 -78,175 -233,275 -155,100 -324,100 -259,0 -464,-202 -204,-201 -239,-560 z"
               transform="scale(0.015625)" />
            <path
               id="TimesNewRomanPSMT-72"
               d="m 1038,2947 v -644 q 359,644 737,644 172,0 284,-105 113,-104 113,-242 0,-122 -82,-207 -81,-84 -193,-84 -109,0 -245,108 -136,108 -202,108 -56,0 -122,-62 -140,-129 -290,-422 V 669 q 0,-238 59,-360 41,-84 144,-140 103,-56 297,-56 V 0 H 72 v 113 q 219,0 325,68 78,50 109,160 16,53 16,303 v 1109 q 0,500 -21,595 -20,96 -75,139 -54,44 -135,44 -97,0 -219,-47 l -31,113 865,350 z"
               transform="scale(0.015625)" />
            <path
               id="TimesNewRomanPSMT-73"
               d="m 2050,2947 v -975 h -103 q -119,459 -305,625 -186,166 -473,166 -219,0 -354,-116 -134,-116 -134,-256 0,-175 100,-300 97,-128 394,-272 l 456,-222 Q 2266,1288 2266,781 2266,391 1970,151 1675,-88 1309,-88 1047,-88 709,6 606,38 541,38 469,38 428,-44 H 325 V 978 H 428 Q 516,541 762,319 1009,97 1316,97 q 215,0 351,126 136,127 136,305 0,216 -152,363 -151,147 -604,372 -453,225 -594,406 -140,178 -140,450 0,353 242,590 242,238 626,238 169,0 410,-72 159,-47 212,-47 50,0 78,22 28,22 66,97 z"
               transform="scale(0.015625)" />
            <path
               id="TimesNewRomanPSMT-69"
               d="m 928,4444 q 131,0 223,-93 93,-92 93,-223 0,-131 -93,-225 -92,-94 -223,-94 -131,0 -225,94 -94,94 -94,225 0,131 92,223 93,93 227,93 z M 1188,2947 V 647 q 0,-269 39,-358 39,-89 115,-133 77,-43 280,-43 V 0 H 231 v 113 q 210,0 281,40 72,41 114,134 43,94 43,360 v 1103 q 0,466 -28,603 -22,100 -69,139 -47,39 -128,39 -88,0 -213,-47 l -43,113 862,350 z"
               transform="scale(0.015625)" />
            <path
               id="TimesNewRomanPSMT-6f"
               d="m 1600,2947 q 650,0 1044,-494 334,-422 334,-969 0,-384 -185,-778 Q 2609,313 2286,112 1963,-88 1566,-88 919,-88 538,428 216,863 216,1403 q 0,394 195,783 195,389 514,575 319,186 675,186 z m -97,-203 q -165,0 -333,-99 -167,-98 -270,-345 -103,-247 -103,-634 0,-625 248,-1079 249,-453 655,-453 303,0 500,250 197,250 197,860 0,762 -328,1200 -222,300 -566,300 z"
               transform="scale(0.015625)" />
            <path
               id="TimesNewRomanPSMT-6e"
               d="m 1034,2341 q 504,606 960,606 234,0 403,-117 169,-117 269,-386 68,-188 68,-575 V 647 q 0,-272 44,-369 35,-78 111,-122 77,-43 283,-43 V 0 H 1756 v 113 h 60 q 200,0 279,60 80,61 111,180 13,47 13,294 v 1172 q 0,390 -102,567 -101,177 -342,177 -372,0 -741,-407 V 647 q 0,-291 35,-359 44,-91 120,-133 77,-42 311,-42 V 0 H 84 v 113 h 63 q 219,0 295,110 77,111 77,424 v 1062 q 0,516 -24,628 -23,113 -72,153 -48,41 -129,41 -88,0 -210,-47 l -46,113 862,350 h 134 z"
               transform="scale(0.015625)" />
          </defs>
          <use
             xlink:href="#TimesNewRomanPSMT-76"
             id="use369"
             x="0"
             y="0"
             width="100%"
             height="100%" />
          <use
             xlink:href="#TimesNewRomanPSMT-65"
             x="50"
             id="use371"
             y="0"
             width="100%"
             height="100%" />
          <use
             xlink:href="#TimesNewRomanPSMT-72"
             x="94.384766"
             id="use373"
             y="0"
             width="100%"
             height="100%" />
          <use
             xlink:href="#TimesNewRomanPSMT-73"
             x="127.68555"
             id="use375"
             y="0"
             width="100%"
             height="100%" />
          <use
             xlink:href="#TimesNewRomanPSMT-69"
             x="166.60156"
             id="use377"
             y="0"
             width="100%"
             height="100%" />
          <use
             xlink:href="#TimesNewRomanPSMT-6f"
             x="194.38477"
             id="use379"
             y="0"
             width="100%"
             height="100%" />
          <use
             xlink:href="#TimesNewRomanPSMT-6e"
             x="244.38477"
             id="use381"
             y="0"
             width="100%"
             height="100%" />
          <use
             xlink:href="#TimesNewRomanPSMT-20"
             x="294.38477"
             id="use383"
             y="0"
             width="100%"
             height="100%" />
          <use
             xlink:href="#TimesNewRomanPSMT-31"
             x="319.38477"
             id="use385"
             y="0"
             width="100%"
             height="100%" />
        </g>
      </g>
      <g
         id="PathCollection_4">
        <g
           id="g392">
          <use
             xlink:href="#mbc703a1d24"
             x="643.32794"
             y="483.73547"
             style="fill:#ff7f0e;fill-opacity:0.8;stroke:#ff7f0e;stroke-opacity:0.8"
             id="use390"
             width="100%"
             height="100%" />
        </g>
      </g>
      <g
         id="text_18">
        <!-- version 2 -->
        <g
           style="fill:#262626"
           transform="matrix(0.21,0,0,-0.21,681.12797,489.24797)"
           id="g413">
          <use
             xlink:href="#TimesNewRomanPSMT-76"
             id="use395"
             x="0"
             y="0"
             width="100%"
             height="100%" />
          <use
             xlink:href="#TimesNewRomanPSMT-65"
             x="50"
             id="use397"
             y="0"
             width="100%"
             height="100%" />
          <use
             xlink:href="#TimesNewRomanPSMT-72"
             x="94.384766"
             id="use399"
             y="0"
             width="100%"
             height="100%" />
          <use
             xlink:href="#TimesNewRomanPSMT-73"
             x="127.68555"
             id="use401"
             y="0"
             width="100%"
             height="100%" />
          <use
             xlink:href="#TimesNewRomanPSMT-69"
             x="166.60156"
             id="use403"
             y="0"
             width="100%"
             height="100%" />
          <use
             xlink:href="#TimesNewRomanPSMT-6f"
             x="194.38477"
             id="use405"
             y="0"
             width="100%"
             height="100%" />
          <use
             xlink:href="#TimesNewRomanPSMT-6e"
             x="244.38477"
             id="use407"
             y="0"
             width="100%"
             height="100%" />
          <use
             xlink:href="#TimesNewRomanPSMT-20"
             x="294.38477"
             id="use409"
             y="0"
             width="100%"
             height="100%" />
          <use
             xlink:href="#TimesNewRomanPSMT-32"
             x="319.38477"
             id="use411"
             y="0"
             width="100%"
             height="100%" />
        </g>
      </g>
    </g>
  </g>
  <defs
     id="defs422">
    <clipPath
       id="pe4983e8567">
      <rect
         x="108"
         y="69.12"
         width="669.6"
         height="443.52"
         id="rect419" />
    </clipPath>
  </defs>
</svg>
