<?xml version="1.0" encoding="UTF-8" standalone="no"?>
<svg
   width="864pt"
   height="576pt"
   viewBox="0 0 864 576"
   version="1.1"
   id="svg411"
   sodipodi:docname="Tset vs Rf.svg"
   inkscape:version="1.1.1 (3bf5ae0d25, 2021-09-20)"
   xmlns:inkscape="http://www.inkscape.org/namespaces/inkscape"
   xmlns:sodipodi="http://sodipodi.sourceforge.net/DTD/sodipodi-0.dtd"
   xmlns:xlink="http://www.w3.org/1999/xlink"
   xmlns="http://www.w3.org/2000/svg"
   xmlns:svg="http://www.w3.org/2000/svg"
   xmlns:rdf="http://www.w3.org/1999/02/22-rdf-syntax-ns#"
   xmlns:cc="http://creativecommons.org/ns#"
   xmlns:dc="http://purl.org/dc/elements/1.1/">
  <sodipodi:namedview
     id="namedview413"
     pagecolor="#ffffff"
     bordercolor="#666666"
     borderopacity="1.0"
     inkscape:pageshadow="2"
     inkscape:pageopacity="0.0"
     inkscape:pagecheckerboard="0"
     inkscape:document-units="pt"
     showgrid="false"
     inkscape:zoom="0.6619919"
     inkscape:cx="327.04328"
     inkscape:cy="337.61742"
     inkscape:window-width="1920"
     inkscape:window-height="1017"
     inkscape:window-x="-8"
     inkscape:window-y="-8"
     inkscape:window-maximized="1"
     inkscape:current-layer="svg411" />
  <metadata
     id="metadata2">
    <rdf:RDF>
      <cc:Work>
        <dc:type
           rdf:resource="http://purl.org/dc/dcmitype/StillImage" />
        <dc:date>2023-11-11T11:33:21.324377</dc:date>
        <dc:format>image/svg+xml</dc:format>
        <dc:creator>
          <cc:Agent>
            <dc:title>Matplotlib v3.7.2, https://matplotlib.org/</dc:title>
          </cc:Agent>
        </dc:creator>
      </cc:Work>
    </rdf:RDF>
  </metadata>
  <defs
     id="defs6">
    <style
       type="text/css"
       id="style4">*{stroke-linejoin: round; stroke-linecap: butt}</style>
  </defs>
  <g
     id="patch_2">
    <path
       d="M 108,512.64 H 777.6 V 69.12 H 108 Z"
       style="fill:#ffffff"
       id="path11" />
  </g>
  <g
     id="matplotlib.axis_1">
    <g
       id="xtick_1">
      <g
         id="line2d_1">
        <path
           d="M 199.30909,512.64 V 69.12"
           clip-path="url(#p6855552b22)"
           style="fill:none;stroke:#cccccc;stroke-width:0.8;stroke-linecap:round"
           id="path14" />
      </g>
      <g
         id="text_1">
        <!-- 160 °C -->
        <g
           style="fill:#262626"
           transform="matrix(0.18,0,0,-0.18,173.95722,532.13875)"
           id="g37">
          <defs
             id="defs23">
            <path
               id="TimesNewRomanPSMT-31"
               d="m 750,3822 1031,503 h 103 V 747 q 0,-356 30,-444 30,-87 123,-134 94,-47 382,-53 V 0 H 825 v 116 q 300,6 387,51 88,46 122,122 35,77 35,458 v 2287 q 0,463 -31,594 -22,100 -80,147 -58,47 -139,47 -116,0 -322,-97 z"
               transform="scale(0.015625)" />
            <path
               id="TimesNewRomanPSMT-36"
               d="m 2869,4325 v -116 q -413,-40 -674,-164 -261,-123 -516,-376 -254,-253 -421,-564 -167,-311 -280,-739 450,309 903,309 435,0 753,-350 319,-350 319,-900 0,-531 -322,-969 -387,-531 -1025,-531 -434,0 -737,288 -594,559 -594,1450 0,568 228,1080 228,513 651,910 424,397 811,534 388,138 723,138 z M 925,2138 q -56,-422 -56,-682 0,-300 111,-652 111,-351 329,-557 160,-147 388,-147 272,0 486,256 214,257 214,732 0,534 -213,924 -212,391 -603,391 -118,0 -254,-50 -136,-50 -402,-215 z"
               transform="scale(0.015625)" />
            <path
               id="TimesNewRomanPSMT-30"
               d="m 231,2094 q 0,725 219,1248 219,524 581,780 282,203 582,203 487,0 875,-497 484,-615 484,-1669 0,-737 -213,-1253 Q 2547,391 2217,158 1888,-75 1581,-75 975,-75 572,641 231,1244 231,2094 Z m 613,-78 q 0,-875 215,-1428 179,-466 532,-466 168,0 349,151 182,152 276,508 143,538 143,1516 0,725 -150,1209 -112,360 -290,510 -128,103 -310,103 -212,0 -378,-191 -225,-259 -306,-816 -81,-556 -81,-1096 z"
               transform="scale(0.015625)" />
            <path
               id="TimesNewRomanPSMT-20"
               transform="scale(0.015625)"
               d="" />
            <path
               id="TimesNewRomanPSMT-b0"
               d="m 1266,4331 q 403,0 682,-281 280,-281 280,-681 0,-397 -281,-679 -281,-281 -681,-281 -397,0 -679,281 -281,282 -281,679 0,400 280,681 280,281 680,281 z m 0,-262 q -291,0 -494,-203 -203,-203 -203,-494 0,-288 203,-493 203,-204 494,-204 287,0 492,204 205,205 205,493 0,291 -204,494 -203,203 -493,203 z"
               transform="scale(0.015625)" />
            <path
               id="TimesNewRomanPSMT-43"
               d="m 3853,4334 97,-1440 h -97 q -194,647 -553,931 -359,284 -862,284 -422,0 -763,-214 -341,-214 -536,-683 -195,-468 -195,-1165 0,-575 184,-997 185,-422 555,-647 370,-225 845,-225 413,0 728,176 316,177 694,702 l 97,-62 Q 3728,428 3303,165 2878,-97 2294,-97 1241,-97 663,684 231,1266 231,2053 q 0,635 284,1166 285,531 783,823 499,292 1090,292 459,0 906,-225 131,-68 187,-68 85,0 147,59 81,84 116,234 z"
               transform="scale(0.015625)" />
          </defs>
          <use
             xlink:href="#TimesNewRomanPSMT-31"
             id="use25"
             x="0"
             y="0"
             width="100%"
             height="100%" />
          <use
             xlink:href="#TimesNewRomanPSMT-36"
             x="50"
             id="use27"
             y="0"
             width="100%"
             height="100%" />
          <use
             xlink:href="#TimesNewRomanPSMT-30"
             x="100"
             id="use29"
             y="0"
             width="100%"
             height="100%" />
          <use
             xlink:href="#TimesNewRomanPSMT-20"
             x="150"
             id="use31"
             y="0"
             width="100%"
             height="100%" />
          <use
             xlink:href="#TimesNewRomanPSMT-b0"
             x="175"
             id="use33"
             y="0"
             width="100%"
             height="100%" />
          <use
             xlink:href="#TimesNewRomanPSMT-43"
             x="214.99023"
             id="use35"
             y="0"
             width="100%"
             height="100%" />
        </g>
      </g>
    </g>
    <g
       id="xtick_2">
      <g
         id="line2d_2">
        <path
           d="M 321.05455,512.64 V 69.12"
           clip-path="url(#p6855552b22)"
           style="fill:none;stroke:#cccccc;stroke-width:0.8;stroke-linecap:round"
           id="path41" />
      </g>
      <g
         id="text_2">
        <!-- 180 °C -->
        <g
           style="fill:#262626"
           transform="matrix(0.18,0,0,-0.18,295.70267,532.13875)"
           id="g59">
          <defs
             id="defs45">
            <path
               id="TimesNewRomanPSMT-38"
               d="m 1228,2134 q -503,413 -649,663 -145,250 -145,519 0,412 319,710 319,299 847,299 513,0 825,-278 313,-278 313,-634 0,-238 -169,-485 -169,-247 -703,-581 550,-425 728,-669 237,-319 237,-672 0,-447 -341,-764 -340,-317 -893,-317 -603,0 -941,378 -268,303 -268,663 0,281 189,557 189,277 651,611 z m 491,335 q 375,337 475,532 100,196 100,443 0,328 -185,514 -184,186 -503,186 -318,0 -518,-185 -200,-184 -200,-431 0,-162 82,-325 83,-162 236,-309 z M 1375,2016 Q 1116,1797 991,1539 866,1281 866,981 866,578 1086,336 1306,94 1647,94 q 337,0 540,190 204,191 204,463 0,225 -119,403 -222,331 -897,866 z"
               transform="scale(0.015625)" />
          </defs>
          <use
             xlink:href="#TimesNewRomanPSMT-31"
             id="use47"
             x="0"
             y="0"
             width="100%"
             height="100%" />
          <use
             xlink:href="#TimesNewRomanPSMT-38"
             x="50"
             id="use49"
             y="0"
             width="100%"
             height="100%" />
          <use
             xlink:href="#TimesNewRomanPSMT-30"
             x="100"
             id="use51"
             y="0"
             width="100%"
             height="100%" />
          <use
             xlink:href="#TimesNewRomanPSMT-20"
             x="150"
             id="use53"
             y="0"
             width="100%"
             height="100%" />
          <use
             xlink:href="#TimesNewRomanPSMT-b0"
             x="175"
             id="use55"
             y="0"
             width="100%"
             height="100%" />
          <use
             xlink:href="#TimesNewRomanPSMT-43"
             x="214.99023"
             id="use57"
             y="0"
             width="100%"
             height="100%" />
        </g>
      </g>
    </g>
    <g
       id="xtick_3">
      <g
         id="line2d_3">
        <path
           d="M 442.8,512.64 V 69.12"
           clip-path="url(#p6855552b22)"
           style="fill:none;stroke:#cccccc;stroke-width:0.8;stroke-linecap:round"
           id="path63" />
      </g>
      <g
         id="text_3">
        <!-- 200 °C -->
        <g
           style="fill:#262626"
           transform="matrix(0.18,0,0,-0.18,417.44812,532.13875)"
           id="g81">
          <defs
             id="defs67">
            <path
               id="TimesNewRomanPSMT-32"
               d="M 2934,816 2638,0 H 138 v 116 q 1103,1006 1553,1643 450,638 450,1166 0,403 -247,662 -247,260 -591,260 -312,0 -561,-183 Q 494,3481 375,3128 H 259 q 79,578 402,887 323,310 808,310 515,0 860,-331 346,-331 346,-781 0,-322 -150,-644 Q 2294,2063 1775,1497 997,647 803,472 h 1106 q 338,0 474,25 136,25 245,101 110,77 191,218 z"
               transform="scale(0.015625)" />
          </defs>
          <use
             xlink:href="#TimesNewRomanPSMT-32"
             id="use69"
             x="0"
             y="0"
             width="100%"
             height="100%" />
          <use
             xlink:href="#TimesNewRomanPSMT-30"
             x="50"
             id="use71"
             y="0"
             width="100%"
             height="100%" />
          <use
             xlink:href="#TimesNewRomanPSMT-30"
             x="100"
             id="use73"
             y="0"
             width="100%"
             height="100%" />
          <use
             xlink:href="#TimesNewRomanPSMT-20"
             x="150"
             id="use75"
             y="0"
             width="100%"
             height="100%" />
          <use
             xlink:href="#TimesNewRomanPSMT-b0"
             x="175"
             id="use77"
             y="0"
             width="100%"
             height="100%" />
          <use
             xlink:href="#TimesNewRomanPSMT-43"
             x="214.99023"
             id="use79"
             y="0"
             width="100%"
             height="100%" />
        </g>
      </g>
    </g>
    <g
       id="xtick_4">
      <g
         id="line2d_4">
        <path
           d="M 564.54545,512.64 V 69.12"
           clip-path="url(#p6855552b22)"
           style="fill:none;stroke:#cccccc;stroke-width:0.8;stroke-linecap:round"
           id="path85" />
      </g>
      <g
         id="text_4">
        <!-- 220 °C -->
        <g
           style="fill:#262626"
           transform="matrix(0.18,0,0,-0.18,539.19358,532.13875)"
           id="g100">
          <use
             xlink:href="#TimesNewRomanPSMT-32"
             id="use88"
             x="0"
             y="0"
             width="100%"
             height="100%" />
          <use
             xlink:href="#TimesNewRomanPSMT-32"
             x="50"
             id="use90"
             y="0"
             width="100%"
             height="100%" />
          <use
             xlink:href="#TimesNewRomanPSMT-30"
             x="100"
             id="use92"
             y="0"
             width="100%"
             height="100%" />
          <use
             xlink:href="#TimesNewRomanPSMT-20"
             x="150"
             id="use94"
             y="0"
             width="100%"
             height="100%" />
          <use
             xlink:href="#TimesNewRomanPSMT-b0"
             x="175"
             id="use96"
             y="0"
             width="100%"
             height="100%" />
          <use
             xlink:href="#TimesNewRomanPSMT-43"
             x="214.99023"
             id="use98"
             y="0"
             width="100%"
             height="100%" />
        </g>
      </g>
    </g>
    <g
       id="xtick_5">
      <g
         id="line2d_5">
        <path
           d="M 686.29091,512.64 V 69.12"
           clip-path="url(#p6855552b22)"
           style="fill:none;stroke:#cccccc;stroke-width:0.8;stroke-linecap:round"
           id="path104" />
      </g>
      <g
         id="text_5">
        <!-- 240 °C -->
        <g
           style="fill:#262626"
           transform="matrix(0.18,0,0,-0.18,660.93903,532.13875)"
           id="g122">
          <defs
             id="defs108">
            <path
               id="TimesNewRomanPSMT-34"
               d="M 2978,1563 V 1119 H 2409 V 0 H 1894 V 1119 H 100 v 400 l 1966,2806 h 343 V 1563 Z m -1084,0 V 3666 L 406,1563 Z"
               transform="scale(0.015625)" />
          </defs>
          <use
             xlink:href="#TimesNewRomanPSMT-32"
             id="use110"
             x="0"
             y="0"
             width="100%"
             height="100%" />
          <use
             xlink:href="#TimesNewRomanPSMT-34"
             x="50"
             id="use112"
             y="0"
             width="100%"
             height="100%" />
          <use
             xlink:href="#TimesNewRomanPSMT-30"
             x="100"
             id="use114"
             y="0"
             width="100%"
             height="100%" />
          <use
             xlink:href="#TimesNewRomanPSMT-20"
             x="150"
             id="use116"
             y="0"
             width="100%"
             height="100%" />
          <use
             xlink:href="#TimesNewRomanPSMT-b0"
             x="175"
             id="use118"
             y="0"
             width="100%"
             height="100%" />
          <use
             xlink:href="#TimesNewRomanPSMT-43"
             x="214.99023"
             id="use120"
             y="0"
             width="100%"
             height="100%" />
        </g>
      </g>
    </g>
    <g
       id="text_6">
      <!-- $T_\mathrm{set}$ -->
      <g
         style="fill:#262626"
         transform="matrix(0.27,0,0,-0.27,424.17,558.73719)"
         id="g140">
        <defs
           id="defs130">
          <path
             id="STIXGeneral-Italic-54"
             d="m 4051,4179 -281,-1049 -109,12 q 19,160 19,295 0,518 -646,518 H 2662 L 1786,819 q -90,-313 -90,-422 0,-147 70,-202 71,-54 269,-73 l 224,-20 V 0 H 416 v 102 q 333,32 473,128 141,96 212,352 l 915,3373 Q 1254,3955 988,3817 723,3680 493,3162 l -115,25 268,992 z"
             transform="scale(0.015625)" />
          <path
             id="STIXGeneral-Regular-73"
             d="m 998,1926 666,-403 q 320,-192 441,-359 122,-166 122,-428 0,-320 -266,-560 Q 1696,-64 1331,-64 1030,-64 864,-6 691,51 570,51 461,51 416,-26 H 333 V 979 H 435 Q 538,512 730,294 922,77 1248,77 q 237,0 384,134 147,135 147,339 0,295 -339,480 l -346,192 q -768,429 -768,928 0,372 240,580 240,208 644,208 281,0 428,-71 116,-51 180,-51 44,0 102,64 h 70 l 32,-870 h -96 q -108,435 -272,611 -163,176 -451,176 -217,0 -349,-109 -131,-109 -131,-326 0,-109 73,-234 74,-125 202,-202 z"
             transform="scale(0.015625)" />
          <path
             id="STIXGeneral-Regular-65"
             d="m 2611,1050 103,-45 Q 2330,-64 1376,-64 813,-64 486,329 160,723 160,1389 q 0,685 365,1120 365,435 960,435 576,0 889,-442 186,-256 218,-729 H 621 q 25,-403 79,-615 55,-211 215,-428 269,-352 711,-352 313,0 527,153 215,154 458,519 z M 634,1978 h 1305 q -57,403 -189,569 -131,167 -438,167 -269,0 -448,-189 -179,-189 -230,-547 z"
             transform="scale(0.015625)" />
          <path
             id="STIXGeneral-Regular-74"
             d="m 1702,493 84,-71 Q 1478,-64 1011,-64 448,-64 448,749 V 2675 H 109 q -26,19 -26,45 0,51 109,122 243,140 621,684 13,20 61,80 48,61 67,100 45,0 45,-84 v -742 h 646 V 2675 H 986 V 845 q 0,-307 76,-442 77,-134 256,-134 192,0 384,224 z"
             transform="scale(0.015625)" />
        </defs>
        <use
           xlink:href="#STIXGeneral-Italic-54"
           transform="translate(0,0.703125)"
           id="use132"
           x="0"
           y="0"
           width="100%"
           height="100%" />
        <use
           xlink:href="#STIXGeneral-Regular-73"
           transform="matrix(0.7,0,0,0.7,55.599991,-12.525)"
           id="use134"
           x="0"
           y="0"
           width="100%"
           height="100%" />
        <use
           xlink:href="#STIXGeneral-Regular-65"
           transform="matrix(0.7,0,0,0.7,82.829987,-12.525)"
           id="use136"
           x="0"
           y="0"
           width="100%"
           height="100%" />
        <use
           xlink:href="#STIXGeneral-Regular-74"
           transform="matrix(0.7,0,0,0.7,113.90998,-12.525)"
           id="use138"
           x="0"
           y="0"
           width="100%"
           height="100%" />
      </g>
    </g>
  </g>
  <g
     id="matplotlib.axis_2">
    <g
       id="ytick_1">
      <g
         id="line2d_6">
        <path
           d="M 108,512.64 H 777.6"
           clip-path="url(#p6855552b22)"
           style="fill:none;stroke:#cccccc;stroke-width:0.8;stroke-linecap:round"
           id="path144" />
      </g>
    </g>
    <g
       id="ytick_2">
      <g
         id="line2d_7">
        <path
           d="M 108,438.72 H 777.6"
           clip-path="url(#p6855552b22)"
           style="fill:none;stroke:#cccccc;stroke-width:0.8;stroke-linecap:round"
           id="path148" />
      </g>
      <g
         id="text_7">
        <!-- 20% -->
        <g
           style="fill:#262626"
           transform="matrix(0.18,0,0,-0.18,68.006563,444.96938)"
           id="g160">
          <defs
             id="defs152">
            <path
               id="TimesNewRomanPSMT-25"
               d="M 4350,4334 1263,-175 H 984 l 3088,4509 z m -3212,0 q 421,0 654,-350 233,-350 233,-803 0,-543 -263,-840 -262,-297 -631,-297 -247,0 -453,136 -206,136 -330,404 -123,269 -123,597 0,328 125,605 125,277 342,412 217,136 446,136 z m -10,-175 q -159,0 -283,-188 -123,-187 -123,-787 0,-434 69,-662 53,-172 165,-266 66,-56 163,-56 150,0 256,163 156,240 156,803 0,593 -153,834 -100,159 -250,159 z M 4206,2103 q 222,0 442,-141 221,-140 341,-409 120,-269 120,-590 0,-554 -266,-846 -265,-292 -627,-292 -228,0 -443,141 -214,140 -337,401 -123,261 -123,596 0,328 123,599 123,272 337,406 215,135 433,135 z m 3,-165 q -150,0 -259,-169 -141,-219 -141,-828 0,-560 144,-782 106,-159 256,-159 144,0 257,172 150,228 150,784 0,588 -150,822 -103,160 -257,160 z"
               transform="scale(0.015625)" />
          </defs>
          <use
             xlink:href="#TimesNewRomanPSMT-32"
             id="use154"
             x="0"
             y="0"
             width="100%"
             height="100%" />
          <use
             xlink:href="#TimesNewRomanPSMT-30"
             x="50"
             id="use156"
             y="0"
             width="100%"
             height="100%" />
          <use
             xlink:href="#TimesNewRomanPSMT-25"
             x="100"
             id="use158"
             y="0"
             width="100%"
             height="100%" />
        </g>
      </g>
    </g>
    <g
       id="ytick_3">
      <g
         id="line2d_8">
        <path
           d="M 108,364.8 H 777.6"
           clip-path="url(#p6855552b22)"
           style="fill:none;stroke:#cccccc;stroke-width:0.8;stroke-linecap:round"
           id="path164" />
      </g>
      <g
         id="text_8">
        <!-- 40% -->
        <g
           style="fill:#262626"
           transform="matrix(0.18,0,0,-0.18,68.006563,371.04937)"
           id="g173">
          <use
             xlink:href="#TimesNewRomanPSMT-34"
             id="use167"
             x="0"
             y="0"
             width="100%"
             height="100%" />
          <use
             xlink:href="#TimesNewRomanPSMT-30"
             x="50"
             id="use169"
             y="0"
             width="100%"
             height="100%" />
          <use
             xlink:href="#TimesNewRomanPSMT-25"
             x="100"
             id="use171"
             y="0"
             width="100%"
             height="100%" />
        </g>
      </g>
    </g>
    <g
       id="ytick_4">
      <g
         id="line2d_9">
        <path
           d="M 108,290.88 H 777.6"
           clip-path="url(#p6855552b22)"
           style="fill:none;stroke:#cccccc;stroke-width:0.8;stroke-linecap:round"
           id="path177" />
      </g>
      <g
         id="text_9">
        <!-- 60% -->
        <g
           style="fill:#262626"
           transform="matrix(0.18,0,0,-0.18,68.006563,297.12937)"
           id="g186">
          <use
             xlink:href="#TimesNewRomanPSMT-36"
             id="use180"
             x="0"
             y="0"
             width="100%"
             height="100%" />
          <use
             xlink:href="#TimesNewRomanPSMT-30"
             x="50"
             id="use182"
             y="0"
             width="100%"
             height="100%" />
          <use
             xlink:href="#TimesNewRomanPSMT-25"
             x="100"
             id="use184"
             y="0"
             width="100%"
             height="100%" />
        </g>
      </g>
    </g>
    <g
       id="ytick_5">
      <g
         id="line2d_10">
        <path
           d="M 108,216.96 H 777.6"
           clip-path="url(#p6855552b22)"
           style="fill:none;stroke:#cccccc;stroke-width:0.8;stroke-linecap:round"
           id="path190" />
      </g>
      <g
         id="text_10">
        <!-- 80% -->
        <g
           style="fill:#262626"
           transform="matrix(0.18,0,0,-0.18,68.006563,223.20937)"
           id="g199">
          <use
             xlink:href="#TimesNewRomanPSMT-38"
             id="use193"
             x="0"
             y="0"
             width="100%"
             height="100%" />
          <use
             xlink:href="#TimesNewRomanPSMT-30"
             x="50"
             id="use195"
             y="0"
             width="100%"
             height="100%" />
          <use
             xlink:href="#TimesNewRomanPSMT-25"
             x="100"
             id="use197"
             y="0"
             width="100%"
             height="100%" />
        </g>
      </g>
    </g>
    <g
       id="ytick_6">
      <g
         id="line2d_11">
        <path
           d="M 108,143.04 H 777.6"
           clip-path="url(#p6855552b22)"
           style="fill:none;stroke:#cccccc;stroke-width:0.8;stroke-linecap:round"
           id="path203" />
      </g>
      <g
         id="text_11">
        <!-- 100% -->
        <g
           style="fill:#262626"
           transform="matrix(0.18,0,0,-0.18,59.006563,149.28937)"
           id="g214">
          <use
             xlink:href="#TimesNewRomanPSMT-31"
             id="use206"
             x="0"
             y="0"
             width="100%"
             height="100%" />
          <use
             xlink:href="#TimesNewRomanPSMT-30"
             x="50"
             id="use208"
             y="0"
             width="100%"
             height="100%" />
          <use
             xlink:href="#TimesNewRomanPSMT-30"
             x="100"
             id="use210"
             y="0"
             width="100%"
             height="100%" />
          <use
             xlink:href="#TimesNewRomanPSMT-25"
             x="150"
             id="use212"
             y="0"
             width="100%"
             height="100%" />
        </g>
      </g>
    </g>
    <g
       id="ytick_7">
      <g
         id="line2d_12">
        <path
           d="M 108,69.12 H 777.6"
           clip-path="url(#p6855552b22)"
           style="fill:none;stroke:#cccccc;stroke-width:0.8;stroke-linecap:round"
           id="path218" />
      </g>
      <g
         id="text_12">
        <!-- 120% -->
        <g
           style="fill:#262626"
           transform="matrix(0.18,0,0,-0.18,59.006563,75.369375)"
           id="g229">
          <use
             xlink:href="#TimesNewRomanPSMT-31"
             id="use221"
             x="0"
             y="0"
             width="100%"
             height="100%" />
          <use
             xlink:href="#TimesNewRomanPSMT-32"
             x="50"
             id="use223"
             y="0"
             width="100%"
             height="100%" />
          <use
             xlink:href="#TimesNewRomanPSMT-30"
             x="100"
             id="use225"
             y="0"
             width="100%"
             height="100%" />
          <use
             xlink:href="#TimesNewRomanPSMT-25"
             x="150"
             id="use227"
             y="0"
             width="100%"
             height="100%" />
        </g>
      </g>
    </g>
    <g
       id="text_13">
      <!-- $R_\mathrm{f}$ -->
      <g
         style="fill:#262626"
         transform="matrix(0,-0.27,-0.27,0,49.231094,302.895)"
         id="g241">
        <defs
           id="defs235">
          <path
             id="STIXGeneral-Italic-52"
             d="m 845,4179 h 1613 q 620,0 962,-243 343,-243 343,-659 0,-499 -422,-819 -250,-192 -839,-327 L 3072,627 Q 3181,333 3299,217 3418,102 3629,102 V 0 h -941 l -787,2074 -423,32 -352,-1300 q -83,-294 -83,-403 0,-147 83,-211 84,-64 346,-90 V 0 H -83 v 102 q 256,32 361,141 106,109 183,403 l 761,2759 q 77,294 77,403 0,115 -89,179 -77,51 -365,90 z M 1958,3795 1555,2342 q 199,-32 327,-32 569,0 889,256 320,256 320,704 0,333 -199,525 -198,192 -569,192 -313,0 -365,-192 z"
             transform="scale(0.015625)" />
          <path
             id="STIXGeneral-Regular-66"
             d="m 134,2880 h 525 q 7,384 51,598 45,215 173,432 269,461 903,461 288,0 476,-112 189,-112 189,-285 0,-108 -77,-185 -76,-77 -192,-77 -153,0 -288,230 -153,250 -339,250 -358,0 -358,-570 v -742 h 781 V 2675 H 1197 V 666 q 0,-359 102,-458 103,-99 493,-112 V 0 H 128 v 96 q 346,19 438,118 93,100 93,452 V 2675 H 134 Z"
             transform="scale(0.015625)" />
        </defs>
        <use
           xlink:href="#STIXGeneral-Italic-52"
           transform="translate(0,0.703125)"
           id="use237"
           x="0"
           y="0"
           width="100%"
           height="100%" />
        <use
           xlink:href="#STIXGeneral-Regular-66"
           transform="matrix(0.7,0,0,0.7,61.099991,-12.525)"
           id="use239"
           x="0"
           y="0"
           width="100%"
           height="100%" />
      </g>
    </g>
  </g>
  <g
     id="PolyCollection_1">
    <defs
       id="defs276">
      <path
         id="m5cf847fee5"
         d="m 138.43636,-341.57045 v 83.5716 l 6.14876,-2.08836 6.14876,-2.3064 6.14876,-2.03754 6.14876,-2.32731 6.14876,-1.72043 6.14877,-1.72384 6.14876,-1.73562 6.14876,-1.88004 6.14876,-1.674 6.14876,-1.69301 6.14876,-1.65497 6.14876,-1.79967 6.14876,-1.84508 6.14876,-1.92906 6.14876,-1.54629 6.14876,-1.46885 6.14876,-1.71722 6.14876,-1.7083 6.14876,-1.47561 6.14876,-1.56299 6.14876,-1.66772 6.14876,-1.66772 6.14876,-1.66772 6.14876,-1.66904 6.14876,-1.52565 6.14876,-1.43248 6.14876,-1.43248 6.14876,-1.50049 6.14876,-1.53679 6.14876,-1.53907 6.14876,-1.71479 6.14876,-1.31469 6.14877,-1.31792 6.14875,-1.50748 6.14876,-1.65584 6.14877,-1.60823 6.14876,-1.36344 6.14876,-1.56224 6.14876,-1.73582 6.14876,-1.73583 6.14876,-1.42268 6.14876,-1.39536 6.14876,-1.57283 6.14876,-1.57153 6.14876,-1.57367 6.14876,-1.50173 6.14876,-1.47845 6.14876,-1.45628 6.14876,-1.43066 6.14876,-1.4322 6.14876,-1.57317 6.14876,-1.7053 6.14876,-1.28662 6.14876,-1.41586 6.14876,-1.65506 6.14876,-1.65806 6.14876,-1.65807 6.14876,-1.572 6.14876,-1.4728 6.14876,-1.4728 6.14876,-1.47463 6.14876,-1.47637 6.14876,-1.47638 6.14877,-1.47637 6.14875,-1.47638 6.14876,-1.47637 6.14877,-1.43622 6.14876,-1.41006 6.14876,-1.35253 6.14876,-1.45758 6.14876,-1.41096 6.14876,-1.55508 6.14876,-1.25791 6.14876,-0.90528 6.14876,-1.19531 6.14876,-1.23961 6.14876,-1.6863 6.14876,-1.25546 6.14876,-1.43044 6.14876,-1.12272 6.14876,-1.19473 6.14876,-1.24646 6.14876,-1.25208 6.14876,-1.46204 6.14876,-1.55284 6.14876,-1.22553 6.14876,-1.42123 6.14876,-1.44135 6.14876,-1.37362 6.14876,-0.68336 6.14876,-1.23376 6.14876,-1.22015 6.14876,-1.1921 6.14877,-0.96316 6.14875,-0.9875 6.14876,-0.80269 6.14877,-0.83029 6.14876,-0.81413 6.14876,-0.67351 v -91.14279 0 l -6.14876,2.24336 -6.14876,2.24336 -6.14877,2.24336 -6.14876,2.24336 -6.14875,2.24336 -6.14877,2.24336 -6.14876,2.21145 -6.14876,2.00082 -6.14876,2.00081 -6.14876,2.00081 -6.14876,2.29323 -6.14876,2.43243 -6.14876,2.43243 -6.14876,2.43243 -6.14876,2.38583 -6.14876,2.24336 -6.14876,2.24336 -6.14876,2.20891 -6.14876,1.96387 -6.14876,1.96386 -6.14876,2.02564 -6.14876,2.23529 -6.14876,2.23528 -6.14876,2.23529 -6.14876,2.23528 -6.14876,2.23529 -6.14876,2.24053 -6.14876,2.24905 -6.14876,2.09869 -6.14876,1.72789 -6.14876,2.41566 -6.14876,2.11226 -6.14877,2.44092 -6.14876,2.44092 -6.14875,1.9048 -6.14877,1.68148 -6.14876,1.68003 -6.14876,1.68651 -6.14876,1.69038 -6.14876,1.69037 -6.14876,1.69038 -6.14876,1.69037 -6.14876,1.69038 -6.14876,1.83468 -6.14876,1.65167 -6.14876,1.54642 -6.14876,1.68626 -6.14876,1.7405 -6.14876,1.61561 -6.14876,0.85414 -6.14876,2.29394 -6.14876,1.88998 -6.14876,1.59757 -6.14876,1.75982 -6.14876,1.24799 -6.14876,1.10206 -6.14876,0.94893 -6.14876,1.23332 -6.14876,1.71158 -6.14876,1.65617 -6.14876,0.79471 -6.14876,1.53679 -6.14876,2.01224 -6.14877,1.70155 -6.14876,0.724 -6.14875,0.82091 -6.14877,1.05382 -6.14876,0.96139 -6.14876,1.27528 -6.14876,0.51621 -6.14876,0.87086 -6.14876,1.50736 -6.14876,0.69808 -6.14876,1.38637 -6.14876,0.8293 -6.14876,0.82931 -6.14876,0.93083 -6.14876,1.02307 -6.14876,0.59802 -6.14876,0.73625 -6.14876,0.81599 -6.14876,0.81947 -6.14876,0.75356 -6.14876,0.89361 -6.14876,0.82309 -6.14876,0.82342 -6.14876,0.82341 -6.14876,0.82342 -6.14876,0.8317 -6.14876,0.88777 -6.14876,0.88777 -6.14876,0.88777 -6.14876,0.88778 -6.14877,0.88777 -6.14876,0.88777 -6.14876,0.88778 -6.14876,0.88777 -6.14876,0.88777 z"
         style="stroke:#ffffff;stroke-opacity:0.15" />
    </defs>
    <g
       clip-path="url(#p6855552b22)"
       id="g280">
      <use
         xlink:href="#m5cf847fee5"
         x="0"
         y="576"
         style="fill:#1f77b4;fill-opacity:0.15;stroke:#ffffff;stroke-opacity:0.15"
         id="use278"
         width="100%"
         height="100%" />
    </g>
  </g>
  <g
     id="PolyCollection_2">
    <defs
       id="defs314">
      <path
         id="m306f1541a0"
         d="m 138.43636,-359.90859 v 90.82686 l 6.14876,-2.6379 6.14876,-2.21507 6.14876,-1.9227 6.14876,-1.94562 6.14876,-1.78405 6.14877,-1.95428 6.14876,-1.8163 6.14876,-2.14309 6.14876,-1.82063 6.14876,-1.81654 6.14876,-1.91717 6.14876,-1.81122 6.14876,-1.81122 6.14876,-1.87839 6.14876,-1.97496 6.14876,-1.66725 6.14876,-1.72711 6.14876,-1.7782 6.14876,-1.78749 6.14876,-1.78065 6.14876,-1.789 6.14876,-1.71474 6.14876,-1.59569 6.14876,-1.78309 6.14876,-2.04339 6.14876,-1.74293 6.14876,-1.65987 6.14876,-1.69945 6.14876,-1.75328 6.14876,-1.63693 6.14876,-1.63692 6.14876,-1.63693 6.14877,-1.63874 6.14875,-1.90152 6.14876,-1.90381 6.14877,-1.62455 6.14876,-1.61749 6.14876,-1.61778 6.14876,-1.61792 6.14876,-1.61803 6.14876,-1.62293 6.14876,-1.68784 6.14876,-1.69113 6.14876,-1.62352 6.14876,-1.62351 6.14876,-1.62494 6.14876,-1.68268 6.14876,-1.78471 6.14876,-1.78502 6.14876,-1.79077 6.14876,-1.79214 6.14876,-1.75791 6.14876,-1.65432 6.14876,-1.66229 6.14876,-1.53295 6.14876,-1.53345 6.14876,-1.5347 6.14876,-1.61802 6.14876,-1.73036 6.14876,-1.63797 6.14876,-1.61377 6.14876,-1.57513 6.14876,-1.64606 6.14877,-1.71851 6.14875,-1.71851 6.14876,-1.7185 6.14877,-1.71861 6.14876,-1.55426 6.14876,-1.54353 6.14876,-1.54433 6.14876,-1.54606 6.14876,-1.54237 6.14876,-1.55145 6.14876,-1.69183 6.14876,-1.7636 6.14876,-1.76555 6.14876,-1.59932 6.14876,-1.59327 6.14876,-1.59327 6.14876,-1.53661 6.14876,-1.49578 6.14876,-1.48914 6.14876,-1.45131 6.14876,-1.6145 6.14876,-1.65109 6.14876,-1.3968 6.14876,-1.40128 6.14876,-1.40074 6.14876,-1.45438 6.14876,-1.48077 6.14876,-1.49125 6.14876,-1.31511 6.14876,-1.33866 6.14877,-1.14986 6.14875,-1.16164 6.14876,-1.28939 6.14877,-1.05276 6.14876,-1.14571 6.14876,-1.18121 v -64.79615 0 l -6.14876,2.15755 -6.14876,2.15754 -6.14877,2.06038 -6.14876,1.84768 -6.14875,1.84972 -6.14877,1.85205 -6.14876,1.85205 -6.14876,1.85205 -6.14876,2.12932 -6.14876,2.15388 -6.14876,1.95132 -6.14876,1.87338 -6.14876,1.8755 -6.14876,1.87696 -6.14876,1.87696 -6.14876,1.87696 -6.14876,1.87696 -6.14876,1.87696 -6.14876,1.87696 -6.14876,1.96867 -6.14876,1.98437 -6.14876,1.98437 -6.14876,1.98438 -6.14876,1.98437 -6.14876,1.98437 -6.14876,1.98438 -6.14876,1.98437 -6.14876,1.98437 -6.14876,1.98438 -6.14876,1.98437 -6.14876,1.98437 -6.14876,1.95499 -6.14877,1.70547 -6.14876,1.46345 -6.14875,1.46224 -6.14877,1.47736 -6.14876,1.99499 -6.14876,1.38703 -6.14876,0.97675 -6.14876,1.545 -6.14876,1.83429 -6.14876,1.8343 -6.14876,1.8343 -6.14876,1.85855 -6.14876,1.85842 -6.14876,1.84713 -6.14876,1.57887 -6.14876,1.27134 -6.14876,1.27553 -6.14876,1.35471 -6.14876,1.12872 -6.14876,0.85426 -6.14876,1.30332 -6.14876,1.72868 -6.14876,1.27036 -6.14876,1.16219 -6.14876,0.64314 -6.14876,1.37412 -6.14876,1.93686 -6.14876,1.33193 -6.14876,1.09141 -6.14876,1.411 -6.14876,1.27593 -6.14877,1.26474 -6.14876,0.96542 -6.14875,0.75625 -6.14877,1.26506 -6.14876,0.67112 -6.14876,0.62562 -6.14876,0.62561 -6.14876,0.62562 -6.14876,0.73901 -6.14876,0.75487 -6.14876,0.8261 -6.14876,1.06314 -6.14876,1.0554 -6.14876,1.05539 -6.14876,0.99141 -6.14876,0.77271 -6.14876,0.77535 -6.14876,0.77534 -6.14876,0.77174 -6.14876,0.76452 -6.14876,0.76451 -6.14876,0.76796 -6.14876,0.77378 -6.14876,0.8009 -6.14876,0.98794 -6.14876,0.98794 -6.14876,0.98795 -6.14876,0.98794 -6.14876,0.84671 -6.14876,0.78723 -6.14877,0.78723 -6.14876,0.78724 -6.14876,0.78723 -6.14876,0.78723 -6.14876,0.78723 z"
         style="stroke:#ffffff;stroke-opacity:0.15" />
    </defs>
    <g
       clip-path="url(#p6855552b22)"
       id="g318">
      <use
         xlink:href="#m306f1541a0"
         x="0"
         y="576"
         style="fill:#ff7f0e;fill-opacity:0.15;stroke:#ffffff;stroke-opacity:0.15"
         id="use316"
         width="100%"
         height="100%" />
    </g>
  </g>
  <g
     id="line2d_13">
    <path
       d="m 138.43636,283.3648 6.14876,-1.39449 6.14876,-1.39449 6.14876,-1.39449 6.14876,-1.39449 6.14876,-1.39448 6.14877,-1.39449 6.14876,-1.39449 6.14876,-1.39449 6.14876,-1.39449 6.14876,-1.39449 6.14876,-1.39449 6.14876,-1.39449 6.14876,-1.39449 6.14876,-1.39448 6.14876,-1.39449 6.14876,-1.39449 6.14876,-1.39449 6.14876,-1.39449 6.14876,-1.39449 6.14876,-1.39449 6.14876,-1.39449 6.14876,-1.39449 6.14876,-1.39448 6.14876,-1.39449 6.14876,-1.39449 6.14876,-1.39449 6.14876,-1.39449 6.14876,-1.39449 6.14876,-1.39449 6.14876,-1.39449 6.14876,-1.39449 6.14876,-1.39448 6.14877,-1.39449 6.14875,-1.39449 6.14876,-1.39449 6.14877,-1.39449 6.14876,-1.39449 6.14876,-1.39449 6.14876,-1.39449 6.14876,-1.39449 6.14876,-1.39448 6.14876,-1.39449 6.14876,-1.39449 6.14876,-1.39449 6.14876,-1.39449 6.14876,-1.39449 6.14876,-1.39449 6.14876,-1.39449 6.14876,-1.39449 6.14876,-1.39448 6.14876,-1.39449 6.14876,-1.39449 6.14876,-1.39449 6.14876,-1.39449 6.14876,-1.39449 6.14876,-1.39449 6.14876,-1.39449 6.14876,-1.39449 6.14876,-1.39448 6.14876,-1.39449 6.14876,-1.39449 6.14876,-1.39449 6.14876,-1.39449 6.14877,-1.39449 6.14875,-1.39449 6.14876,-1.39449 6.14877,-1.39449 6.14876,-1.39448 6.14876,-1.39449 6.14876,-1.39449 6.14876,-1.39449 6.14876,-1.39449 6.14876,-1.39449 6.14876,-1.39449 6.14876,-1.39449 6.14876,-1.39449 6.14876,-1.39448 6.14876,-1.39449 6.14876,-1.39449 6.14876,-1.39449 6.14876,-1.39449 6.14876,-1.39449 6.14876,-1.39449 6.14876,-1.39449 6.14876,-1.39449 6.14876,-1.39448 6.14876,-1.39449 6.14876,-1.39449 6.14876,-1.39449 6.14876,-1.39449 6.14876,-1.39449 6.14876,-1.39449 6.14876,-1.39449 6.14877,-1.39449 6.14875,-1.39448 6.14876,-1.39449 6.14877,-1.39449 6.14876,-1.39449 6.14876,-1.39449"
       clip-path="url(#p6855552b22)"
       style="fill:none;stroke:#1f77b4;stroke-width:2.25;stroke-linecap:round"
       id="path321" />
  </g>
  <g
     id="line2d_14">
    <path
       d="m 138.43636,268.9504 6.14876,-1.44569 6.14876,-1.44569 6.14876,-1.44569 6.14876,-1.44569 6.14876,-1.44568 6.14877,-1.44569 6.14876,-1.44569 6.14876,-1.44569 6.14876,-1.44569 6.14876,-1.44569 6.14876,-1.44569 6.14876,-1.44569 6.14876,-1.44569 6.14876,-1.44568 6.14876,-1.44569 6.14876,-1.44569 6.14876,-1.44569 6.14876,-1.44569 6.14876,-1.44569 6.14876,-1.44569 6.14876,-1.44569 6.14876,-1.44569 6.14876,-1.44568 6.14876,-1.44569 6.14876,-1.44569 6.14876,-1.44569 6.14876,-1.44569 6.14876,-1.44569 6.14876,-1.44569 6.14876,-1.44569 6.14876,-1.44569 6.14876,-1.44568 6.14877,-1.44569 6.14875,-1.44569 6.14876,-1.44569 6.14877,-1.44569 6.14876,-1.44569 6.14876,-1.44569 6.14876,-1.44569 6.14876,-1.44569 6.14876,-1.44568 6.14876,-1.44569 6.14876,-1.44569 6.14876,-1.44569 6.14876,-1.44569 6.14876,-1.44569 6.14876,-1.44569 6.14876,-1.44569 6.14876,-1.44569 6.14876,-1.44568 6.14876,-1.44569 6.14876,-1.44569 6.14876,-1.44569 6.14876,-1.44569 6.14876,-1.44569 6.14876,-1.44569 6.14876,-1.44569 6.14876,-1.44569 6.14876,-1.44568 6.14876,-1.44569 6.14876,-1.44569 6.14876,-1.44569 6.14876,-1.44569 6.14877,-1.44569 6.14875,-1.44569 6.14876,-1.44569 6.14877,-1.44569 6.14876,-1.44568 6.14876,-1.44569 6.14876,-1.44569 6.14876,-1.44569 6.14876,-1.44569 6.14876,-1.44569 6.14876,-1.44569 6.14876,-1.44569 6.14876,-1.44569 6.14876,-1.44568 6.14876,-1.44569 6.14876,-1.44569 6.14876,-1.44569 6.14876,-1.44569 6.14876,-1.44569 6.14876,-1.44569 6.14876,-1.44569 6.14876,-1.44569 6.14876,-1.44568 6.14876,-1.44569 6.14876,-1.44569 6.14876,-1.44569 6.14876,-1.44569 6.14876,-1.44569 6.14876,-1.44569 6.14876,-1.44569 6.14877,-1.44569 6.14875,-1.44568 6.14876,-1.44569 6.14877,-1.44569 6.14876,-1.44569 6.14876,-1.44569"
       clip-path="url(#p6855552b22)"
       style="fill:none;stroke:#ff7f0e;stroke-width:2.25;stroke-linecap:round"
       id="path324" />
  </g>
  <g
     id="patch_3">
    <path
       d="M 108,512.64 V 69.12"
       style="fill:none;stroke:#cccccc;stroke-width:2;stroke-linecap:square;stroke-linejoin:miter"
       id="path327" />
  </g>
  <g
     id="patch_4">
    <path
       d="M 777.6,512.64 V 69.12"
       style="fill:none;stroke:#cccccc;stroke-width:0.8;stroke-linecap:square;stroke-linejoin:miter"
       id="path330" />
  </g>
  <g
     id="patch_5">
    <path
       d="M 108,512.64 H 777.6"
       style="fill:none;stroke:#cccccc;stroke-width:2;stroke-linecap:square;stroke-linejoin:miter"
       id="path333" />
  </g>
  <g
     id="patch_6">
    <path
       d="M 108,69.12 H 777.6"
       style="fill:none;stroke:#cccccc;stroke-width:0.8;stroke-linecap:square;stroke-linejoin:miter"
       id="path336" />
  </g>
  <g
     id="legend_1">
    <g
       id="patch_7">
      <path
         d="M 618.12797,502.14 H 762.9 q 4.2,0 4.2,-4.2 v -57.28406 q 0,-4.2 -4.2,-4.2 H 618.12797 q -4.2,0 -4.2,4.2 V 497.94 q 0,4.2 4.2,4.2 z"
         style="opacity:0.8;fill:#ffffff;stroke:#cccccc;stroke-linejoin:miter"
         id="path339" />
    </g>
    <g
       id="PathCollection_3">
      <g
         id="g344">
        <use
           xlink:href="#m9e3faefaff"
           x="643.32794"
           y="454.04343"
           style="fill:#1f77b4;fill-opacity:0.8;stroke:#1f77b4;stroke-opacity:0.8"
           id="use342"
           width="100%"
           height="100%" />
      </g>
    </g>
    <g
       id="text_14">
      <!-- version 1 -->
      <g
         style="fill:#262626"
         transform="matrix(0.21,0,0,-0.21,681.12797,459.55594)"
         id="g374">
        <defs
           id="defs354">
          <path
             id="TimesNewRomanPSMT-76"
             d="m 53,2863 h 1347 v -116 h -87 q -122,0 -186,-60 -64,-59 -64,-159 0,-109 65,-259 l 666,-1581 669,1640 q 71,175 71,266 0,44 -25,72 -34,47 -87,64 -53,17 -216,17 v 116 h 935 v -116 q -163,-13 -225,-66 -110,-93 -197,-312 L 1703,-88 H 1575 L 553,2328 q -69,169 -132,242 -62,74 -158,124 -54,28 -210,53 z"
             transform="scale(0.015625)" />
          <path
             id="TimesNewRomanPSMT-65"
             d="m 681,1784 q -3,-637 310,-1000 312,-362 734,-362 281,0 489,154 208,155 349,530 l 96,-62 Q 2594,616 2278,264 1963,-88 1488,-88 972,-88 605,314 238,716 238,1394 q 0,734 376,1145 377,411 945,411 482,0 791,-317 309,-317 309,-849 z m 0,182 h 1325 q -15,275 -65,387 -78,175 -233,275 -155,100 -324,100 -259,0 -464,-202 -204,-201 -239,-560 z"
             transform="scale(0.015625)" />
          <path
             id="TimesNewRomanPSMT-72"
             d="m 1038,2947 v -644 q 359,644 737,644 172,0 284,-105 113,-104 113,-242 0,-122 -82,-207 -81,-84 -193,-84 -109,0 -245,108 -136,108 -202,108 -56,0 -122,-62 -140,-129 -290,-422 V 669 q 0,-238 59,-360 41,-84 144,-140 103,-56 297,-56 V 0 H 72 v 113 q 219,0 325,68 78,50 109,160 16,53 16,303 v 1109 q 0,500 -21,595 -20,96 -75,139 -54,44 -135,44 -97,0 -219,-47 l -31,113 865,350 z"
             transform="scale(0.015625)" />
          <path
             id="TimesNewRomanPSMT-73"
             d="m 2050,2947 v -975 h -103 q -119,459 -305,625 -186,166 -473,166 -219,0 -354,-116 -134,-116 -134,-256 0,-175 100,-300 97,-128 394,-272 l 456,-222 Q 2266,1288 2266,781 2266,391 1970,151 1675,-88 1309,-88 1047,-88 709,6 606,38 541,38 469,38 428,-44 H 325 V 978 H 428 Q 516,541 762,319 1009,97 1316,97 q 215,0 351,126 136,127 136,305 0,216 -152,363 -151,147 -604,372 -453,225 -594,406 -140,178 -140,450 0,353 242,590 242,238 626,238 169,0 410,-72 159,-47 212,-47 50,0 78,22 28,22 66,97 z"
             transform="scale(0.015625)" />
          <path
             id="TimesNewRomanPSMT-69"
             d="m 928,4444 q 131,0 223,-93 93,-92 93,-223 0,-131 -93,-225 -92,-94 -223,-94 -131,0 -225,94 -94,94 -94,225 0,131 92,223 93,93 227,93 z M 1188,2947 V 647 q 0,-269 39,-358 39,-89 115,-133 77,-43 280,-43 V 0 H 231 v 113 q 210,0 281,40 72,41 114,134 43,94 43,360 v 1103 q 0,466 -28,603 -22,100 -69,139 -47,39 -128,39 -88,0 -213,-47 l -43,113 862,350 z"
             transform="scale(0.015625)" />
          <path
             id="TimesNewRomanPSMT-6f"
             d="m 1600,2947 q 650,0 1044,-494 334,-422 334,-969 0,-384 -185,-778 Q 2609,313 2286,112 1963,-88 1566,-88 919,-88 538,428 216,863 216,1403 q 0,394 195,783 195,389 514,575 319,186 675,186 z m -97,-203 q -165,0 -333,-99 -167,-98 -270,-345 -103,-247 -103,-634 0,-625 248,-1079 249,-453 655,-453 303,0 500,250 197,250 197,860 0,762 -328,1200 -222,300 -566,300 z"
             transform="scale(0.015625)" />
          <path
             id="TimesNewRomanPSMT-6e"
             d="m 1034,2341 q 504,606 960,606 234,0 403,-117 169,-117 269,-386 68,-188 68,-575 V 647 q 0,-272 44,-369 35,-78 111,-122 77,-43 283,-43 V 0 H 1756 v 113 h 60 q 200,0 279,60 80,61 111,180 13,47 13,294 v 1172 q 0,390 -102,567 -101,177 -342,177 -372,0 -741,-407 V 647 q 0,-291 35,-359 44,-91 120,-133 77,-42 311,-42 V 0 H 84 v 113 h 63 q 219,0 295,110 77,111 77,424 v 1062 q 0,516 -24,628 -23,113 -72,153 -48,41 -129,41 -88,0 -210,-47 l -46,113 862,350 h 134 z"
             transform="scale(0.015625)" />
        </defs>
        <use
           xlink:href="#TimesNewRomanPSMT-76"
           id="use356"
           x="0"
           y="0"
           width="100%"
           height="100%" />
        <use
           xlink:href="#TimesNewRomanPSMT-65"
           x="50"
           id="use358"
           y="0"
           width="100%"
           height="100%" />
        <use
           xlink:href="#TimesNewRomanPSMT-72"
           x="94.384766"
           id="use360"
           y="0"
           width="100%"
           height="100%" />
        <use
           xlink:href="#TimesNewRomanPSMT-73"
           x="127.68555"
           id="use362"
           y="0"
           width="100%"
           height="100%" />
        <use
           xlink:href="#TimesNewRomanPSMT-69"
           x="166.60156"
           id="use364"
           y="0"
           width="100%"
           height="100%" />
        <use
           xlink:href="#TimesNewRomanPSMT-6f"
           x="194.38477"
           id="use366"
           y="0"
           width="100%"
           height="100%" />
        <use
           xlink:href="#TimesNewRomanPSMT-6e"
           x="244.38477"
           id="use368"
           y="0"
           width="100%"
           height="100%" />
        <use
           xlink:href="#TimesNewRomanPSMT-20"
           x="294.38477"
           id="use370"
           y="0"
           width="100%"
           height="100%" />
        <use
           xlink:href="#TimesNewRomanPSMT-31"
           x="319.38477"
           id="use372"
           y="0"
           width="100%"
           height="100%" />
      </g>
    </g>
    <g
       id="PathCollection_4">
      <g
         id="g379">
        <use
           xlink:href="#m2968c670ec"
           x="643.32794"
           y="483.73547"
           style="fill:#ff7f0e;fill-opacity:0.8;stroke:#ff7f0e;stroke-opacity:0.8"
           id="use377"
           width="100%"
           height="100%" />
      </g>
    </g>
    <g
       id="text_15">
      <!-- version 2 -->
      <g
         style="fill:#262626"
         transform="matrix(0.21,0,0,-0.21,681.12797,489.24797)"
         id="g400">
        <use
           xlink:href="#TimesNewRomanPSMT-76"
           id="use382"
           x="0"
           y="0"
           width="100%"
           height="100%" />
        <use
           xlink:href="#TimesNewRomanPSMT-65"
           x="50"
           id="use384"
           y="0"
           width="100%"
           height="100%" />
        <use
           xlink:href="#TimesNewRomanPSMT-72"
           x="94.384766"
           id="use386"
           y="0"
           width="100%"
           height="100%" />
        <use
           xlink:href="#TimesNewRomanPSMT-73"
           x="127.68555"
           id="use388"
           y="0"
           width="100%"
           height="100%" />
        <use
           xlink:href="#TimesNewRomanPSMT-69"
           x="166.60156"
           id="use390"
           y="0"
           width="100%"
           height="100%" />
        <use
           xlink:href="#TimesNewRomanPSMT-6f"
           x="194.38477"
           id="use392"
           y="0"
           width="100%"
           height="100%" />
        <use
           xlink:href="#TimesNewRomanPSMT-6e"
           x="244.38477"
           id="use394"
           y="0"
           width="100%"
           height="100%" />
        <use
           xlink:href="#TimesNewRomanPSMT-20"
           x="294.38477"
           id="use396"
           y="0"
           width="100%"
           height="100%" />
        <use
           xlink:href="#TimesNewRomanPSMT-32"
           x="319.38477"
           id="use398"
           y="0"
           width="100%"
           height="100%" />
      </g>
    </g>
  </g>
  <defs
     id="defs409">
    <clipPath
       id="p6855552b22">
      <rect
         x="108"
         y="69.12"
         width="669.6"
         height="443.52"
         id="rect406" />
    </clipPath>
  </defs>
  <rect
     style="fill:#ffffff;stroke:#ffffff;stroke-width:0.568289;stroke-dashoffset:75.5906;stroke-opacity:1"
     id="rect1259"
     width="232.97099"
     height="66.959839"
     x="532.17816"
     y="75.943054" />
  <path
     style="fill:none;stroke:#cccccc;stroke-width:0.75px;stroke-linecap:butt;stroke-linejoin:miter;stroke-opacity:1"
     d="m 686.29091,69.12 v 73.06452"
     id="path1909" />
  <path
     style="fill:none;stroke:#cccccc;stroke-width:0.75px;stroke-linecap:butt;stroke-linejoin:miter;stroke-opacity:1"
     d="m 564.54545,69.12 v 73.06452"
     id="path1911" />
  <path
     style="fill:none;stroke:#cccccc;stroke-width:0.75px;stroke-linecap:butt;stroke-linejoin:miter;stroke-opacity:1"
     d="M 777.6,143.04 H 529.08502"
     id="path2106" />
  <g
     id="PathCollection_1">
    <defs
       id="defs246">
      <path
         id="m9e3faefaff"
         d="m 0,4.743416 c 1.257969,0 2.464584,-0.499796 3.354102,-1.389314 C 4.24362,2.464584 4.743416,1.257969 4.743416,0 4.743416,-1.257969 4.24362,-2.464584 3.354102,-3.354102 2.464584,-4.24362 1.257969,-4.743416 0,-4.743416 c -1.257969,0 -2.464584,0.499796 -3.354102,1.389314 C -4.24362,-2.464584 -4.743416,-1.257969 -4.743416,0 c 0,1.257969 0.499796,2.464584 1.389314,3.354102 C -2.464584,4.24362 -1.257969,4.743416 0,4.743416 Z"
         style="stroke:#1f77b4;stroke-opacity:0.8" />
    </defs>
    <g
       clip-path="url(#p6855552b22)"
       id="g272">
      <use
         xlink:href="#m9e3faefaff"
         x="138.43637"
         y="334.1232"
         style="fill:#1f77b4;fill-opacity:0.8;stroke:#1f77b4;stroke-opacity:0.8"
         id="use248"
         width="100%"
         height="100%" />
      <use
         xlink:href="#m9e3faefaff"
         x="138.43637"
         y="331.90561"
         style="fill:#1f77b4;fill-opacity:0.8;stroke:#1f77b4;stroke-opacity:0.8"
         id="use250"
         width="100%"
         height="100%" />
      <use
         xlink:href="#m9e3faefaff"
         x="138.43637"
         y="282.74881"
         style="fill:#1f77b4;fill-opacity:0.8;stroke:#1f77b4;stroke-opacity:0.8"
         id="use252"
         width="100%"
         height="100%" />
      <use
         xlink:href="#m9e3faefaff"
         x="290.61819"
         y="270.1824"
         style="fill:#1f77b4;fill-opacity:0.8;stroke:#1f77b4;stroke-opacity:0.8"
         id="use254"
         width="100%"
         height="100%" />
      <use
         xlink:href="#m9e3faefaff"
         x="290.61819"
         y="204.7632"
         style="fill:#1f77b4;fill-opacity:0.8;stroke:#1f77b4;stroke-opacity:0.8"
         id="use256"
         width="100%"
         height="100%" />
      <use
         xlink:href="#m9e3faefaff"
         x="290.61819"
         y="184.0656"
         style="fill:#1f77b4;fill-opacity:0.8;stroke:#1f77b4;stroke-opacity:0.8"
         id="use258"
         width="100%"
         height="100%" />
      <use
         xlink:href="#m9e3faefaff"
         x="442.79999"
         y="245.7888"
         style="fill:#1f77b4;fill-opacity:0.8;stroke:#1f77b4;stroke-opacity:0.8"
         id="use260"
         width="100%"
         height="100%" />
      <use
         xlink:href="#m9e3faefaff"
         x="442.79999"
         y="184.0656"
         style="fill:#1f77b4;fill-opacity:0.8;stroke:#1f77b4;stroke-opacity:0.8"
         id="use262"
         width="100%"
         height="100%" />
      <use
         xlink:href="#m9e3faefaff"
         x="442.79999"
         y="147.10561"
         style="fill:#1f77b4;fill-opacity:0.8;stroke:#1f77b4;stroke-opacity:0.8"
         id="use264"
         width="100%"
         height="100%" />
      <use
         xlink:href="#m9e3faefaff"
         x="747.16364"
         y="184.0656"
         style="fill:#1f77b4;fill-opacity:0.8;stroke:#1f77b4;stroke-opacity:0.8"
         id="use266"
         width="100%"
         height="100%" />
      <use
         xlink:href="#m9e3faefaff"
         x="747.16364"
         y="143.03999"
         style="fill:#1f77b4;fill-opacity:0.8;stroke:#1f77b4;stroke-opacity:0.8"
         id="use268"
         width="100%"
         height="100%" />
      <use
         xlink:href="#m9e3faefaff"
         x="747.16364"
         y="163.73759"
         style="fill:#1f77b4;fill-opacity:0.8;stroke:#1f77b4;stroke-opacity:0.8"
         id="use270"
         width="100%"
         height="100%" />
    </g>
  </g>
  <g
     id="PathCollection_2">
    <defs
       id="defs284">
      <path
         id="m2968c670ec"
         d="m 0,4.743416 c 1.257969,0 2.464584,-0.499796 3.354102,-1.389314 C 4.24362,2.464584 4.743416,1.257969 4.743416,0 4.743416,-1.257969 4.24362,-2.464584 3.354102,-3.354102 2.464584,-4.24362 1.257969,-4.743416 0,-4.743416 c -1.257969,0 -2.464584,0.499796 -3.354102,1.389314 C -4.24362,-2.464584 -4.743416,-1.257969 -4.743416,0 c 0,1.257969 0.499796,2.464584 1.389314,3.354102 C -2.464584,4.24362 -1.257969,4.743416 0,4.743416 Z"
         style="stroke:#ff7f0e;stroke-opacity:0.8" />
    </defs>
    <g
       clip-path="url(#p6855552b22)"
       id="g310">
      <use
         xlink:href="#m2968c670ec"
         x="138.43637"
         y="327.84"
         style="fill:#ff7f0e;fill-opacity:0.8;stroke:#ff7f0e;stroke-opacity:0.8"
         id="use286"
         width="100%"
         height="100%" />
      <use
         xlink:href="#m2968c670ec"
         x="138.43637"
         y="317.49121"
         style="fill:#ff7f0e;fill-opacity:0.8;stroke:#ff7f0e;stroke-opacity:0.8"
         id="use288"
         width="100%"
         height="100%" />
      <use
         xlink:href="#m2968c670ec"
         x="138.43637"
         y="266.11679"
         style="fill:#ff7f0e;fill-opacity:0.8;stroke:#ff7f0e;stroke-opacity:0.8"
         id="use290"
         width="100%"
         height="100%" />
      <use
         xlink:href="#m2968c670ec"
         x="290.61819"
         y="256.1376"
         style="fill:#ff7f0e;fill-opacity:0.8;stroke:#ff7f0e;stroke-opacity:0.8"
         id="use292"
         width="100%"
         height="100%" />
      <use
         xlink:href="#m2968c670ec"
         x="290.61819"
         y="194.4144"
         style="fill:#ff7f0e;fill-opacity:0.8;stroke:#ff7f0e;stroke-opacity:0.8"
         id="use294"
         width="100%"
         height="100%" />
      <use
         xlink:href="#m2968c670ec"
         x="290.61819"
         y="143.03999"
         style="fill:#ff7f0e;fill-opacity:0.8;stroke:#ff7f0e;stroke-opacity:0.8"
         id="use296"
         width="100%"
         height="100%" />
      <use
         xlink:href="#m2968c670ec"
         x="442.79999"
         y="214.7424"
         style="fill:#ff7f0e;fill-opacity:0.8;stroke:#ff7f0e;stroke-opacity:0.8"
         id="use298"
         width="100%"
         height="100%" />
      <use
         xlink:href="#m2968c670ec"
         x="442.79999"
         y="143.03999"
         style="fill:#ff7f0e;fill-opacity:0.8;stroke:#ff7f0e;stroke-opacity:0.8"
         id="use300"
         width="100%"
         height="100%" />
      <use
         xlink:href="#m2968c670ec"
         x="442.79999"
         y="184.0656"
         style="fill:#ff7f0e;fill-opacity:0.8;stroke:#ff7f0e;stroke-opacity:0.8"
         id="use302"
         width="100%"
         height="100%" />
      <use
         xlink:href="#m2968c670ec"
         x="747.16364"
         y="143.03999"
         style="fill:#ff7f0e;fill-opacity:0.8;stroke:#ff7f0e;stroke-opacity:0.8"
         id="use304"
         width="100%"
         height="100%" />
      <use
         xlink:href="#m2968c670ec"
         x="747.16364"
         y="143.03999"
         style="fill:#ff7f0e;fill-opacity:0.8;stroke:#ff7f0e;stroke-opacity:0.8"
         id="use306"
         width="100%"
         height="100%" />
      <use
         xlink:href="#m2968c670ec"
         x="747.16364"
         y="143.03999"
         style="fill:#ff7f0e;fill-opacity:0.8;stroke:#ff7f0e;stroke-opacity:0.8"
         id="use308"
         width="100%"
         height="100%" />
    </g>
  </g>
</svg>
