<?xml version="1.0" encoding="UTF-8" standalone="no"?>
<svg
   width="864pt"
   height="576pt"
   viewBox="0 0 864 576"
   version="1.1"
   id="svg411"
   sodipodi:docname="Tset vs Rr.svg"
   inkscape:version="1.1.1 (3bf5ae0d25, 2021-09-20)"
   xmlns:inkscape="http://www.inkscape.org/namespaces/inkscape"
   xmlns:sodipodi="http://sodipodi.sourceforge.net/DTD/sodipodi-0.dtd"
   xmlns:xlink="http://www.w3.org/1999/xlink"
   xmlns="http://www.w3.org/2000/svg"
   xmlns:svg="http://www.w3.org/2000/svg"
   xmlns:rdf="http://www.w3.org/1999/02/22-rdf-syntax-ns#"
   xmlns:cc="http://creativecommons.org/ns#"
   xmlns:dc="http://purl.org/dc/elements/1.1/">
  <sodipodi:namedview
     id="namedview413"
     pagecolor="#ffffff"
     bordercolor="#666666"
     borderopacity="1.0"
     inkscape:pageshadow="2"
     inkscape:pageopacity="0.0"
     inkscape:pagecheckerboard="0"
     inkscape:document-units="pt"
     showgrid="false"
     inkscape:zoom="0.6619919"
     inkscape:cx="668.43718"
     inkscape:cy="331.57505"
     inkscape:window-width="1920"
     inkscape:window-height="1017"
     inkscape:window-x="-8"
     inkscape:window-y="-8"
     inkscape:window-maximized="1"
     inkscape:current-layer="svg411" />
  <metadata
     id="metadata2">
    <rdf:RDF>
      <cc:Work>
        <dc:type
           rdf:resource="http://purl.org/dc/dcmitype/StillImage" />
        <dc:date>2023-11-11T12:14:28.386211</dc:date>
        <dc:format>image/svg+xml</dc:format>
        <dc:creator>
          <cc:Agent>
            <dc:title>Matplotlib v3.7.2, https://matplotlib.org/</dc:title>
          </cc:Agent>
        </dc:creator>
      </cc:Work>
    </rdf:RDF>
  </metadata>
  <defs
     id="defs6">
    <style
       type="text/css"
       id="style4">*{stroke-linejoin: round; stroke-linecap: butt}</style>
  </defs>
  <g
     id="patch_2">
    <path
       d="M 108,512.64 H 777.6 V 69.12 H 108 Z"
       style="fill:#ffffff"
       id="path11" />
  </g>
  <g
     id="matplotlib.axis_1">
    <g
       id="xtick_1">
      <g
         id="line2d_1">
        <path
           d="M 199.30909,512.64 V 69.12"
           clip-path="url(#p9a42573305)"
           style="fill:none;stroke:#cccccc;stroke-width:0.8;stroke-linecap:round"
           id="path14" />
      </g>
      <g
         id="text_1">
        <!-- 160 °C -->
        <g
           style="fill:#262626"
           transform="matrix(0.18,0,0,-0.18,173.95722,532.13875)"
           id="g37">
          <defs
             id="defs23">
            <path
               id="TimesNewRomanPSMT-31"
               d="m 750,3822 1031,503 h 103 V 747 q 0,-356 30,-444 30,-87 123,-134 94,-47 382,-53 V 0 H 825 v 116 q 300,6 387,51 88,46 122,122 35,77 35,458 v 2287 q 0,463 -31,594 -22,100 -80,147 -58,47 -139,47 -116,0 -322,-97 z"
               transform="scale(0.015625)" />
            <path
               id="TimesNewRomanPSMT-36"
               d="m 2869,4325 v -116 q -413,-40 -674,-164 -261,-123 -516,-376 -254,-253 -421,-564 -167,-311 -280,-739 450,309 903,309 435,0 753,-350 319,-350 319,-900 0,-531 -322,-969 -387,-531 -1025,-531 -434,0 -737,288 -594,559 -594,1450 0,568 228,1080 228,513 651,910 424,397 811,534 388,138 723,138 z M 925,2138 q -56,-422 -56,-682 0,-300 111,-652 111,-351 329,-557 160,-147 388,-147 272,0 486,256 214,257 214,732 0,534 -213,924 -212,391 -603,391 -118,0 -254,-50 -136,-50 -402,-215 z"
               transform="scale(0.015625)" />
            <path
               id="TimesNewRomanPSMT-30"
               d="m 231,2094 q 0,725 219,1248 219,524 581,780 282,203 582,203 487,0 875,-497 484,-615 484,-1669 0,-737 -213,-1253 Q 2547,391 2217,158 1888,-75 1581,-75 975,-75 572,641 231,1244 231,2094 Z m 613,-78 q 0,-875 215,-1428 179,-466 532,-466 168,0 349,151 182,152 276,508 143,538 143,1516 0,725 -150,1209 -112,360 -290,510 -128,103 -310,103 -212,0 -378,-191 -225,-259 -306,-816 -81,-556 -81,-1096 z"
               transform="scale(0.015625)" />
            <path
               id="TimesNewRomanPSMT-20"
               transform="scale(0.015625)"
               d="" />
            <path
               id="TimesNewRomanPSMT-b0"
               d="m 1266,4331 q 403,0 682,-281 280,-281 280,-681 0,-397 -281,-679 -281,-281 -681,-281 -397,0 -679,281 -281,282 -281,679 0,400 280,681 280,281 680,281 z m 0,-262 q -291,0 -494,-203 -203,-203 -203,-494 0,-288 203,-493 203,-204 494,-204 287,0 492,204 205,205 205,493 0,291 -204,494 -203,203 -493,203 z"
               transform="scale(0.015625)" />
            <path
               id="TimesNewRomanPSMT-43"
               d="m 3853,4334 97,-1440 h -97 q -194,647 -553,931 -359,284 -862,284 -422,0 -763,-214 -341,-214 -536,-683 -195,-468 -195,-1165 0,-575 184,-997 185,-422 555,-647 370,-225 845,-225 413,0 728,176 316,177 694,702 l 97,-62 Q 3728,428 3303,165 2878,-97 2294,-97 1241,-97 663,684 231,1266 231,2053 q 0,635 284,1166 285,531 783,823 499,292 1090,292 459,0 906,-225 131,-68 187,-68 85,0 147,59 81,84 116,234 z"
               transform="scale(0.015625)" />
          </defs>
          <use
             xlink:href="#TimesNewRomanPSMT-31"
             id="use25"
             x="0"
             y="0"
             width="100%"
             height="100%" />
          <use
             xlink:href="#TimesNewRomanPSMT-36"
             x="50"
             id="use27"
             y="0"
             width="100%"
             height="100%" />
          <use
             xlink:href="#TimesNewRomanPSMT-30"
             x="100"
             id="use29"
             y="0"
             width="100%"
             height="100%" />
          <use
             xlink:href="#TimesNewRomanPSMT-20"
             x="150"
             id="use31"
             y="0"
             width="100%"
             height="100%" />
          <use
             xlink:href="#TimesNewRomanPSMT-b0"
             x="175"
             id="use33"
             y="0"
             width="100%"
             height="100%" />
          <use
             xlink:href="#TimesNewRomanPSMT-43"
             x="214.99023"
             id="use35"
             y="0"
             width="100%"
             height="100%" />
        </g>
      </g>
    </g>
    <g
       id="xtick_2">
      <g
         id="line2d_2">
        <path
           d="M 321.05455,512.64 V 69.12"
           clip-path="url(#p9a42573305)"
           style="fill:none;stroke:#cccccc;stroke-width:0.8;stroke-linecap:round"
           id="path41" />
      </g>
      <g
         id="text_2">
        <!-- 180 °C -->
        <g
           style="fill:#262626"
           transform="matrix(0.18,0,0,-0.18,295.70267,532.13875)"
           id="g59">
          <defs
             id="defs45">
            <path
               id="TimesNewRomanPSMT-38"
               d="m 1228,2134 q -503,413 -649,663 -145,250 -145,519 0,412 319,710 319,299 847,299 513,0 825,-278 313,-278 313,-634 0,-238 -169,-485 -169,-247 -703,-581 550,-425 728,-669 237,-319 237,-672 0,-447 -341,-764 -340,-317 -893,-317 -603,0 -941,378 -268,303 -268,663 0,281 189,557 189,277 651,611 z m 491,335 q 375,337 475,532 100,196 100,443 0,328 -185,514 -184,186 -503,186 -318,0 -518,-185 -200,-184 -200,-431 0,-162 82,-325 83,-162 236,-309 z M 1375,2016 Q 1116,1797 991,1539 866,1281 866,981 866,578 1086,336 1306,94 1647,94 q 337,0 540,190 204,191 204,463 0,225 -119,403 -222,331 -897,866 z"
               transform="scale(0.015625)" />
          </defs>
          <use
             xlink:href="#TimesNewRomanPSMT-31"
             id="use47"
             x="0"
             y="0"
             width="100%"
             height="100%" />
          <use
             xlink:href="#TimesNewRomanPSMT-38"
             x="50"
             id="use49"
             y="0"
             width="100%"
             height="100%" />
          <use
             xlink:href="#TimesNewRomanPSMT-30"
             x="100"
             id="use51"
             y="0"
             width="100%"
             height="100%" />
          <use
             xlink:href="#TimesNewRomanPSMT-20"
             x="150"
             id="use53"
             y="0"
             width="100%"
             height="100%" />
          <use
             xlink:href="#TimesNewRomanPSMT-b0"
             x="175"
             id="use55"
             y="0"
             width="100%"
             height="100%" />
          <use
             xlink:href="#TimesNewRomanPSMT-43"
             x="214.99023"
             id="use57"
             y="0"
             width="100%"
             height="100%" />
        </g>
      </g>
    </g>
    <g
       id="xtick_3">
      <g
         id="line2d_3">
        <path
           d="M 442.8,512.64 V 69.12"
           clip-path="url(#p9a42573305)"
           style="fill:none;stroke:#cccccc;stroke-width:0.8;stroke-linecap:round"
           id="path63" />
      </g>
      <g
         id="text_3">
        <!-- 200 °C -->
        <g
           style="fill:#262626"
           transform="matrix(0.18,0,0,-0.18,417.44812,532.13875)"
           id="g81">
          <defs
             id="defs67">
            <path
               id="TimesNewRomanPSMT-32"
               d="M 2934,816 2638,0 H 138 v 116 q 1103,1006 1553,1643 450,638 450,1166 0,403 -247,662 -247,260 -591,260 -312,0 -561,-183 Q 494,3481 375,3128 H 259 q 79,578 402,887 323,310 808,310 515,0 860,-331 346,-331 346,-781 0,-322 -150,-644 Q 2294,2063 1775,1497 997,647 803,472 h 1106 q 338,0 474,25 136,25 245,101 110,77 191,218 z"
               transform="scale(0.015625)" />
          </defs>
          <use
             xlink:href="#TimesNewRomanPSMT-32"
             id="use69"
             x="0"
             y="0"
             width="100%"
             height="100%" />
          <use
             xlink:href="#TimesNewRomanPSMT-30"
             x="50"
             id="use71"
             y="0"
             width="100%"
             height="100%" />
          <use
             xlink:href="#TimesNewRomanPSMT-30"
             x="100"
             id="use73"
             y="0"
             width="100%"
             height="100%" />
          <use
             xlink:href="#TimesNewRomanPSMT-20"
             x="150"
             id="use75"
             y="0"
             width="100%"
             height="100%" />
          <use
             xlink:href="#TimesNewRomanPSMT-b0"
             x="175"
             id="use77"
             y="0"
             width="100%"
             height="100%" />
          <use
             xlink:href="#TimesNewRomanPSMT-43"
             x="214.99023"
             id="use79"
             y="0"
             width="100%"
             height="100%" />
        </g>
      </g>
    </g>
    <g
       id="xtick_4">
      <g
         id="line2d_4">
        <path
           d="M 564.54545,512.64 V 69.12"
           clip-path="url(#p9a42573305)"
           style="fill:none;stroke:#cccccc;stroke-width:0.8;stroke-linecap:round"
           id="path85" />
      </g>
      <g
         id="text_4">
        <!-- 220 °C -->
        <g
           style="fill:#262626"
           transform="matrix(0.18,0,0,-0.18,539.19358,532.13875)"
           id="g100">
          <use
             xlink:href="#TimesNewRomanPSMT-32"
             id="use88"
             x="0"
             y="0"
             width="100%"
             height="100%" />
          <use
             xlink:href="#TimesNewRomanPSMT-32"
             x="50"
             id="use90"
             y="0"
             width="100%"
             height="100%" />
          <use
             xlink:href="#TimesNewRomanPSMT-30"
             x="100"
             id="use92"
             y="0"
             width="100%"
             height="100%" />
          <use
             xlink:href="#TimesNewRomanPSMT-20"
             x="150"
             id="use94"
             y="0"
             width="100%"
             height="100%" />
          <use
             xlink:href="#TimesNewRomanPSMT-b0"
             x="175"
             id="use96"
             y="0"
             width="100%"
             height="100%" />
          <use
             xlink:href="#TimesNewRomanPSMT-43"
             x="214.99023"
             id="use98"
             y="0"
             width="100%"
             height="100%" />
        </g>
      </g>
    </g>
    <g
       id="xtick_5">
      <g
         id="line2d_5">
        <path
           d="M 686.29091,512.64 V 69.12"
           clip-path="url(#p9a42573305)"
           style="fill:none;stroke:#cccccc;stroke-width:0.8;stroke-linecap:round"
           id="path104" />
      </g>
      <g
         id="text_5">
        <!-- 240 °C -->
        <g
           style="fill:#262626"
           transform="matrix(0.18,0,0,-0.18,660.93903,532.13875)"
           id="g122">
          <defs
             id="defs108">
            <path
               id="TimesNewRomanPSMT-34"
               d="M 2978,1563 V 1119 H 2409 V 0 H 1894 V 1119 H 100 v 400 l 1966,2806 h 343 V 1563 Z m -1084,0 V 3666 L 406,1563 Z"
               transform="scale(0.015625)" />
          </defs>
          <use
             xlink:href="#TimesNewRomanPSMT-32"
             id="use110"
             x="0"
             y="0"
             width="100%"
             height="100%" />
          <use
             xlink:href="#TimesNewRomanPSMT-34"
             x="50"
             id="use112"
             y="0"
             width="100%"
             height="100%" />
          <use
             xlink:href="#TimesNewRomanPSMT-30"
             x="100"
             id="use114"
             y="0"
             width="100%"
             height="100%" />
          <use
             xlink:href="#TimesNewRomanPSMT-20"
             x="150"
             id="use116"
             y="0"
             width="100%"
             height="100%" />
          <use
             xlink:href="#TimesNewRomanPSMT-b0"
             x="175"
             id="use118"
             y="0"
             width="100%"
             height="100%" />
          <use
             xlink:href="#TimesNewRomanPSMT-43"
             x="214.99023"
             id="use120"
             y="0"
             width="100%"
             height="100%" />
        </g>
      </g>
    </g>
    <g
       id="text_6">
      <!-- $T_\mathrm{set}$ -->
      <g
         style="fill:#262626"
         transform="matrix(0.27,0,0,-0.27,424.17,558.73719)"
         id="g140">
        <defs
           id="defs130">
          <path
             id="STIXGeneral-Italic-54"
             d="m 4051,4179 -281,-1049 -109,12 q 19,160 19,295 0,518 -646,518 H 2662 L 1786,819 q -90,-313 -90,-422 0,-147 70,-202 71,-54 269,-73 l 224,-20 V 0 H 416 v 102 q 333,32 473,128 141,96 212,352 l 915,3373 Q 1254,3955 988,3817 723,3680 493,3162 l -115,25 268,992 z"
             transform="scale(0.015625)" />
          <path
             id="STIXGeneral-Regular-73"
             d="m 998,1926 666,-403 q 320,-192 441,-359 122,-166 122,-428 0,-320 -266,-560 Q 1696,-64 1331,-64 1030,-64 864,-6 691,51 570,51 461,51 416,-26 H 333 V 979 H 435 Q 538,512 730,294 922,77 1248,77 q 237,0 384,134 147,135 147,339 0,295 -339,480 l -346,192 q -768,429 -768,928 0,372 240,580 240,208 644,208 281,0 428,-71 116,-51 180,-51 44,0 102,64 h 70 l 32,-870 h -96 q -108,435 -272,611 -163,176 -451,176 -217,0 -349,-109 -131,-109 -131,-326 0,-109 73,-234 74,-125 202,-202 z"
             transform="scale(0.015625)" />
          <path
             id="STIXGeneral-Regular-65"
             d="m 2611,1050 103,-45 Q 2330,-64 1376,-64 813,-64 486,329 160,723 160,1389 q 0,685 365,1120 365,435 960,435 576,0 889,-442 186,-256 218,-729 H 621 q 25,-403 79,-615 55,-211 215,-428 269,-352 711,-352 313,0 527,153 215,154 458,519 z M 634,1978 h 1305 q -57,403 -189,569 -131,167 -438,167 -269,0 -448,-189 -179,-189 -230,-547 z"
             transform="scale(0.015625)" />
          <path
             id="STIXGeneral-Regular-74"
             d="m 1702,493 84,-71 Q 1478,-64 1011,-64 448,-64 448,749 V 2675 H 109 q -26,19 -26,45 0,51 109,122 243,140 621,684 13,20 61,80 48,61 67,100 45,0 45,-84 v -742 h 646 V 2675 H 986 V 845 q 0,-307 76,-442 77,-134 256,-134 192,0 384,224 z"
             transform="scale(0.015625)" />
        </defs>
        <use
           xlink:href="#STIXGeneral-Italic-54"
           transform="translate(0,0.703125)"
           id="use132"
           x="0"
           y="0"
           width="100%"
           height="100%" />
        <use
           xlink:href="#STIXGeneral-Regular-73"
           transform="matrix(0.7,0,0,0.7,55.599991,-12.525)"
           id="use134"
           x="0"
           y="0"
           width="100%"
           height="100%" />
        <use
           xlink:href="#STIXGeneral-Regular-65"
           transform="matrix(0.7,0,0,0.7,82.829987,-12.525)"
           id="use136"
           x="0"
           y="0"
           width="100%"
           height="100%" />
        <use
           xlink:href="#STIXGeneral-Regular-74"
           transform="matrix(0.7,0,0,0.7,113.90998,-12.525)"
           id="use138"
           x="0"
           y="0"
           width="100%"
           height="100%" />
      </g>
    </g>
  </g>
  <g
     id="matplotlib.axis_2">
    <g
       id="ytick_1">
      <g
         id="line2d_6">
        <path
           d="M 108,512.64 H 777.6"
           clip-path="url(#p9a42573305)"
           style="fill:none;stroke:#cccccc;stroke-width:0.8;stroke-linecap:round"
           id="path144" />
      </g>
    </g>
    <g
       id="ytick_2">
      <g
         id="line2d_7">
        <path
           d="M 108,438.72 H 777.6"
           clip-path="url(#p9a42573305)"
           style="fill:none;stroke:#cccccc;stroke-width:0.8;stroke-linecap:round"
           id="path148" />
      </g>
      <g
         id="text_7">
        <!-- 20% -->
        <g
           style="fill:#262626"
           transform="matrix(0.18,0,0,-0.18,68.006563,444.96938)"
           id="g160">
          <defs
             id="defs152">
            <path
               id="TimesNewRomanPSMT-25"
               d="M 4350,4334 1263,-175 H 984 l 3088,4509 z m -3212,0 q 421,0 654,-350 233,-350 233,-803 0,-543 -263,-840 -262,-297 -631,-297 -247,0 -453,136 -206,136 -330,404 -123,269 -123,597 0,328 125,605 125,277 342,412 217,136 446,136 z m -10,-175 q -159,0 -283,-188 -123,-187 -123,-787 0,-434 69,-662 53,-172 165,-266 66,-56 163,-56 150,0 256,163 156,240 156,803 0,593 -153,834 -100,159 -250,159 z M 4206,2103 q 222,0 442,-141 221,-140 341,-409 120,-269 120,-590 0,-554 -266,-846 -265,-292 -627,-292 -228,0 -443,141 -214,140 -337,401 -123,261 -123,596 0,328 123,599 123,272 337,406 215,135 433,135 z m 3,-165 q -150,0 -259,-169 -141,-219 -141,-828 0,-560 144,-782 106,-159 256,-159 144,0 257,172 150,228 150,784 0,588 -150,822 -103,160 -257,160 z"
               transform="scale(0.015625)" />
          </defs>
          <use
             xlink:href="#TimesNewRomanPSMT-32"
             id="use154"
             x="0"
             y="0"
             width="100%"
             height="100%" />
          <use
             xlink:href="#TimesNewRomanPSMT-30"
             x="50"
             id="use156"
             y="0"
             width="100%"
             height="100%" />
          <use
             xlink:href="#TimesNewRomanPSMT-25"
             x="100"
             id="use158"
             y="0"
             width="100%"
             height="100%" />
        </g>
      </g>
    </g>
    <g
       id="ytick_3">
      <g
         id="line2d_8">
        <path
           d="M 108,364.8 H 777.6"
           clip-path="url(#p9a42573305)"
           style="fill:none;stroke:#cccccc;stroke-width:0.8;stroke-linecap:round"
           id="path164" />
      </g>
      <g
         id="text_8">
        <!-- 40% -->
        <g
           style="fill:#262626"
           transform="matrix(0.18,0,0,-0.18,68.006563,371.04937)"
           id="g173">
          <use
             xlink:href="#TimesNewRomanPSMT-34"
             id="use167"
             x="0"
             y="0"
             width="100%"
             height="100%" />
          <use
             xlink:href="#TimesNewRomanPSMT-30"
             x="50"
             id="use169"
             y="0"
             width="100%"
             height="100%" />
          <use
             xlink:href="#TimesNewRomanPSMT-25"
             x="100"
             id="use171"
             y="0"
             width="100%"
             height="100%" />
        </g>
      </g>
    </g>
    <g
       id="ytick_4">
      <g
         id="line2d_9">
        <path
           d="M 108,290.88 H 777.6"
           clip-path="url(#p9a42573305)"
           style="fill:none;stroke:#cccccc;stroke-width:0.8;stroke-linecap:round"
           id="path177" />
      </g>
      <g
         id="text_9">
        <!-- 60% -->
        <g
           style="fill:#262626"
           transform="matrix(0.18,0,0,-0.18,68.006563,297.12937)"
           id="g186">
          <use
             xlink:href="#TimesNewRomanPSMT-36"
             id="use180"
             x="0"
             y="0"
             width="100%"
             height="100%" />
          <use
             xlink:href="#TimesNewRomanPSMT-30"
             x="50"
             id="use182"
             y="0"
             width="100%"
             height="100%" />
          <use
             xlink:href="#TimesNewRomanPSMT-25"
             x="100"
             id="use184"
             y="0"
             width="100%"
             height="100%" />
        </g>
      </g>
    </g>
    <g
       id="ytick_5">
      <g
         id="line2d_10">
        <path
           d="M 108,216.96 H 777.6"
           clip-path="url(#p9a42573305)"
           style="fill:none;stroke:#cccccc;stroke-width:0.8;stroke-linecap:round"
           id="path190" />
      </g>
      <g
         id="text_10">
        <!-- 80% -->
        <g
           style="fill:#262626"
           transform="matrix(0.18,0,0,-0.18,68.006563,223.20937)"
           id="g199">
          <use
             xlink:href="#TimesNewRomanPSMT-38"
             id="use193"
             x="0"
             y="0"
             width="100%"
             height="100%" />
          <use
             xlink:href="#TimesNewRomanPSMT-30"
             x="50"
             id="use195"
             y="0"
             width="100%"
             height="100%" />
          <use
             xlink:href="#TimesNewRomanPSMT-25"
             x="100"
             id="use197"
             y="0"
             width="100%"
             height="100%" />
        </g>
      </g>
    </g>
    <g
       id="ytick_6">
      <g
         id="line2d_11">
        <path
           d="M 108,143.04 H 777.6"
           clip-path="url(#p9a42573305)"
           style="fill:none;stroke:#cccccc;stroke-width:0.8;stroke-linecap:round"
           id="path203" />
      </g>
      <g
         id="text_11">
        <!-- 100% -->
        <g
           style="fill:#262626"
           transform="matrix(0.18,0,0,-0.18,59.006563,149.28937)"
           id="g214">
          <use
             xlink:href="#TimesNewRomanPSMT-31"
             id="use206"
             x="0"
             y="0"
             width="100%"
             height="100%" />
          <use
             xlink:href="#TimesNewRomanPSMT-30"
             x="50"
             id="use208"
             y="0"
             width="100%"
             height="100%" />
          <use
             xlink:href="#TimesNewRomanPSMT-30"
             x="100"
             id="use210"
             y="0"
             width="100%"
             height="100%" />
          <use
             xlink:href="#TimesNewRomanPSMT-25"
             x="150"
             id="use212"
             y="0"
             width="100%"
             height="100%" />
        </g>
      </g>
    </g>
    <g
       id="ytick_7">
      <g
         id="line2d_12">
        <path
           d="M 108,69.12 H 777.6"
           clip-path="url(#p9a42573305)"
           style="fill:none;stroke:#cccccc;stroke-width:0.8;stroke-linecap:round"
           id="path218" />
      </g>
      <g
         id="text_12">
        <!-- 120% -->
        <g
           style="fill:#262626"
           transform="matrix(0.18,0,0,-0.18,59.006563,75.369375)"
           id="g229">
          <use
             xlink:href="#TimesNewRomanPSMT-31"
             id="use221"
             x="0"
             y="0"
             width="100%"
             height="100%" />
          <use
             xlink:href="#TimesNewRomanPSMT-32"
             x="50"
             id="use223"
             y="0"
             width="100%"
             height="100%" />
          <use
             xlink:href="#TimesNewRomanPSMT-30"
             x="100"
             id="use225"
             y="0"
             width="100%"
             height="100%" />
          <use
             xlink:href="#TimesNewRomanPSMT-25"
             x="150"
             id="use227"
             y="0"
             width="100%"
             height="100%" />
        </g>
      </g>
    </g>
    <g
       id="text_13">
      <!-- $R_\mathrm{r}$ -->
      <g
         style="fill:#262626"
         transform="matrix(0,-0.27,-0.27,0,49.231094,302.895)"
         id="g241">
        <defs
           id="defs235">
          <path
             id="STIXGeneral-Italic-52"
             d="m 845,4179 h 1613 q 620,0 962,-243 343,-243 343,-659 0,-499 -422,-819 -250,-192 -839,-327 L 3072,627 Q 3181,333 3299,217 3418,102 3629,102 V 0 h -941 l -787,2074 -423,32 -352,-1300 q -83,-294 -83,-403 0,-147 83,-211 84,-64 346,-90 V 0 H -83 v 102 q 256,32 361,141 106,109 183,403 l 761,2759 q 77,294 77,403 0,115 -89,179 -77,51 -365,90 z M 1958,3795 1555,2342 q 199,-32 327,-32 569,0 889,256 320,256 320,704 0,333 -199,525 -198,192 -569,192 -313,0 -365,-192 z"
             transform="scale(0.015625)" />
          <path
             id="STIXGeneral-Regular-72"
             d="m 1024,2931 v -589 q 243,346 406,474 164,128 362,128 166,0 259,-90 93,-89 93,-249 0,-135 -67,-212 -67,-76 -183,-76 -121,0 -256,128 -102,96 -166,96 -134,0 -291,-186 -157,-185 -157,-339 V 576 q 0,-275 109,-371 109,-96 435,-109 V 0 H 32 v 96 q 307,58 380,128 74,70 74,314 v 1600 q 0,211 -48,297 -48,87 -169,87 -103,0 -224,-26 v 102 q 403,128 947,346 z"
             transform="scale(0.015625)" />
        </defs>
        <use
           xlink:href="#STIXGeneral-Italic-52"
           transform="translate(0,0.703125)"
           id="use237"
           x="0"
           y="0"
           width="100%"
           height="100%" />
        <use
           xlink:href="#STIXGeneral-Regular-72"
           transform="matrix(0.7,0,0,0.7,61.099991,-12.525)"
           id="use239"
           x="0"
           y="0"
           width="100%"
           height="100%" />
      </g>
    </g>
  </g>
  <g
     id="PolyCollection_1">
    <defs
       id="defs276">
      <path
         id="me18f435e85"
         d="m 138.43636,-425.01052 v 141.00081 l 6.14876,-2.0526 6.14876,-2.01139 6.14876,-2.07702 6.14876,-2.02576 6.14876,-1.70335 6.14877,-1.69573 6.14876,-2.13939 6.14876,-2.42917 6.14876,-2.1912 6.14876,-1.64035 6.14876,-1.48795 6.14876,-1.50338 6.14876,-2.16332 6.14876,-1.64643 6.14876,-1.64643 6.14876,-1.64642 6.14876,-1.66078 6.14876,-1.71999 6.14876,-2.47171 6.14876,-2.45133 6.14876,-1.93322 6.14876,-1.63332 6.14876,-1.63657 6.14876,-1.55836 6.14876,-1.37824 6.14876,-1.37824 6.14876,-1.37824 6.14876,-1.37825 6.14876,-1.38134 6.14876,-2.13437 6.14876,-1.77766 6.14876,-1.53931 6.14877,-1.5393 6.14875,-1.5393 6.14876,-1.43274 6.14877,-1.36703 6.14876,-1.40225 6.14876,-1.70593 6.14876,-1.78856 6.14876,-1.5393 6.14876,-1.56882 6.14876,-1.64776 6.14876,-1.51628 6.14876,-1.41035 6.14876,-1.53102 6.14876,-1.54002 6.14876,-1.54001 6.14876,-1.5388 6.14876,-1.37096 6.14876,-1.39045 6.14876,-1.39045 6.14876,-1.39045 6.14876,-1.39045 6.14876,-1.39716 6.14876,-1.41511 6.14876,-1.62925 6.14876,-1.33631 6.14876,-1.33553 6.14876,-1.28622 6.14876,-1.37142 6.14876,-1.33538 6.14876,-1.35275 6.14876,-1.52748 6.14877,-1.33849 6.14875,-1.2552 6.14876,-1.29434 6.14877,-1.31722 6.14876,-1.76763 6.14876,-1.39487 6.14876,-1.31327 6.14876,-1.21961 6.14876,-1.21999 6.14876,-1.36462 6.14876,-1.1422 6.14876,-1.18542 6.14876,-1.17639 6.14876,-1.09844 6.14876,-1.05431 6.14876,-1.0257 6.14876,-1.21645 6.14876,-1.014 6.14876,-1.25749 6.14876,-1.12855 6.14876,-1.12705 6.14876,-0.90272 6.14876,-0.69421 6.14876,-0.24993 6.14876,-0.49031 6.14876,-0.33401 6.14876,-0.42722 6.14876,0.0166 6.14876,-0.389 6.14876,0.0537 6.14877,-0.27518 6.14875,-0.0641 6.14876,-0.0233 6.14877,-0.0233 6.14876,0.0199 6.14876,0.087 v -105.17176 0 l -6.14876,2.36051 -6.14876,2.37355 -6.14877,2.37559 -6.14876,2.37559 -6.14875,2.22292 -6.14877,1.98022 -6.14876,2.25027 -6.14876,2.43639 -6.14876,2.4364 -6.14876,2.43639 -6.14876,2.4364 -6.14876,2.43639 -6.14876,2.4364 -6.14876,2.43639 -6.14876,2.43916 -6.14876,2.44328 -6.14876,2.38142 -6.14876,2.37046 -6.14876,1.7829 -6.14876,1.55395 -6.14876,1.55394 -6.14876,1.43455 -6.14876,1.37272 -6.14876,1.38343 -6.14876,2.00248 -6.14876,1.53163 -6.14876,1.53161 -6.14876,1.53163 -6.14876,1.54441 -6.14876,1.54707 -6.14876,1.54706 -6.14876,1.91211 -6.14877,1.95742 -6.14876,1.95741 -6.14875,1.95741 -6.14877,1.95742 -6.14876,1.9664 -6.14876,1.98634 -6.14876,1.98633 -6.14876,1.96271 -6.14876,1.95389 -6.14876,1.5442 -6.14876,1.257 -6.14876,1.257 -6.14876,1.25701 -6.14876,1.257 -6.14876,1.27306 -6.14876,1.29898 -6.14876,1.39634 -6.14876,0.99787 -6.14876,0.20803 -6.14876,1.41652 -6.14876,0.70305 -6.14876,0.33186 -6.14876,0.52129 -6.14876,0.32074 -6.14876,0.11403 -6.14876,0.1455 -6.14876,0.0694 -6.14876,-0.0817 -6.14876,-0.0728 -6.14876,0.31121 -6.14876,0.0297 -6.14877,0.0199 -6.14876,-0.0276 -6.14875,-0.0275 -6.14877,-0.0276 -6.14876,-0.0275 -6.14876,0.0578 -6.14876,-0.10313 -6.14876,-0.0141 -6.14876,-0.0141 -6.14876,0.34822 -6.14876,-0.0377 -6.14876,-0.0377 -6.14876,-0.0377 -6.14876,-0.12065 -6.14876,-0.13236 -6.14876,-0.0784 -6.14876,-0.0161 -6.14876,-0.0233 -6.14876,-0.1299 -6.14876,-0.008 -6.14876,-0.0847 -6.14876,-0.0419 -6.14876,-0.0294 -6.14876,-0.11922 -6.14876,-0.0435 -6.14876,-0.0299 -6.14876,-0.0299 -6.14876,-0.0326 -6.14876,-0.0734 -6.14876,-0.0732 -6.14877,-0.0732 -6.14876,-0.0732 -6.14876,-0.0732 -6.14876,-0.0552 -6.14876,-0.0258 z"
         style="stroke:#ffffff;stroke-opacity:0.15" />
    </defs>
    <g
       clip-path="url(#p9a42573305)"
       id="g280">
      <use
         xlink:href="#me18f435e85"
         x="0"
         y="576"
         style="fill:#1f77b4;fill-opacity:0.15;stroke:#ffffff;stroke-opacity:0.15"
         id="use278"
         width="100%"
         height="100%" />
    </g>
  </g>
  <g
     id="PolyCollection_2">
    <defs
       id="defs314">
      <path
         id="m16a0d5aef0"
         d="m 138.43636,-434.05202 v 67.93538 l 6.14876,-1.01417 6.14876,-0.63921 6.14876,-0.68434 6.14876,-0.90713 6.14876,-0.57675 6.14877,-0.67506 6.14876,-0.86474 6.14876,-0.86647 6.14876,-0.87739 6.14876,-0.87742 6.14876,-0.87193 6.14876,-0.70637 6.14876,-1.14409 6.14876,-0.77118 6.14876,-0.86394 6.14876,-0.53103 6.14876,-0.50398 6.14876,-0.5626 6.14876,-0.48057 6.14876,-0.50371 6.14876,-0.79892 6.14876,-0.79895 6.14876,-0.79894 6.14876,-0.83116 6.14876,-0.72975 6.14876,-0.787 6.14876,-0.73629 6.14876,-0.66545 6.14876,-0.6557 6.14876,-0.6557 6.14876,-0.58841 6.14876,-0.57508 6.14877,-0.57508 6.14875,-0.64619 6.14876,-0.89978 6.14877,-0.6616 6.14876,-0.66161 6.14876,-0.79993 6.14876,-0.81015 6.14876,-0.81016 6.14876,-0.57746 6.14876,-0.41953 6.14876,-0.6448 6.14876,-0.53079 6.14876,-0.50148 6.14876,-0.47437 6.14876,-0.4998 6.14876,-0.49981 6.14876,-0.4404 6.14876,-0.6438 6.14876,-0.57679 6.14876,-0.37245 6.14876,-0.58868 6.14876,-0.47106 6.14876,-0.68793 6.14876,-0.47288 6.14876,-0.35408 6.14876,-0.41111 6.14876,-0.50297 6.14876,-0.56828 6.14876,-0.54708 6.14876,-0.57321 6.14876,-0.47915 6.14877,-0.40552 6.14875,-0.43575 6.14876,-0.50071 6.14877,-0.28951 6.14876,-0.31308 6.14876,-0.39984 6.14876,-0.40117 6.14876,-0.77255 6.14876,-0.30908 6.14876,-0.42892 6.14876,-0.22249 6.14876,-0.27254 6.14876,-0.15708 6.14876,-0.25085 6.14876,-0.34459 6.14876,-0.0473 6.14876,-0.21545 6.14876,-0.0815 6.14876,0.14781 6.14876,-0.003 6.14876,0.0773 6.14876,-0.14657 6.14876,0.10588 6.14876,-0.15106 6.14876,-0.17815 6.14876,0.20232 6.14876,0.19621 6.14876,-0.10331 6.14876,0.1777 6.14876,0.11725 6.14877,0.0629 6.14875,-0.0796 6.14876,0.11712 6.14877,0.27822 6.14876,0.16641 6.14876,0.0201 v -57.49178 0 l -6.14876,0.9313 -6.14876,0.93131 -6.14877,0.93131 -6.14876,1.05653 -6.14875,1.07782 -6.14877,1.07782 -6.14876,1.07782 -6.14876,1.07782 -6.14876,0.88191 -6.14876,0.85983 -6.14876,0.85983 -6.14876,0.85982 -6.14876,0.85983 -6.14876,0.85982 -6.14876,0.85983 -6.14876,0.85983 -6.14876,0.85982 -6.14876,0.83823 -6.14876,0.86967 -6.14876,0.86308 -6.14876,0.85488 -6.14876,0.85715 -6.14876,0.86384 -6.14876,0.87806 -6.14876,1.08259 -6.14876,0.88229 -6.14876,0.58813 -6.14876,0.85769 -6.14876,0.85118 -6.14876,0.85117 -6.14876,0.8581 -6.14876,0.84517 -6.14877,0.58359 -6.14876,1.10196 -6.14875,0.6773 -6.14877,0.58515 -6.14876,0.57451 -6.14876,0.60295 -6.14876,0.57799 -6.14876,0.48641 -6.14876,0.33398 -6.14876,0.33398 -6.14876,0.42313 -6.14876,0.73554 -6.14876,0.80863 -6.14876,0.59662 -6.14876,0.46703 -6.14876,0.88743 -6.14876,0.38138 -6.14876,0.2704 -6.14876,0.2359 -6.14876,-0.0368 -6.14876,0.24719 -6.14876,0.2925 -6.14876,0.005 -6.14876,0.1855 -6.14876,-0.004 -6.14876,-0.0396 -6.14876,-0.0908 -6.14876,-0.0345 -6.14876,-0.17106 -6.14876,0.17292 -6.14876,0.16998 -6.14877,-0.0629 -6.14876,-0.15406 -6.14875,-0.20818 -6.14877,-0.18141 -6.14876,-0.10063 -6.14876,-0.0931 -6.14876,-0.002 -6.14876,-0.0628 -6.14876,-0.10115 -6.14876,-0.16904 -6.14876,-0.0884 -6.14876,-0.12874 -6.14876,-0.0832 -6.14876,-0.16745 -6.14876,-0.20251 -6.14876,-0.18225 -6.14876,-0.0465 -6.14876,-0.0477 -6.14876,-0.1555 -6.14876,-0.1551 -6.14876,-0.13122 -6.14876,-0.13122 -6.14876,-0.13123 -6.14876,-0.16045 -6.14876,-0.27293 -6.14876,-0.1054 -6.14876,-0.0987 -6.14876,-0.0987 -6.14876,-0.0981 -6.14876,-0.0951 -6.14877,-0.11252 -6.14876,-0.12805 -6.14876,-0.13148 -6.14876,-0.13149 -6.14876,-0.13149 z"
         style="stroke:#ffffff;stroke-opacity:0.15" />
    </defs>
    <g
       clip-path="url(#p9a42573305)"
       id="g318">
      <use
         xlink:href="#m16a0d5aef0"
         x="0"
         y="576"
         style="fill:#ff7f0e;fill-opacity:0.15;stroke:#ffffff;stroke-opacity:0.15"
         id="use316"
         width="100%"
         height="100%" />
    </g>
  </g>
  <g
     id="line2d_13">
    <path
       d="m 138.43636,221.32128 6.14876,-0.88292 6.14876,-0.88291 6.14876,-0.88292 6.14876,-0.88291 6.14876,-0.88292 6.14877,-0.88291 6.14876,-0.88292 6.14876,-0.88291 6.14876,-0.88292 6.14876,-0.88292 6.14876,-0.88291 6.14876,-0.88292 6.14876,-0.88291 6.14876,-0.88292 6.14876,-0.88291 6.14876,-0.88292 6.14876,-0.88291 6.14876,-0.88292 6.14876,-0.88292 6.14876,-0.88291 6.14876,-0.88292 6.14876,-0.88291 6.14876,-0.88292 6.14876,-0.88291 6.14876,-0.88292 6.14876,-0.88291 6.14876,-0.88292 6.14876,-0.88292 6.14876,-0.88291 6.14876,-0.88292 6.14876,-0.88291 6.14876,-0.88292 6.14877,-0.88291 6.14875,-0.88292 6.14876,-0.88291 6.14877,-0.88292 6.14876,-0.88292 6.14876,-0.88291 6.14876,-0.88292 6.14876,-0.88291 6.14876,-0.88292 6.14876,-0.88291 6.14876,-0.88292 6.14876,-0.88291 6.14876,-0.88292 6.14876,-0.88292 6.14876,-0.88291 6.14876,-0.88292 6.14876,-0.88291 6.14876,-0.88292 6.14876,-0.88291 6.14876,-0.88292 6.14876,-0.88291 6.14876,-0.88292 6.14876,-0.88292 6.14876,-0.88291 6.14876,-0.88292 6.14876,-0.88291 6.14876,-0.88292 6.14876,-0.88291 6.14876,-0.88292 6.14876,-0.88291 6.14876,-0.88292 6.14877,-0.88292 6.14875,-0.88291 6.14876,-0.88292 6.14877,-0.88291 6.14876,-0.88292 6.14876,-0.88291 6.14876,-0.88292 6.14876,-0.88291 6.14876,-0.88292 6.14876,-0.88292 6.14876,-0.88291 6.14876,-0.88292 6.14876,-0.88291 6.14876,-0.88292 6.14876,-0.88291 6.14876,-0.88292 6.14876,-0.88291 6.14876,-0.88292 6.14876,-0.88292 6.14876,-0.88291 6.14876,-0.88292 6.14876,-0.88291 6.14876,-0.88292 6.14876,-0.88291 6.14876,-0.88292 6.14876,-0.88291 6.14876,-0.88292 6.14876,-0.88292 6.14876,-0.88291 6.14876,-0.88292 6.14877,-0.88291 6.14875,-0.88292 6.14876,-0.88291 6.14877,-0.88292 6.14876,-0.88291 6.14876,-0.88292"
       clip-path="url(#p9a42573305)"
       style="fill:none;stroke:#1f77b4;stroke-width:2.25;stroke-linecap:round"
       id="path321" />
  </g>
  <g
     id="line2d_14">
    <path
       d="m 138.43636,174.87488 6.14876,-0.29412 6.14876,-0.29411 6.14876,-0.29412 6.14876,-0.29411 6.14876,-0.29412 6.14877,-0.29411 6.14876,-0.29412 6.14876,-0.29411 6.14876,-0.29412 6.14876,-0.29412 6.14876,-0.29411 6.14876,-0.29412 6.14876,-0.29411 6.14876,-0.29412 6.14876,-0.29411 6.14876,-0.29412 6.14876,-0.29411 6.14876,-0.29412 6.14876,-0.29412 6.14876,-0.29411 6.14876,-0.29412 6.14876,-0.29411 6.14876,-0.29412 6.14876,-0.29411 6.14876,-0.29412 6.14876,-0.29411 6.14876,-0.29412 6.14876,-0.29412 6.14876,-0.29411 6.14876,-0.29412 6.14876,-0.29411 6.14876,-0.29412 6.14877,-0.29411 6.14875,-0.29412 6.14876,-0.29411 6.14877,-0.29412 6.14876,-0.29412 6.14876,-0.29411 6.14876,-0.29412 6.14876,-0.29411 6.14876,-0.29412 6.14876,-0.29411 6.14876,-0.29412 6.14876,-0.29411 6.14876,-0.29412 6.14876,-0.29412 6.14876,-0.29411 6.14876,-0.29412 6.14876,-0.29411 6.14876,-0.29412 6.14876,-0.29411 6.14876,-0.29412 6.14876,-0.29411 6.14876,-0.29412 6.14876,-0.29412 6.14876,-0.29411 6.14876,-0.29412 6.14876,-0.29411 6.14876,-0.29412 6.14876,-0.29411 6.14876,-0.29412 6.14876,-0.29411 6.14876,-0.29412 6.14877,-0.29412 6.14875,-0.29411 6.14876,-0.29412 6.14877,-0.29411 6.14876,-0.29412 6.14876,-0.29411 6.14876,-0.29412 6.14876,-0.29411 6.14876,-0.29412 6.14876,-0.29412 6.14876,-0.29411 6.14876,-0.29412 6.14876,-0.29411 6.14876,-0.29412 6.14876,-0.29411 6.14876,-0.29412 6.14876,-0.29411 6.14876,-0.29412 6.14876,-0.29412 6.14876,-0.29411 6.14876,-0.29412 6.14876,-0.29411 6.14876,-0.29412 6.14876,-0.29411 6.14876,-0.29412 6.14876,-0.29411 6.14876,-0.29412 6.14876,-0.29412 6.14876,-0.29411 6.14876,-0.29412 6.14877,-0.29411 6.14875,-0.29412 6.14876,-0.29411 6.14877,-0.29412 6.14876,-0.29411 6.14876,-0.29412"
       clip-path="url(#p9a42573305)"
       style="fill:none;stroke:#ff7f0e;stroke-width:2.25;stroke-linecap:round"
       id="path324" />
  </g>
  <g
     id="patch_3">
    <path
       d="M 108,512.64 V 69.12"
       style="fill:none;stroke:#cccccc;stroke-width:2;stroke-linecap:square;stroke-linejoin:miter"
       id="path327" />
  </g>
  <g
     id="patch_4">
    <path
       d="M 777.6,512.64 V 69.12"
       style="fill:none;stroke:#cccccc;stroke-width:0.8;stroke-linecap:square;stroke-linejoin:miter"
       id="path330" />
  </g>
  <g
     id="patch_5">
    <path
       d="M 108,512.64 H 777.6"
       style="fill:none;stroke:#cccccc;stroke-width:2;stroke-linecap:square;stroke-linejoin:miter"
       id="path333" />
  </g>
  <g
     id="patch_6">
    <path
       d="M 108,69.12 H 777.6"
       style="fill:none;stroke:#cccccc;stroke-width:0.8;stroke-linecap:square;stroke-linejoin:miter"
       id="path336" />
  </g>
  <g
     id="legend_1">
    <g
       id="patch_7">
      <path
         d="M 618.12797,502.14 H 762.9 q 4.2,0 4.2,-4.2 v -57.28406 q 0,-4.2 -4.2,-4.2 H 618.12797 q -4.2,0 -4.2,4.2 V 497.94 q 0,4.2 4.2,4.2 z"
         style="opacity:0.8;fill:#ffffff;stroke:#cccccc;stroke-linejoin:miter"
         id="path339" />
    </g>
    <g
       id="PathCollection_3">
      <g
         id="g344">
        <use
           xlink:href="#m92670949ed"
           x="643.32794"
           y="454.04343"
           style="fill:#1f77b4;fill-opacity:0.8;stroke:#1f77b4;stroke-opacity:0.8"
           id="use342"
           width="100%"
           height="100%" />
      </g>
    </g>
    <g
       id="text_14">
      <!-- version 1 -->
      <g
         style="fill:#262626"
         transform="matrix(0.21,0,0,-0.21,681.12797,459.55594)"
         id="g374">
        <defs
           id="defs354">
          <path
             id="TimesNewRomanPSMT-76"
             d="m 53,2863 h 1347 v -116 h -87 q -122,0 -186,-60 -64,-59 -64,-159 0,-109 65,-259 l 666,-1581 669,1640 q 71,175 71,266 0,44 -25,72 -34,47 -87,64 -53,17 -216,17 v 116 h 935 v -116 q -163,-13 -225,-66 -110,-93 -197,-312 L 1703,-88 H 1575 L 553,2328 q -69,169 -132,242 -62,74 -158,124 -54,28 -210,53 z"
             transform="scale(0.015625)" />
          <path
             id="TimesNewRomanPSMT-65"
             d="m 681,1784 q -3,-637 310,-1000 312,-362 734,-362 281,0 489,154 208,155 349,530 l 96,-62 Q 2594,616 2278,264 1963,-88 1488,-88 972,-88 605,314 238,716 238,1394 q 0,734 376,1145 377,411 945,411 482,0 791,-317 309,-317 309,-849 z m 0,182 h 1325 q -15,275 -65,387 -78,175 -233,275 -155,100 -324,100 -259,0 -464,-202 -204,-201 -239,-560 z"
             transform="scale(0.015625)" />
          <path
             id="TimesNewRomanPSMT-72"
             d="m 1038,2947 v -644 q 359,644 737,644 172,0 284,-105 113,-104 113,-242 0,-122 -82,-207 -81,-84 -193,-84 -109,0 -245,108 -136,108 -202,108 -56,0 -122,-62 -140,-129 -290,-422 V 669 q 0,-238 59,-360 41,-84 144,-140 103,-56 297,-56 V 0 H 72 v 113 q 219,0 325,68 78,50 109,160 16,53 16,303 v 1109 q 0,500 -21,595 -20,96 -75,139 -54,44 -135,44 -97,0 -219,-47 l -31,113 865,350 z"
             transform="scale(0.015625)" />
          <path
             id="TimesNewRomanPSMT-73"
             d="m 2050,2947 v -975 h -103 q -119,459 -305,625 -186,166 -473,166 -219,0 -354,-116 -134,-116 -134,-256 0,-175 100,-300 97,-128 394,-272 l 456,-222 Q 2266,1288 2266,781 2266,391 1970,151 1675,-88 1309,-88 1047,-88 709,6 606,38 541,38 469,38 428,-44 H 325 V 978 H 428 Q 516,541 762,319 1009,97 1316,97 q 215,0 351,126 136,127 136,305 0,216 -152,363 -151,147 -604,372 -453,225 -594,406 -140,178 -140,450 0,353 242,590 242,238 626,238 169,0 410,-72 159,-47 212,-47 50,0 78,22 28,22 66,97 z"
             transform="scale(0.015625)" />
          <path
             id="TimesNewRomanPSMT-69"
             d="m 928,4444 q 131,0 223,-93 93,-92 93,-223 0,-131 -93,-225 -92,-94 -223,-94 -131,0 -225,94 -94,94 -94,225 0,131 92,223 93,93 227,93 z M 1188,2947 V 647 q 0,-269 39,-358 39,-89 115,-133 77,-43 280,-43 V 0 H 231 v 113 q 210,0 281,40 72,41 114,134 43,94 43,360 v 1103 q 0,466 -28,603 -22,100 -69,139 -47,39 -128,39 -88,0 -213,-47 l -43,113 862,350 z"
             transform="scale(0.015625)" />
          <path
             id="TimesNewRomanPSMT-6f"
             d="m 1600,2947 q 650,0 1044,-494 334,-422 334,-969 0,-384 -185,-778 Q 2609,313 2286,112 1963,-88 1566,-88 919,-88 538,428 216,863 216,1403 q 0,394 195,783 195,389 514,575 319,186 675,186 z m -97,-203 q -165,0 -333,-99 -167,-98 -270,-345 -103,-247 -103,-634 0,-625 248,-1079 249,-453 655,-453 303,0 500,250 197,250 197,860 0,762 -328,1200 -222,300 -566,300 z"
             transform="scale(0.015625)" />
          <path
             id="TimesNewRomanPSMT-6e"
             d="m 1034,2341 q 504,606 960,606 234,0 403,-117 169,-117 269,-386 68,-188 68,-575 V 647 q 0,-272 44,-369 35,-78 111,-122 77,-43 283,-43 V 0 H 1756 v 113 h 60 q 200,0 279,60 80,61 111,180 13,47 13,294 v 1172 q 0,390 -102,567 -101,177 -342,177 -372,0 -741,-407 V 647 q 0,-291 35,-359 44,-91 120,-133 77,-42 311,-42 V 0 H 84 v 113 h 63 q 219,0 295,110 77,111 77,424 v 1062 q 0,516 -24,628 -23,113 -72,153 -48,41 -129,41 -88,0 -210,-47 l -46,113 862,350 h 134 z"
             transform="scale(0.015625)" />
        </defs>
        <use
           xlink:href="#TimesNewRomanPSMT-76"
           id="use356"
           x="0"
           y="0"
           width="100%"
           height="100%" />
        <use
           xlink:href="#TimesNewRomanPSMT-65"
           x="50"
           id="use358"
           y="0"
           width="100%"
           height="100%" />
        <use
           xlink:href="#TimesNewRomanPSMT-72"
           x="94.384766"
           id="use360"
           y="0"
           width="100%"
           height="100%" />
        <use
           xlink:href="#TimesNewRomanPSMT-73"
           x="127.68555"
           id="use362"
           y="0"
           width="100%"
           height="100%" />
        <use
           xlink:href="#TimesNewRomanPSMT-69"
           x="166.60156"
           id="use364"
           y="0"
           width="100%"
           height="100%" />
        <use
           xlink:href="#TimesNewRomanPSMT-6f"
           x="194.38477"
           id="use366"
           y="0"
           width="100%"
           height="100%" />
        <use
           xlink:href="#TimesNewRomanPSMT-6e"
           x="244.38477"
           id="use368"
           y="0"
           width="100%"
           height="100%" />
        <use
           xlink:href="#TimesNewRomanPSMT-20"
           x="294.38477"
           id="use370"
           y="0"
           width="100%"
           height="100%" />
        <use
           xlink:href="#TimesNewRomanPSMT-31"
           x="319.38477"
           id="use372"
           y="0"
           width="100%"
           height="100%" />
      </g>
    </g>
    <g
       id="PathCollection_4">
      <g
         id="g379">
        <use
           xlink:href="#m34cdb01217"
           x="643.32794"
           y="483.73547"
           style="fill:#ff7f0e;fill-opacity:0.8;stroke:#ff7f0e;stroke-opacity:0.8"
           id="use377"
           width="100%"
           height="100%" />
      </g>
    </g>
    <g
       id="text_15">
      <!-- version 2 -->
      <g
         style="fill:#262626"
         transform="matrix(0.21,0,0,-0.21,681.12797,489.24797)"
         id="g400">
        <use
           xlink:href="#TimesNewRomanPSMT-76"
           id="use382"
           x="0"
           y="0"
           width="100%"
           height="100%" />
        <use
           xlink:href="#TimesNewRomanPSMT-65"
           x="50"
           id="use384"
           y="0"
           width="100%"
           height="100%" />
        <use
           xlink:href="#TimesNewRomanPSMT-72"
           x="94.384766"
           id="use386"
           y="0"
           width="100%"
           height="100%" />
        <use
           xlink:href="#TimesNewRomanPSMT-73"
           x="127.68555"
           id="use388"
           y="0"
           width="100%"
           height="100%" />
        <use
           xlink:href="#TimesNewRomanPSMT-69"
           x="166.60156"
           id="use390"
           y="0"
           width="100%"
           height="100%" />
        <use
           xlink:href="#TimesNewRomanPSMT-6f"
           x="194.38477"
           id="use392"
           y="0"
           width="100%"
           height="100%" />
        <use
           xlink:href="#TimesNewRomanPSMT-6e"
           x="244.38477"
           id="use394"
           y="0"
           width="100%"
           height="100%" />
        <use
           xlink:href="#TimesNewRomanPSMT-20"
           x="294.38477"
           id="use396"
           y="0"
           width="100%"
           height="100%" />
        <use
           xlink:href="#TimesNewRomanPSMT-32"
           x="319.38477"
           id="use398"
           y="0"
           width="100%"
           height="100%" />
      </g>
    </g>
  </g>
  <defs
     id="defs409">
    <clipPath
       id="p9a42573305">
      <rect
         x="108"
         y="69.12"
         width="669.6"
         height="443.52"
         id="rect406" />
    </clipPath>
  </defs>
  <rect
     style="fill:#ffffff;stroke:#ffffff;stroke-width:1.09353;stroke-dashoffset:75.5906;stroke-opacity:1"
     id="rect1259"
     width="324.08545"
     height="73.779404"
     x="453.51508"
     y="69.119492" />
  <path
     style="fill:none;stroke:#cccccc;stroke-width:0.75px;stroke-linecap:butt;stroke-linejoin:miter;stroke-opacity:1"
     d="m 442.8,69.12 h 334.8 v 73.92"
     id="path2020" />
  <path
     style="fill:none;stroke:#cccccc;stroke-width:0.75px;stroke-linecap:butt;stroke-linejoin:miter;stroke-opacity:1"
     d="m 564.54545,69.12 v 74.76394"
     id="path2022" />
  <path
     style="fill:none;stroke:#cccccc;stroke-width:0.75px;stroke-linecap:butt;stroke-linejoin:miter;stroke-opacity:1"
     d="m 686.29091,69.12 v 73.63099"
     id="path2024" />
  <path
     style="fill:none;stroke:#cccccc;stroke-width:0.75px;stroke-linecap:butt;stroke-linejoin:miter;stroke-opacity:1"
     d="M 777.6,143.04 453.51508,142.89889"
     id="path3350" />
  <g
     id="PathCollection_1">
    <defs
       id="defs246">
      <path
         id="m92670949ed"
         d="m 0,4.743416 c 1.257969,0 2.464584,-0.499796 3.354102,-1.389314 C 4.24362,2.464584 4.743416,1.257969 4.743416,0 4.743416,-1.257969 4.24362,-2.464584 3.354102,-3.354102 2.464584,-4.24362 1.257969,-4.743416 0,-4.743416 c -1.257969,0 -2.464584,0.499796 -3.354102,1.389314 C -4.24362,-2.464584 -4.743416,-1.257969 -4.743416,0 c 0,1.257969 0.499796,2.464584 1.389314,3.354102 C -2.464584,4.24362 -1.257969,4.743416 0,4.743416 Z"
         style="stroke:#1f77b4;stroke-opacity:0.8" />
    </defs>
    <g
       clip-path="url(#p9a42573305)"
       id="g272">
      <use
         xlink:href="#m92670949ed"
         x="138.43637"
         y="143.03999"
         style="fill:#1f77b4;fill-opacity:0.8;stroke:#1f77b4;stroke-opacity:0.8"
         id="use248"
         width="100%"
         height="100%" />
      <use
         xlink:href="#m92670949ed"
         x="138.43637"
         y="374.04001"
         style="fill:#1f77b4;fill-opacity:0.8;stroke:#1f77b4;stroke-opacity:0.8"
         id="use250"
         width="100%"
         height="100%" />
      <use
         xlink:href="#m92670949ed"
         x="138.43637"
         y="268.33441"
         style="fill:#1f77b4;fill-opacity:0.8;stroke:#1f77b4;stroke-opacity:0.8"
         id="use252"
         width="100%"
         height="100%" />
      <use
         xlink:href="#m92670949ed"
         x="290.61819"
         y="174.45599"
         style="fill:#1f77b4;fill-opacity:0.8;stroke:#1f77b4;stroke-opacity:0.8"
         id="use254"
         width="100%"
         height="100%" />
      <use
         xlink:href="#m92670949ed"
         x="290.61819"
         y="147.8448"
         style="fill:#1f77b4;fill-opacity:0.8;stroke:#1f77b4;stroke-opacity:0.8"
         id="use256"
         width="100%"
         height="100%" />
      <use
         xlink:href="#m92670949ed"
         x="290.61819"
         y="154.4976"
         style="fill:#1f77b4;fill-opacity:0.8;stroke:#1f77b4;stroke-opacity:0.8"
         id="use258"
         width="100%"
         height="100%" />
      <use
         xlink:href="#m92670949ed"
         x="442.79999"
         y="171.49921"
         style="fill:#1f77b4;fill-opacity:0.8;stroke:#1f77b4;stroke-opacity:0.8"
         id="use260"
         width="100%"
         height="100%" />
      <use
         xlink:href="#m92670949ed"
         x="442.79999"
         y="145.2576"
         style="fill:#1f77b4;fill-opacity:0.8;stroke:#1f77b4;stroke-opacity:0.8"
         id="use262"
         width="100%"
         height="100%" />
      <use
         xlink:href="#m92670949ed"
         x="442.79999"
         y="155.6064"
         style="fill:#1f77b4;fill-opacity:0.8;stroke:#1f77b4;stroke-opacity:0.8"
         id="use264"
         width="100%"
         height="100%" />
      <use
         xlink:href="#m92670949ed"
         x="747.16364"
         y="165.9552"
         style="fill:#1f77b4;fill-opacity:0.8;stroke:#1f77b4;stroke-opacity:0.8"
         id="use266"
         width="100%"
         height="100%" />
      <use
         xlink:href="#m92670949ed"
         x="747.16364"
         y="153.38879"
         style="fill:#1f77b4;fill-opacity:0.8;stroke:#1f77b4;stroke-opacity:0.8"
         id="use268"
         width="100%"
         height="100%" />
      <use
         xlink:href="#m92670949ed"
         x="747.16364"
         y="143.03999"
         style="fill:#1f77b4;fill-opacity:0.8;stroke:#1f77b4;stroke-opacity:0.8"
         id="use270"
         width="100%"
         height="100%" />
    </g>
  </g>
  <g
     id="PathCollection_2">
    <defs
       id="defs284">
      <path
         id="m34cdb01217"
         d="m 0,4.743416 c 1.257969,0 2.464584,-0.499796 3.354102,-1.389314 C 4.24362,2.464584 4.743416,1.257969 4.743416,0 4.743416,-1.257969 4.24362,-2.464584 3.354102,-3.354102 2.464584,-4.24362 1.257969,-4.743416 0,-4.743416 c -1.257969,0 -2.464584,0.499796 -3.354102,1.389314 C -4.24362,-2.464584 -4.743416,-1.257969 -4.743416,0 c 0,1.257969 0.499796,2.464584 1.389314,3.354102 C -2.464584,4.24362 -1.257969,4.743416 0,4.743416 Z"
         style="stroke:#ff7f0e;stroke-opacity:0.8" />
    </defs>
    <g
       clip-path="url(#p9a42573305)"
       id="g310">
      <use
         xlink:href="#m34cdb01217"
         x="138.43637"
         y="253.92"
         style="fill:#ff7f0e;fill-opacity:0.8;stroke:#ff7f0e;stroke-opacity:0.8"
         id="use286"
         width="100%"
         height="100%" />
      <use
         xlink:href="#m34cdb01217"
         x="138.43637"
         y="181.84801"
         style="fill:#ff7f0e;fill-opacity:0.8;stroke:#ff7f0e;stroke-opacity:0.8"
         id="use288"
         width="100%"
         height="100%" />
      <use
         xlink:href="#m34cdb01217"
         x="138.43637"
         y="158.5632"
         style="fill:#ff7f0e;fill-opacity:0.8;stroke:#ff7f0e;stroke-opacity:0.8"
         id="use290"
         width="100%"
         height="100%" />
      <use
         xlink:href="#m34cdb01217"
         x="290.61819"
         y="143.03999"
         style="fill:#ff7f0e;fill-opacity:0.8;stroke:#ff7f0e;stroke-opacity:0.8"
         id="use292"
         width="100%"
         height="100%" />
      <use
         xlink:href="#m34cdb01217"
         x="290.61819"
         y="143.03999"
         style="fill:#ff7f0e;fill-opacity:0.8;stroke:#ff7f0e;stroke-opacity:0.8"
         id="use294"
         width="100%"
         height="100%" />
      <use
         xlink:href="#m34cdb01217"
         x="290.61819"
         y="143.03999"
         style="fill:#ff7f0e;fill-opacity:0.8;stroke:#ff7f0e;stroke-opacity:0.8"
         id="use296"
         width="100%"
         height="100%" />
      <use
         xlink:href="#m34cdb01217"
         x="442.79999"
         y="143.03999"
         style="fill:#ff7f0e;fill-opacity:0.8;stroke:#ff7f0e;stroke-opacity:0.8"
         id="use298"
         width="100%"
         height="100%" />
      <use
         xlink:href="#m34cdb01217"
         x="442.79999"
         y="143.03999"
         style="fill:#ff7f0e;fill-opacity:0.8;stroke:#ff7f0e;stroke-opacity:0.8"
         id="use300"
         width="100%"
         height="100%" />
      <use
         xlink:href="#m34cdb01217"
         x="442.79999"
         y="165.9552"
         style="fill:#ff7f0e;fill-opacity:0.8;stroke:#ff7f0e;stroke-opacity:0.8"
         id="use302"
         width="100%"
         height="100%" />
      <use
         xlink:href="#m34cdb01217"
         x="747.16364"
         y="143.03999"
         style="fill:#ff7f0e;fill-opacity:0.8;stroke:#ff7f0e;stroke-opacity:0.8"
         id="use304"
         width="100%"
         height="100%" />
      <use
         xlink:href="#m34cdb01217"
         x="747.16364"
         y="153.38879"
         style="fill:#ff7f0e;fill-opacity:0.8;stroke:#ff7f0e;stroke-opacity:0.8"
         id="use306"
         width="100%"
         height="100%" />
      <use
         xlink:href="#m34cdb01217"
         x="747.16364"
         y="173.7168"
         style="fill:#ff7f0e;fill-opacity:0.8;stroke:#ff7f0e;stroke-opacity:0.8"
         id="use308"
         width="100%"
         height="100%" />
    </g>
  </g>
</svg>
